<svg xmlns="http://www.w3.org/2000/svg" xmlns:xlink="http://www.w3.org/1999/xlink" version="1.1" id="Layer_1" x="0px" y="0px" viewBox="0 0 148 23" height="23mm" width="148mm">
  <style type="text/css" id="style101">
	.st0{fill-rule:evenodd;clip-rule:evenodd;fill:#27AAE2;}
	.st1{fill-rule:evenodd;clip-rule:evenodd;fill:#1D75BD;}
	.st2{fill-rule:evenodd;clip-rule:evenodd;fill:#175F99;}
	.st3{fill-rule:evenodd;clip-rule:evenodd;fill:#0F4C81;}
</style>
  <g transform="translate(-7.416448,-11.224894)" id="g288" >
    <g class="st3">
    <path d="m 44.550179,23.979053 -0.01693,-7.095052 -3.48826,5.841988 h -1.219197 l -3.48826,-5.706522 v 6.959586 H 33.76367 v -11.85331 h 2.269062 l 4.436525,7.365986 4.368791,-7.365986 h 2.269063 l 0.01693,11.85331 z" style="font-style:normal;font-variant:normal;font-weight:bold;font-stretch:normal;font-size:16.9333px;line-height:1.25;font-family:Montserrat;-inkscape-font-specification:'Montserrat Bold';stroke-width:0.264583" id="path164"/>
    <path d="m 55.724306,24.182253 q -1.84573,0 -3.33586,-0.795865 -1.473197,-0.795865 -2.319862,-2.184396 -0.829732,-1.405464 -0.829732,-3.149594 0,-1.744129 0.829732,-3.13266 0.846665,-1.405464 2.319862,-2.201329 1.49013,-0.795865 3.33586,-0.795865 1.84573,0 3.318927,0.795865 1.473197,0.795865 2.319862,2.201329 0.846665,1.388531 0.846665,3.13266 0,1.74413 -0.846665,3.149594 -0.846665,1.388531 -2.319862,2.184396 -1.473197,0.795865 -3.318927,0.795865 z m 0,-2.336795 q 1.049864,0 1.896529,-0.474133 0.846665,-0.491065 1.320798,-1.354664 0.491066,-0.863598 0.491066,-1.964263 0,-1.100664 -0.491066,-1.964262 -0.474133,-0.863599 -1.320798,-1.337731 -0.846665,-0.491066 -1.896529,-0.491066 -1.049865,0 -1.89653,0.491066 -0.846665,0.474132 -1.33773,1.337731 -0.474133,0.863598 -0.474133,1.964262 0,1.100665 0.474133,1.964263 0.491065,0.863599 1.33773,1.354664 0.846665,0.474133 1.89653,0.474133 z" style="font-style:normal;font-variant:normal;font-weight:bold;font-stretch:normal;font-size:16.9333px;line-height:1.25;font-family:Montserrat;-inkscape-font-specification:'Montserrat Bold';stroke-width:0.264583" id="path166"/>
    <path d="m 69.927904,24.182253 q -1.811863,0 -3.28506,-0.778932 -1.456264,-0.795865 -2.302929,-2.184395 -0.829731,-1.405464 -0.829731,-3.166528 0,-1.761063 0.829731,-3.149593 0.846665,-1.405464 2.302929,-2.184396 1.473197,-0.795865 3.301994,-0.795865 1.54093,0 2.777061,0.541865 1.253064,0.541866 2.099729,1.557864 l -1.761063,1.625597 q -1.202265,-1.388531 -2.980261,-1.388531 -1.100665,0 -1.964263,0.491066 -0.863598,0.474132 -1.354664,1.337731 -0.474132,0.863598 -0.474132,1.964262 0,1.100665 0.474132,1.964263 0.491066,0.863599 1.354664,1.354664 0.863598,0.474133 1.964263,0.474133 1.777996,0 2.980261,-1.405464 l 1.761063,1.625597 q -0.846665,1.032931 -2.099729,1.574796 -1.253064,0.541866 -2.793995,0.541866 z" style="font-style:normal;font-variant:normal;font-weight:bold;font-stretch:normal;font-size:16.9333px;line-height:1.25;font-family:Montserrat;-inkscape-font-specification:'Montserrat Bold';stroke-width:0.264583" id="path168"/>
    <path d="m 87.497261,12.125743 v 11.85331 h -2.743194 v -4.859857 h -5.38479 v 4.859857 h -2.743194 v -11.85331 h 2.743194 v 4.673591 h 5.38479 v -4.673591 z" style="font-style:normal;font-variant:normal;font-weight:bold;font-stretch:normal;font-size:16.9333px;line-height:1.25;font-family:Montserrat;-inkscape-font-specification:'Montserrat Bold';stroke-width:0.264583" id="path170"/>
    <path d="m 98.476918,21.439058 h -5.503322 l -1.049865,2.539995 h -2.810928 l 5.28319,-11.85331 h 2.709328 l 5.300119,11.85331 h -2.878657 z m -0.863598,-2.082795 -1.879596,-4.538125 -1.879597,4.538125 z" style="font-style:normal;font-variant:normal;font-weight:bold;font-stretch:normal;font-size:16.9333px;line-height:1.25;font-family:Montserrat;-inkscape-font-specification:'Montserrat Bold';stroke-width:0.264583" id="path172"/>
    <path d="m 112.18999,17.798399 q 1.08373,0.321733 1.65946,1.049865 0.57573,0.728131 0.57573,1.794929 0,1.574797 -1.20226,2.455329 -1.18533,0.880531 -3.4036,0.880531 h -5.84198 v -11.85331 h 5.52025 q 2.06586,0 3.21733,0.795866 1.15146,0.795865 1.15146,2.269062 0,0.880531 -0.44026,1.557863 -0.44027,0.660399 -1.23613,1.049865 z M 106.7036,17.0364 h 2.55693 q 0.89746,0 1.35466,-0.355599 0.4572,-0.372532 0.4572,-1.083731 0,-0.694265 -0.47413,-1.066798 -0.4572,-0.372533 -1.33773,-0.372533 h -2.55693 z m 3.01412,4.910657 q 1.9304,0 1.9304,-1.523997 0,-1.473197 -1.9304,-1.473197 h -3.01412 v 2.997194 z" style="font-style:normal;font-variant:normal;font-weight:bold;font-stretch:normal;font-size:16.9333px;line-height:1.25;font-family:Montserrat;-inkscape-font-specification:'Montserrat Bold';stroke-width:0.264583" id="path174"/>
    <path d="m 125.75594,21.777724 v 2.201329 h -9.17785 v -11.85331 h 8.95772 v 2.201329 h -6.23146 v 2.573862 h 5.50332 v 2.133596 h -5.50332 v 2.743194 z" style="font-style:normal;font-variant:normal;font-weight:bold;font-stretch:normal;font-size:16.9333px;line-height:1.25;font-family:Montserrat;-inkscape-font-specification:'Montserrat Bold';stroke-width:0.264583" id="path176"/>
    <path d="m 133.56007,24.182253 q -1.81186,0 -3.28506,-0.778932 -1.45626,-0.795865 -2.30293,-2.184395 -0.82973,-1.405464 -0.82973,-3.166528 0,-1.761063 0.82973,-3.149593 0.84667,-1.405464 2.30293,-2.184396 1.4732,-0.795865 3.302,-0.795865 1.54093,0 2.77706,0.541865 1.25306,0.541866 2.09973,1.557864 l -1.76107,1.625597 q -1.20226,-1.388531 -2.98026,-1.388531 -1.10066,0 -1.96426,0.491066 -0.8636,0.474132 -1.35467,1.337731 -0.47413,0.863598 -0.47413,1.964262 0,1.100665 0.47413,1.964263 0.49107,0.863599 1.35467,1.354664 0.8636,0.474133 1.96426,0.474133 1.778,0 2.98026,-1.405464 l 1.76107,1.625597 q -0.84667,1.032931 -2.09973,1.574796 -1.25307,0.541866 -2.794,0.541866 z" style="font-style:normal;font-variant:normal;font-weight:bold;font-stretch:normal;font-size:16.9333px;line-height:1.25;font-family:Montserrat;-inkscape-font-specification:'Montserrat Bold';stroke-width:0.264583" id="path178"/>
    <path d="m 145.99864,16.020402 q 2.16746,0 3.31893,0.965199 1.16839,0.965198 1.16839,2.861727 0,2.015063 -1.28693,3.081861 -1.26999,1.049864 -3.58986,1.049864 h -5.35092 v -11.85331 h 2.72626 v 3.894659 z m -0.54187,5.926655 q 1.0668,0 1.65947,-0.524932 0.6096,-0.524932 0.6096,-1.523997 0,-1.84573 -2.26907,-1.84573 h -2.47226 v 3.894659 z m 6.53626,-9.821314 h 2.72626 v 11.85331 h -2.72626 z" style="font-style:normal;font-variant:normal;font-weight:bold;font-stretch:normal;font-size:16.9333px;line-height:1.25;font-family:Montserrat;-inkscape-font-specification:'Montserrat Bold';stroke-width:0.264583" id="path180"/>
   </g>
    <g id="g127" transform="matrix(0.045,0,0,0.04491726,7.8986093,12.894198)">
      <rect id="rect103" height="185.89999" width="56.099998" class="st0" y="2" x="134.5"/>
      <rect id="rect105" height="125.9" width="56.099998" class="st1" y="61.900002" x="213.8"/>
      <rect id="rect107" height="216.10001" width="56.099998" class="st0" y="208.89999" x="213.8"/>
      <rect id="rect109" height="172.3" width="56.099998" class="st1" y="208.89999" x="132"/>
      <rect id="rect111" height="4.5" width="56.099998" class="st2" y="135.7" x="213.8"/>
      <rect id="rect113" height="51.599998" width="131.10001" class="st0" y="136.3" x="213.8"/>
      <rect id="rect115" height="4.5" width="56.099998" class="st2" y="135.7" x="134.5"/>
      <rect id="rect117" height="51.599998" width="190.60001" class="st1" y="136.3" x="0"/>
      <rect id="rect119" height="4.5" width="56.099998" class="st2" y="257.10001" x="132"/>
      <rect id="rect121" height="51.599998" width="136" class="st0" y="208.89999" x="52"/>
      <rect id="rect123" height="4.5" width="56.099998" class="st2" y="257.10001" x="213.8"/>
      <rect id="rect125" height="51.599998" width="186.2" class="st1" y="208.89999" x="213.8"/>
    </g>
    <g class="st2">
      <path d="m 36.760868,28.330139 v 3.340099 h -0.45085 v -2.940049 h -2.0955 v 2.940049 h -0.45085 v -3.340099 z" style="font-size:6.35px;stroke-width:0.264583" id="path183"/>
      <path d="m 40.78991,28.304739 q 0.4699,0 0.8509,0.2159 0.381,0.20955 0.5969,0.5969 0.2159,0.38735 0.2159,0.88265 0,0.50165 -0.2159,0.889 -0.2159,0.38735 -0.5969,0.603249 -0.37465,0.20955 -0.8509,0.20955 -0.4064,0 -0.7366,-0.1651 -0.32385,-0.17145 -0.5334,-0.495299 v 1.860549 h -0.45085 v -4.571999 h 0.4318 v 0.6604 q 0.2032,-0.3302 0.5334,-0.508 0.33655,-0.1778 0.75565,-0.1778 z m -0.03175,2.9972 q 0.34925,0 0.635,-0.15875 0.28575,-0.1651 0.4445,-0.46355 0.1651,-0.29845 0.1651,-0.67945 0,-0.381 -0.1651,-0.6731 -0.15875,-0.29845 -0.4445,-0.46355 -0.28575,-0.1651 -0.635,-0.1651 -0.3556,0 -0.64135,0.1651 -0.2794,0.1651 -0.4445,0.46355 -0.15875,0.2921 -0.15875,0.6731 0,0.381 0.15875,0.67945 0.1651,0.29845 0.4445,0.46355 0.28575,0.15875 0.64135,0.15875 z" style="font-size:6.35px;stroke-width:0.264583" id="path185"/>
      <path d="m 45.826816,31.701988 q -0.4826,0 -0.86995,-0.2159 -0.38735,-0.222249 -0.6096,-0.609599 -0.22225,-0.38735 -0.22225,-0.8763 0,-0.48895 0.22225,-0.8763 0.22225,-0.38735 0.6096,-0.60325 0.38735,-0.2159 0.86995,-0.2159 0.4826,0 0.86995,0.2159 0.38735,0.2159 0.60325,0.60325 0.22225,0.38735 0.22225,0.8763 0,0.48895 -0.22225,0.8763 -0.2159,0.38735 -0.60325,0.609599 -0.38735,0.2159 -0.86995,0.2159 z m 0,-0.400049 q 0.3556,0 0.635,-0.15875 0.28575,-0.1651 0.4445,-0.46355 0.15875,-0.29845 0.15875,-0.67945 0,-0.381 -0.15875,-0.67945 -0.15875,-0.29845 -0.4445,-0.4572 -0.2794,-0.1651 -0.635,-0.1651 -0.3556,0 -0.64135,0.1651 -0.2794,0.15875 -0.4445,0.4572 -0.15875,0.29845 -0.15875,0.67945 0,0.381 0.15875,0.67945 0.1651,0.29845 0.4445,0.46355 0.28575,0.15875 0.64135,0.15875 z" style="font-size:6.35px;stroke-width:0.264583" id="path187"/>
      <path d="m 49.518613,28.330139 h 0.45085 v 2.6543 l 2.22885,-2.6543 h 0.40005 v 3.340099 h -0.45085 v -2.654299 l -2.2225,2.654299 h -0.4064 z" style="font-size:6.35px;stroke-width:0.264583" id="path189"/>
      <path d="m 56.462007,29.930339 q 0.3556,0.08255 0.5461,0.28575 0.19685,0.2032 0.19685,0.4953 0,0.2921 -0.2032,0.5207 -0.19685,0.228599 -0.53975,0.355599 -0.3429,0.12065 -0.75565,0.12065 -0.36195,0 -0.7112,-0.1016 -0.34925,-0.10795 -0.6096,-0.311149 l 0.1524,-0.33655 q 0.2286,0.17145 0.5334,0.2667 0.3048,0.09525 0.61595,0.09525 0.46355,0 0.75565,-0.17145 0.29845,-0.1778 0.29845,-0.47625 0,-0.2667 -0.2413,-0.41275 -0.2413,-0.1524 -0.6604,-0.1524 h -0.5715 v -0.3302 h 0.5461 q 0.37465,0 0.60325,-0.1397 0.2286,-0.14605 0.2286,-0.38735 0,-0.2667 -0.26035,-0.4191 -0.254,-0.1524 -0.66675,-0.1524 -0.53975,0 -1.0668,0.27305 l -0.127,-0.34925 q 0.5969,-0.31115 1.23825,-0.31115 0.381,0 0.6858,0.1143 0.31115,0.10795 0.4826,0.31115 0.1778,0.2032 0.1778,0.4699 0,0.254 -0.1778,0.45085 -0.17145,0.19685 -0.4699,0.2921 z" style="font-size:6.35px;stroke-width:0.264583" id="path191"/>
      <path d="m 61.376079,29.943039 q 0.67945,0.15875 0.67945,0.81915 0,0.43815 -0.32385,0.673099 -0.32385,0.23495 -0.9652,0.23495 h -1.51765 v -3.340099 h 1.4732 q 0.5715,0 0.89535,0.22225 0.32385,0.22225 0.32385,0.635 0,0.27305 -0.1524,0.4699 -0.14605,0.1905 -0.41275,0.28575 z m -1.6891,-0.127 h 1.0033 q 0.38735,0 0.59055,-0.14605 0.20955,-0.14605 0.20955,-0.42545 0,-0.2794 -0.20955,-0.4191 -0.2032,-0.1397 -0.59055,-0.1397 h -1.0033 z m 1.06045,1.4986 q 0.4318,0 0.6477,-0.1397 0.2159,-0.1397 0.2159,-0.43815 0,-0.29845 -0.19685,-0.43815 -0.19685,-0.14605 -0.6223,-0.14605 h -1.1049 v 1.16205 z" style="font-size:6.35px;stroke-width:0.264583" id="path193"/>
      <path d="m 65.510492,31.701988 q -0.4826,0 -0.86995,-0.2159 -0.38735,-0.222249 -0.6096,-0.609599 -0.22225,-0.38735 -0.22225,-0.8763 0,-0.48895 0.22225,-0.8763 0.22225,-0.38735 0.6096,-0.60325 0.38735,-0.2159 0.86995,-0.2159 0.4826,0 0.86995,0.2159 0.38735,0.2159 0.60325,0.60325 0.22225,0.38735 0.22225,0.8763 0,0.48895 -0.22225,0.8763 -0.2159,0.38735 -0.60325,0.609599 -0.38735,0.2159 -0.86995,0.2159 z m 0,-0.400049 q 0.3556,0 0.635,-0.15875 0.28575,-0.1651 0.4445,-0.46355 0.15875,-0.29845 0.15875,-0.67945 0,-0.381 -0.15875,-0.67945 -0.15875,-0.29845 -0.4445,-0.4572 -0.2794,-0.1651 -0.635,-0.1651 -0.3556,0 -0.64135,0.1651 -0.2794,0.15875 -0.4445,0.4572 -0.15875,0.29845 -0.15875,0.67945 0,0.381 0.15875,0.67945 0.1651,0.29845 0.4445,0.46355 0.28575,0.15875 0.64135,0.15875 z" style="font-size:6.35px;stroke-width:0.264583" id="path195"/>
      <path d="m 72.435033,31.276539 v 1.200149 h -0.42545 v -0.80645 h -2.99085 v 0.80645 h -0.42545 v -1.200149 h 0.1905 q 0.33655,-0.01905 0.4572,-0.4953 0.12065,-0.47625 0.1651,-1.3335 l 0.04445,-1.1176 h 2.4638 v 2.9464 z m -2.6162,-1.8034 q -0.03175,0.7112 -0.12065,1.17475 -0.0889,0.4572 -0.3175,0.62865 h 2.0828 v -2.54635 h -1.60655 z" style="font-size:6.35px;stroke-width:0.264583" id="path197"/>
      <path d="m 75.731049,31.701988 q -0.4953,0 -0.889,-0.2159 -0.38735,-0.215899 -0.6096,-0.603249 -0.22225,-0.3937 -0.22225,-0.88265 0,-0.48895 0.22225,-0.8763 0.22225,-0.38735 0.6096,-0.60325 0.3937,-0.2159 0.889,-0.2159 0.4318,0 0.76835,0.17145 0.3429,0.1651 0.53975,0.48895 l -0.33655,0.2286 q -0.1651,-0.24765 -0.4191,-0.3683 -0.254,-0.127 -0.55245,-0.127 -0.36195,0 -0.65405,0.1651 -0.28575,0.15875 -0.45085,0.4572 -0.15875,0.29845 -0.15875,0.67945 0,0.38735 0.15875,0.6858 0.1651,0.2921 0.45085,0.4572 0.2921,0.15875 0.65405,0.15875 0.29845,0 0.55245,-0.12065 0.254,-0.12065 0.4191,-0.3683 l 0.33655,0.2286 q -0.19685,0.323849 -0.53975,0.495299 -0.3429,0.1651 -0.76835,0.1651 z" style="font-size:6.35px;stroke-width:0.264583" id="path199"/>
      <path d="m 81.219995,28.730189 h -1.26365 v 2.940049 h -0.45085 v -2.940049 h -1.26365 v -0.40005 h 2.97815 z" style="font-size:6.35px;stroke-width:0.264583" id="path201"/>
      <path d="m 85.025695,29.943039 q 0.67945,0.15875 0.67945,0.81915 0,0.43815 -0.32385,0.673099 -0.32385,0.23495 -0.9652,0.23495 h -1.51765 v -3.340099 h 1.4732 q 0.5715,0 0.89535,0.22225 0.32385,0.22225 0.32385,0.635 0,0.27305 -0.1524,0.4699 -0.14605,0.1905 -0.41275,0.28575 z m -1.6891,-0.127 h 1.0033 q 0.38735,0 0.59055,-0.14605 0.20955,-0.14605 0.20955,-0.42545 0,-0.2794 -0.20955,-0.4191 -0.2032,-0.1397 -0.59055,-0.1397 h -1.0033 z m 1.06045,1.4986 q 0.4318,0 0.6477,-0.1397 0.2159,-0.1397 0.2159,-0.43815 0,-0.29845 -0.19685,-0.43815 -0.19685,-0.14605 -0.6223,-0.14605 h -1.1049 v 1.16205 z" style="font-size:6.35px;stroke-width:0.264583" id="path203"/>
      <path d="m 90.703158,30.139889 h -2.794 q 0.0381,0.5207 0.40005,0.84455 0.36195,0.3175 0.9144,0.3175 0.31115,0 0.5715,-0.10795 0.26035,-0.1143 0.45085,-0.3302 l 0.254,0.2921 q -0.22225,0.266699 -0.5588,0.406399 -0.3302,0.1397 -0.73025,0.1397 -0.51435,0 -0.9144,-0.2159 -0.3937,-0.222249 -0.61595,-0.609599 -0.22225,-0.38735 -0.22225,-0.8763 0,-0.48895 0.20955,-0.8763 0.2159,-0.38735 0.5842,-0.60325 0.37465,-0.2159 0.8382,-0.2159 0.46355,0 0.83185,0.2159 0.3683,0.2159 0.57785,0.60325 0.20955,0.381 0.20955,0.8763 z m -1.6129,-1.4478 q -0.4826,0 -0.8128,0.31115 -0.32385,0.3048 -0.3683,0.8001 h 2.36855 q -0.04445,-0.4953 -0.37465,-0.8001 -0.32385,-0.31115 -0.8128,-0.31115 z" style="font-size:6.35px;stroke-width:0.264583" id="path205"/>
      <path d="m 92.727883,28.330139 h 0.45085 v 1.47955 h 2.10185 v -1.47955 h 0.45085 v 3.340099 h -0.45085 v -1.473199 h -2.10185 v 1.473199 h -0.45085 z" style="font-size:6.35px;stroke-width:0.264583" id="path207"/>
      <path d="m 98.045674,28.330139 h 0.45085 v 1.47955 h 2.101846 v -1.47955 h 0.45085 v 3.340099 h -0.45085 v -1.473199 h -2.101846 v 1.473199 h -0.45085 z" style="font-size:6.35px;stroke-width:0.264583" id="path209"/>
      <path d="m 104.51282,28.304739 q 0.65405,0 1.0033,0.3302 0.34925,0.32385 0.34925,0.9652 v 2.070099 h -0.4318 v -0.520699 q -0.1524,0.260349 -0.45085,0.406399 -0.2921,0.14605 -0.6985,0.14605 -0.5588,0 -0.889,-0.2667 -0.3302,-0.266699 -0.3302,-0.704849 0,-0.42545 0.3048,-0.6858 0.31115,-0.26035 0.98425,-0.26035 h 1.06045 v -0.2032 q 0,-0.4318 -0.2413,-0.65405 -0.2413,-0.2286 -0.70485,-0.2286 -0.3175,0 -0.6096,0.10795 -0.2921,0.1016 -0.50165,0.28575 l -0.2032,-0.33655 q 0.254,-0.2159 0.6096,-0.3302 0.3556,-0.12065 0.7493,-0.12065 z m -0.15875,3.041649 q 0.381,0 0.65405,-0.171449 0.27305,-0.1778 0.4064,-0.508 v -0.5461 h -1.04775 q -0.85725,0 -0.85725,0.5969 0,0.2921 0.22225,0.46355 0.22225,0.165099 0.6223,0.165099 z" style="font-size:6.35px;stroke-width:0.264583" id="path211"/>
      <path d="m 110.66375,28.330139 v 3.340099 H 110.251 v -1.104899 h -1.04775 -0.127 l -0.7747,1.104899 h -0.48895 l 0.83185,-1.168399 q -0.38735,-0.10795 -0.5969,-0.3683 -0.20955,-0.26035 -0.20955,-0.6604 0,-0.5588 0.381,-0.8509 0.381,-0.2921 1.0414,-0.2921 z m -2.36855,1.1557 q 0,0.74295 0.94615,0.74295 h 1.00965 v -1.4986 h -0.9779 q -0.9779,0 -0.9779,0.75565 z" style="font-size:6.35px;stroke-width:0.264583" id="path213"/>
      <path d="m 116.87101,30.184339 h -0.762 v 1.485899 h -0.45085 v -3.340099 h 0.45085 v 1.46685 h 0.76835 l 1.17475,-1.46685 h 0.48895 l -1.31445,1.61925 1.4097,1.720849 h -0.5334 z" style="font-size:6.35px;stroke-width:0.264583" id="path215"/>
      <path d="m 121.62216,31.701988 q -0.4826,0 -0.86995,-0.2159 -0.38735,-0.222249 -0.6096,-0.609599 -0.22225,-0.38735 -0.22225,-0.8763 0,-0.48895 0.22225,-0.8763 0.22225,-0.38735 0.6096,-0.60325 0.38735,-0.2159 0.86995,-0.2159 0.4826,0 0.86995,0.2159 0.38735,0.2159 0.60325,0.60325 0.22225,0.38735 0.22225,0.8763 0,0.48895 -0.22225,0.8763 -0.2159,0.38735 -0.60325,0.609599 -0.38735,0.2159 -0.86995,0.2159 z m 0,-0.400049 q 0.3556,0 0.635,-0.15875 0.28575,-0.1651 0.4445,-0.46355 0.15875,-0.29845 0.15875,-0.67945 0,-0.381 -0.15875,-0.67945 -0.15875,-0.29845 -0.4445,-0.4572 -0.2794,-0.1651 -0.635,-0.1651 -0.3556,0 -0.64135,0.1651 -0.2794,0.15875 -0.4445,0.4572 -0.15875,0.29845 -0.15875,0.67945 0,0.381 0.15875,0.67945 0.1651,0.29845 0.4445,0.46355 0.28575,0.15875 0.64135,0.15875 z" style="font-size:6.35px;stroke-width:0.264583" id="path217"/>
      <path d="m 129.04776,28.330139 v 3.340099 h -0.41275 v -2.641599 l -1.35255,2.2352 h -0.2032 l -1.35255,-2.24155 v 2.647949 h -0.41275 v -3.340099 h 0.4572 l 1.41605,2.40665 1.44145,-2.40665 z" style="font-size:6.35px;stroke-width:0.264583" id="path219"/>
      <path d="m 134.34829,28.330139 v 3.340099 h -0.45085 v -2.940049 h -2.0955 v 2.940049 h -0.45085 v -3.340099 z" style="font-size:6.35px;stroke-width:0.264583" id="path221"/>
      <path d="m 137.80583,28.304739 q 0.65405,0 1.0033,0.3302 0.34925,0.32385 0.34925,0.9652 v 2.070099 h -0.4318 v -0.520699 q -0.1524,0.260349 -0.45085,0.406399 -0.2921,0.14605 -0.6985,0.14605 -0.5588,0 -0.889,-0.2667 -0.3302,-0.266699 -0.3302,-0.704849 0,-0.42545 0.3048,-0.6858 0.31115,-0.26035 0.98425,-0.26035 h 1.06045 v -0.2032 q 0,-0.4318 -0.2413,-0.65405 -0.2413,-0.2286 -0.70485,-0.2286 -0.3175,0 -0.6096,0.10795 -0.2921,0.1016 -0.50165,0.28575 l -0.2032,-0.33655 q 0.254,-0.2159 0.6096,-0.3302 0.3556,-0.12065 0.7493,-0.12065 z m -0.15875,3.041649 q 0.381,0 0.65405,-0.171449 0.27305,-0.1778 0.4064,-0.508 v -0.5461 h -1.04775 q -0.85725,0 -0.85725,0.5969 0,0.2921 0.22225,0.46355 0.22225,0.165099 0.6223,0.165099 z" style="font-size:6.35px;stroke-width:0.264583" id="path223"/>
      <path d="m 141.39137,28.330139 h 0.45085 v 1.47955 h 2.10185 v -1.47955 h 0.45085 v 3.340099 h -0.45085 v -1.473199 h -2.10185 v 1.473199 h -0.45085 z" style="font-size:6.35px;stroke-width:0.264583" id="path225"/>
      <path d="m 146.70916,28.330139 h 0.45085 v 2.6543 l 2.22885,-2.6543 h 0.40005 v 3.340099 h -0.45085 v -2.654299 l -2.2225,2.654299 h -0.4064 z" style="font-size:6.35px;stroke-width:0.264583" id="path227"/>
      <path d="m 154.66677,28.330139 v 3.340099 h -0.41275 v -1.104899 h -1.04775 -0.127 l -0.7747,1.104899 h -0.48895 l 0.83185,-1.168399 q -0.38735,-0.10795 -0.5969,-0.3683 -0.20955,-0.26035 -0.20955,-0.6604 0,-0.5588 0.381,-0.8509 0.381,-0.2921 1.0414,-0.2921 z m -2.36855,1.1557 q 0,0.74295 0.94615,0.74295 h 1.00965 v -1.4986 h -0.9779 q -0.9779,0 -0.9779,0.75565 z" style="font-size:6.35px;stroke-width:0.264583" id="path229"/>
    </g>
  </g>
</svg>