<?xml version="1.0" encoding="UTF-8" standalone="no"?>
<svg
   xmlns:dc="http://purl.org/dc/elements/1.1/"
   xmlns:cc="http://creativecommons.org/ns#"
   xmlns:rdf="http://www.w3.org/1999/02/22-rdf-syntax-ns#"
   xmlns:svg="http://www.w3.org/2000/svg"
   xmlns="http://www.w3.org/2000/svg"
   xmlns:sodipodi="http://sodipodi.sourceforge.net/DTD/sodipodi-0.dtd"
   xmlns:inkscape="http://www.inkscape.org/namespaces/inkscape"
   inkscape:version="1.0 (4035a4f, 2020-05-01)"
   sodipodi:docname="canopy.svg"
   id="svg895"
   version="1.1"
   fill="none"
   viewBox="0 0 200 100"
   height="100"
   width="200">
  <metadata
     id="metadata901">
    <rdf:RDF>
      <cc:Work
         rdf:about="">
        <dc:format>image/svg+xml</dc:format>
        <dc:type
           rdf:resource="http://purl.org/dc/dcmitype/StillImage" />
        <dc:title></dc:title>
      </cc:Work>
    </rdf:RDF>
  </metadata>
  <defs
     id="defs899" />
  <sodipodi:namedview
     inkscape:current-layer="svg895"
     inkscape:window-maximized="0"
     inkscape:window-y="0"
     inkscape:window-x="0"
     inkscape:cy="24.09951"
     inkscape:cx="84.45777"
     inkscape:zoom="1.9535787"
     showgrid="false"
     id="namedview897"
     inkscape:window-height="1120"
     inkscape:window-width="1792"
     inkscape:pageshadow="2"
     inkscape:pageopacity="0"
     guidetolerance="10"
     gridtolerance="10"
     objecttolerance="10"
     borderopacity="1"
     bordercolor="#666666"
     pagecolor="#ffffff" />
  <path
     id="path833"
     fill="#748791"
     d="m 67.32769,26.678854 3.606,-0.1169 0.0324,55.8134 h -3.6384 z"
     clip-rule="evenodd"
     fill-rule="evenodd" />
  <path
     id="path835"
     fill="#000000"
     d="m 67.30139,25.842654 4.4682,-0.1447 c 0.0105,19.1725 0.0173,38.3448 0.0337,57.5171 h -5.3154 v -57.3461 z m 2.7964,1.5836 -1.9305,0.0626 v 54.0468 h 1.9619 z" />
  <path
     id="path837"
     fill="#748791"
     d="m 151.05639,31.273054 -3.639,-3.8796 v 66.8057 h 3.639 z"
     clip-rule="evenodd"
     fill-rule="evenodd" />
  <path
     id="path839"
     fill="#000000"
     d="m 150.21739,31.602454 -1.96,-2.0891 v 63.8465 h 1.96 z m -2.19,-4.783 3.869,4.1247 v 64.0951 h -5.318 v -69.7654 z" />
  <path
     id="path841"
     fill="#748791"
     d="m 50.01479,31.605354 3.6389,-3.8796 v 66.8057 h -3.6389 z"
     clip-rule="evenodd"
     fill-rule="evenodd" />
  <path
     id="path843"
     fill="#000000"
     d="m 49.40499,31.031354 5.0883,-5.4255 v 69.7652 h -5.318 v -64.0948 z m 3.4089,-1.1855 -1.959,2.0887 v 61.7571 h 1.959 z" />
  <path
     id="path845"
     fill="#748791"
     d="m 130.96269,25.723654 3.6057,-0.1169 0.033,56.548 h -3.6387 z"
     clip-rule="evenodd"
     fill-rule="evenodd" />
  <path
     id="path847"
     fill="#000000"
     d="m 130.93639,24.887354 4.468,-0.1448 c 0.011,19.4172 0.017,38.8346 0.034,58.2517 h -5.3155 v -58.0806 z m 2.796,1.5838 -1.9301,0.0626 v 54.7812 h 1.9621 z" />
  <path
     id="path849"
     fill="#c7ccd0"
     d="m 95.21359,21.642254 c 1.8574,-0.2146 3.6898,-0.341 5.5327,-0.341 1.8421,0 3.7076,0.1264 5.6006,0.3423 1.8609,0.2124 3.7615,0.5162 5.7006,0.8739 1.9335,0.3564 3.8913,0.7648 5.873,1.2549 1.9903,0.4924 4.0217,1.0718 6.0984,1.77 4.0648,1.3666 8.4768,3.2954 12.6955,5.1207 l 24.409,-0.1084 -60.3535,-20.04375 c -19.9926,6.56275 -39.9307,13.30315 -59.90867,19.88835 l 24.21017,0.1827 c 2.0353,-0.8683 4.1437,-1.9966 6.1971,-2.821 2.1038,-0.8449 4.1963,-1.6329 6.2638,-2.3055 2.0894,-0.68 4.1479,-1.2438 6.1581,-1.723 1.9722,-0.4705 3.9566,-0.8708 5.9067,-1.226 1.9344,-0.3528 3.7987,-0.6544 5.6165,-0.8642 z"
     clip-rule="evenodd"
     fill-rule="evenodd" />
  <path
     id="path851"
     fill="#000000"
     d="m 100.86539,11.543644 -11.033,12.21001 -12.1437,-5.5997 -11.9695,13.2656 -13.7899,-5.0776 0.134,-0.9976 13.3292,5.0149 12.0752,-13.3621 12.0619,5.5697 10.9565,-12.12199 0.3717,0.32159 z" />
  <path
     id="path853"
     fill="#000000"
     d="m 101.10339,11.759064 -11.1916,12.38559 -12.1427,-5.5996 -11.9566,13.2519 c -4.7445,-1.7495 -9.4898,-3.4971 -14.236,-5.2417 l 0.2222,-1.6538 13.5027,5.08 12.0867,-13.37504 12.0621,5.56974 11.0083,-12.1795399 0.719,0.6217599 0.01,1.04762 z m -11.3504,11.60379 10.7901,-11.94122 -0.005,-0.507 -0.0249,-0.0212 -10.9045,12.06472 -12.0619,-5.5699 -12.063,13.3489 -13.156,-4.9496 -0.0458,0.3415 13.3438,4.9134 11.9822,-13.28 z" />
  <path
     id="path855"
     fill="#000000"
     d="m 100.80789,11.604314 10.8347,12.16054 12.0686,-5.1887 11.7472,12.871 14.285,-5.0443 -0.133,-0.9979 -13.825,4.9821 -11.8532,-12.9677 -11.9868,5.159 -10.7584,-12.07283 -0.3718,0.3216 z" />
  <path
     id="path857"
     fill="#000000"
     d="m 101.13019,11.482054 10.5984,11.8954 12.0657,-5.1874 11.7581,12.8829 13.838,-4.8864 -0.046,-0.3447 -13.652,4.9197 -11.8423,-12.9562 -11.9905,5.1606 -10.7023,-12.00991 -0.0224,0.01925 z m 10.2719,12.497 -10.9165,-12.25215 0.01,-1.04787 0.7214,-0.62395 10.8149,12.13567 11.9825,-5.157 11.8643,12.9789 13.997,-5.0442 0.221,1.6511 c -4.911,1.7312 -9.822,3.4664 -14.732,5.2021 l -11.7365,-12.8593 -12.0716,5.1901 z" />
  <path
     id="path859"
     fill="#000000"
     d="m 35.79802,30.415554 29.34497,-0.0943 c 2.0354,-0.8683 4.0721,-1.7359 6.1255,-2.5604 2.1038,-0.8449 4.1963,-1.6328 6.2638,-2.3055 2.0894,-0.6799 4.1479,-1.2437 6.1581,-1.7229 1.9722,-0.4705 3.9566,-0.8708 5.9067,-1.226 1.9344,-0.3528 3.7987,-0.6544 5.6165,-0.8642 1.8575,-0.2146 3.6898,-0.3411 5.5327,-0.3411 1.8421,0 3.7076,0.1265 5.6006,0.3423 1.8609,0.2125 3.7615,0.5163 5.7006,0.874 1.9335,0.3564 3.8913,0.7647 5.873,1.2549 1.9903,0.4924 4.0217,1.0718 6.0984,1.77 4.0648,1.3666 8.2817,3.187 12.4995,5.0123 h 29.227 v 1.7191 h -29.568 l -0.181,-0.0787 c -4.2265,-1.8304 -8.4538,-3.6601 -12.5212,-5.0276 -2.019,-0.6788 -4.0069,-1.2453 -5.9645,-1.7296 -1.9658,-0.4863 -3.8876,-0.8876 -5.7721,-1.235 -1.8785,-0.3464 -3.7369,-0.6427 -5.5866,-0.8539 -1.8175,-0.2074 -3.617,-0.3287 -5.4057,-0.3287 -1.7881,0 -3.5546,0.1213 -5.3378,0.3275 -1.8226,0.2105 -3.6428,0.5038 -5.5093,0.8441 -1.8509,0.3372 -3.7878,0.73 -5.8126,1.2129 -1.9866,0.4736 -4.0032,1.0249 -6.0236,1.6825 -2.0422,0.6644 -4.0968,1.4379 -6.1567,2.2651 -2.0587,0.8266 -4.1535,1.7203 -6.2475,2.6137 l -0.1554,0.0665 -29.70537,0.0952 z" />
  <path
     id="path861"
     fill="#000000"
     d="m 51.47689,31.221654 v -5.0998 h 1.719 v 5.0998 z" />
  <path
     id="path863"
     fill="#000000"
     d="m 64.46349,31.176954 v -9.7756 h 1.7191 v 9.7756 z" />
  <path
     id="path865"
     fill="#000000"
     d="m 78.54829,17.539054 v 8.7324 h -1.7191 v -8.7324 z" />
  <path
     id="path867"
     fill="#000000"
     d="m 88.81939,23.361754 v -10.27944 h 1.7191 v 10.27944 z" />
  <path
     id="path869"
     fill="#000000"
     d="m 100.06919,22.161354 v -12.04962 h 1.7191 v 12.04962 z" />
  <path
     id="path871"
     fill="#000000"
     d="m 111.03349,23.360154 v -9.91444 h 1.7191 v 9.91444 z" />
  <path
     id="path873"
     fill="#000000"
     d="m 124.69789,17.340854 v 8.955 h -1.719 v -8.955 z" />
  <path
     id="path875"
     fill="#000000"
     d="m 136.71439,21.401354 v 10.0129 h -1.72 v -10.0129 z" />
  <path
     id="path877"
     fill="#000000"
     d="m 149.95439,25.602054 v 5.8122 h -1.719 v -5.8122 z" />
  <path
     id="path879"
     fill="#748791"
     d="m 34.83444,30.259054 c 21.89175,-7.1797 43.72255,-14.58446 65.62385,-21.7672899 l 0.3116,-0.10257 c 22.0518,7.2493399 44.0235,14.7147599 66.0815,21.9436599 l -0.623,1.9174 -65.4585,-21.73925 c -21.7948,7.15435 -43.5248,14.51985 -65.31223,21.66515 z" />
  <path
     id="path881"
     fill="#000000"
     d="m 34.32525,28.692654 c 11.30804,-3.7084 22.05064,-7.2922 32.79534,-10.8761 11.1165,-3.70811 22.2365,-7.41744 32.8226,-10.8892289 l -7e-4,-0.00195 0.3116,-0.102569 0.5124,-0.168352 0.5126,0.168352 c 10.1478,3.3358379 20.8621,6.9148279 31.5743,10.4925479 11.332,3.7847 22.664,7.5698 34.508,11.4511 l 1.565,0.5131 -0.508,1.5624 -0.624,1.9174 -0.511,1.5727 -1.571,-0.5219 -64.9391,-21.56673 c -11.3295,3.72029 -21.5109,7.11633 -31.6919,10.51183 -11.406,3.8041 -22.8134,7.6089 -33.11453,10.9872 l -1.56486,0.5133 -0.51066,-1.5705 -0.623216,-1.9171 -0.507734,-1.5622 z m 0.5092,1.5663 c 21.89174,-7.1797 43.72254,-14.58443 65.62384,-21.7672499 l 0.3116,-0.10257 c 22.0518,7.2493299 44.0235,14.7148199 66.0815,21.9436199 l -0.623,1.9174 -65.4585,-21.73922 c -21.7948,7.15432 -43.5248,14.51992 -65.31223,21.66522 z"
     clip-rule="evenodd"
     fill-rule="evenodd" />
  <path
     id="path883"
     fill="#0b2740"
     d="m 163.76039,94.606654 v -7.2464 -7.2464 h 6.702 c 3.686,0 6.701,0.0058 6.701,0.013 0,0.0071 -0.393,0.3711 -0.873,0.8088 l -0.874,0.7959 h -5.019 -5.019 v 5.6452 5.6452 h 5.628 5.629 v -3.5571 l 0.001,-3.5572 0.663,-0.6107 c 0.365,-0.3359 0.729,-0.6676 0.809,-0.7371 l 0.145,-0.1264 v 5.0866 5.0866 h -7.247 z"
     clip-rule="evenodd"
     fill-rule="evenodd" />
  <path
     id="path885"
     fill="#f45b69"
     d="m 175.13439,83.517054 -4.356,3.9612 -1.363,-1.3629 -1.363,-1.3629 -0.537,0.5364 -0.536,0.5364 1.932,1.9323 1.933,1.9323 4.911,-4.5117 4.911,-4.5117 -0.568,-0.5486 c -0.312,-0.3018 -0.576,-0.5517 -0.587,-0.5553 -0.011,-0.0037 -1.981,1.7759 -4.377,3.9545 z" />
  <path
     id="path887"
     fill="#0b2740"
     d="m 163.76039,74.698554 v -7.2464 -7.2463 h 6.702 c 3.686,0 6.701,0.0058 6.701,0.0129 0,0.0071 -0.393,0.3711 -0.873,0.8088 l -0.874,0.7959 h -5.019 -5.019 v 5.6452 5.6452 h 5.628 5.629 v -3.5571 l 0.001,-3.5572 0.663,-0.6107 c 0.365,-0.3359 0.729,-0.6676 0.809,-0.7371 l 0.145,-0.1264 v 5.0866 5.0866 h -7.247 z"
     clip-rule="evenodd"
     fill-rule="evenodd" />
  <path
     id="path889"
     fill="#f45b69"
     d="m 175.13439,63.608954 -4.356,3.9612 -1.363,-1.3628 -1.363,-1.363 -0.537,0.5364 -0.536,0.5364 1.932,1.9323 1.933,1.9323 4.911,-4.5117 4.911,-4.5117 -0.568,-0.5486 c -0.312,-0.3018 -0.576,-0.5517 -0.587,-0.5553 -0.011,-0.0037 -1.981,1.7759 -4.377,3.9545 z" />
  <path
     id="path891"
     fill="#0b2740"
     d="m 163.76039,54.790454 v -7.2464 -7.2463 h 6.702 c 3.686,0 6.701,0.0058 6.701,0.0129 0,0.0071 -0.393,0.3711 -0.873,0.8088 l -0.874,0.7959 h -5.019 -5.019 v 5.6452 5.6453 h 5.628 5.629 v -3.5572 l 0.001,-3.5571 0.663,-0.6108 c 0.365,-0.3359 0.729,-0.6676 0.809,-0.7371 l 0.145,-0.1264 v 5.0866 5.0866 h -7.247 z"
     clip-rule="evenodd"
     fill-rule="evenodd" />
  <path
     id="path893"
     fill="#f45b69"
     d="m 175.13439,43.700954 -4.356,3.9612 -1.363,-1.3629 -1.363,-1.3629 -0.537,0.5364 -0.536,0.5363 1.932,1.9323 1.933,1.9323 4.911,-4.5117 4.911,-4.5117 -0.568,-0.5486 c -0.312,-0.3017 -0.576,-0.5516 -0.587,-0.5553 -0.011,-0.0036 -1.981,1.7759 -4.377,3.9546 z" />
</svg>
