<?xml version="1.0" encoding="UTF-8" standalone="no"?>
<svg
   xmlns:dc="http://purl.org/dc/elements/1.1/"
   xmlns:cc="http://creativecommons.org/ns#"
   xmlns:rdf="http://www.w3.org/1999/02/22-rdf-syntax-ns#"
   xmlns:svg="http://www.w3.org/2000/svg"
   xmlns="http://www.w3.org/2000/svg"
   xmlns:sodipodi="http://sodipodi.sourceforge.net/DTD/sodipodi-0.dtd"
   xmlns:inkscape="http://www.inkscape.org/namespaces/inkscape"
   inkscape:version="1.0 (4035a4f, 2020-05-01)"
   sodipodi:docname="certificate.svg"
   id="svg844"
   version="1.1"
   fill="none"
   viewBox="0 0 200 100"
   height="100"
   width="200">
  <metadata
     id="metadata850">
    <rdf:RDF>
      <cc:Work
         rdf:about="">
        <dc:format>image/svg+xml</dc:format>
        <dc:type
           rdf:resource="http://purl.org/dc/dcmitype/StillImage" />
        <dc:title></dc:title>
      </cc:Work>
    </rdf:RDF>
  </metadata>
  <defs
     id="defs848" />
  <sodipodi:namedview
     inkscape:current-layer="svg844"
     inkscape:window-maximized="0"
     inkscape:window-y="0"
     inkscape:window-x="0"
     inkscape:cy="62.592708"
     inkscape:cx="172.29776"
     inkscape:zoom="1.5677777"
     showgrid="false"
     id="namedview846"
     inkscape:window-height="1120"
     inkscape:window-width="1792"
     inkscape:pageshadow="2"
     inkscape:pageopacity="0"
     guidetolerance="10"
     gridtolerance="10"
     objecttolerance="10"
     borderopacity="1"
     bordercolor="#666666"
     pagecolor="#ffffff" />
  <mask
     fill="#ffffff"
     id="path-1-inside-1_35_447">
    <path
       id="path833"
       d="m 26.169,3.70997 c 3.0014,0 4.2002,-0.30051 7.3274,-1.83467 C 35.5528,0.866104 37.5434,0.022426 37.9205,4.63576e-4 38.2971,-0.0214988 40.105,0.739686 41.938,1.6921 c 2.68,1.39221 4.1718,1.78539 7.6177,2.00876 l 4.2854,0.27694 2.4105,3.54988 c 1.6718,2.46193 3.3688,4.17182 5.5377,5.58002 3.5676,2.3157 4.1043,3.3356 4.1043,7.7919 0,2.5846 0.3584,3.9039 1.8818,6.9288 l 1.8813,3.7363 -1.8813,3.7363 c -1.3873,2.7549 -1.8818,4.4257 -1.8818,6.3611 0,5.0015 -0.3648,5.7354 -4.0421,8.1314 -2.4587,1.6017 -3.9822,3.1251 -5.5838,5.5838 -2.3998,3.6833 -3.1257,4.0422 -8.1738,4.0422 -2.035,0 -3.5536,0.466 -6.4109,1.9675 l -3.7443,1.9675 -3.9763,-1.9675 c -3.38,-1.6724 -4.5167,-1.9686 -7.5834,-1.9756 -1.9836,-0.0048 -3.8761,-0.1853 -4.205,-0.4017 -0.3289,-0.2164 -1.486,-1.787 -2.5712,-3.4899 -1.0847,-1.7029 -2.9853,-3.7979 -4.2227,-4.656 -3.167,-2.1962 -4.4056,-3.0101 -4.889,-4.1455 -0.3356,-0.7884 -0.307,-1.7319 -0.307,-3.401 0,-3.1856 -0.27477,-4.2548 -1.97552,-7.6922 L 6.23357,31.6333 8.20858,27.4235 c 1.63219,-3.4776 1.97712,-4.8103 1.98362,-7.6671 0.0048,-1.9021 0.1853,-3.7175 0.4017,-4.0341 0.2164,-0.3166 1.8657,-1.5679 3.6656,-2.7806 2.0805,-1.4019 3.9163,-3.20868 5.0422,-4.96353 2.6645,-4.15303 2.8503,-4.2682 6.8673,-4.2682 z M 59.6826,38.0292 C 63.1623,26.1818 56.243,13.3697 44.5033,9.92104 32.6426,6.43705 19.8476,13.3466 16.3952,25.1003 12.9091,36.9691 19.8133,49.7539 31.5744,53.2084 43.4218,56.6881 56.2339,49.7689 59.6826,38.0292 Z M 18.7886,25.8202 C 20.32,20.35 25.2814,15.0356 30.9959,12.7445 c 1.9327,-0.7751 3.6286,-0.9684 7.5786,-0.8651 4.3347,0.1136 5.5447,0.3573 8.1631,1.6429 3.9173,1.9236 7.4201,5.4264 9.3437,9.3437 1.3643,2.779 1.5095,3.6142 1.5095,8.6987 0,5.0353 -0.1527,5.9352 -1.456,8.5884 -1.8582,3.7839 -5.7236,7.6493 -9.5076,9.5076 -2.6531,1.3032 -3.553,1.4559 -8.5883,1.4559 -5.0846,0 -5.9197,-0.1452 -8.6987,-1.5095 C 25.4228,47.6835 21.9201,44.1808 19.9965,40.2634 18.21,36.6252 17.6471,29.8966 18.7886,25.8202 Z M 55.011,23.5297 c -1.9905,-3.8874 -5.129,-7.0323 -8.8535,-8.8701 -2.3768,-1.1726 -3.9538,-1.5347 -7.3151,-1.6783 -4.8987,-0.21 -7.8197,0.6417 -11.7322,3.4208 -11.503,8.1695 -9.9742,25.6312 2.8101,32.1074 2.7024,1.3687 3.5799,1.5347 8.1186,1.5347 4.5387,0 5.4161,-0.166 8.1186,-1.5347 3.7459,-1.8979 6.8763,-5.0476 8.8535,-8.9098 1.3413,-2.6199 1.5084,-3.5091 1.5084,-8.035 0,-4.5258 -0.1671,-5.4151 -1.5084,-8.035 z M 2.62954e-6,83.3076 C -0.00321138,82.9851 2.94029,76.1527 6.54105,68.1241 c 3.60075,-8.0286 6.59675,-14.597 6.65835,-14.597 0.9508,0 2.1443,1.2208 3.7047,3.7888 2.7587,4.5419 3.9473,5.3176 8.1496,5.3176 2.8246,0 4.2543,0.3514 7.6285,1.8748 2.2836,1.0312 4.9314,1.8749 5.8832,1.8749 1.2465,0 1.652,0.2057 1.449,0.7349 -1.3413,3.4947 -12.5159,27.5992 -13.1313,28.3251 -1.7517,2.0655 -2.8937,1.2218 -7.6044,-5.6181 -1.57,-2.2798 -3.3276,-4.2955 -3.9061,-4.4793 -0.578,-0.1832 -3.8038,-0.1612 -7.1683,0.0488 C 2.78601,85.7331 1.96805,85.6694 1.0467,84.8353 0.474604,84.3179 0.00375231,83.6301 2.62954e-6,83.3076 Z M 49.9843,62.6415 c 4.8006,-0.0107 6.3198,-0.8763 9.0094,-5.1344 1.2127,-1.9203 2.4587,-3.4068 2.7689,-3.3034 C 62.3813,54.4099 75,82.1334 75,83.2862 c 0,0.3921 -0.495,1.0601 -1.0997,1.4838 -0.8721,0.6106 -2.5145,0.7129 -7.9327,0.4928 l -6.8325,-0.277 -1.622,2.0817 c -0.8924,1.1447 -2.6146,3.5579 -3.8268,5.3625 -4.0384,6.0102 -4.9619,5.4146 -10.385,-6.7012 l -4.1118,-9.1856 2.9708,-6.5534 c 1.6338,-3.604 3.2429,-6.7301 3.5761,-6.9465 0.3327,-0.2164 2.2445,-0.397 4.2479,-0.4018 z"
       clip-rule="evenodd"
       fill-rule="evenodd" />
    <path
       id="path835"
       d="m 37.3104,19.78 c -0.1741,0.4419 -0.8662,2.3703 -1.5374,4.2854 l -1.2213,3.4818 -4.4921,0.157 -4.4927,0.1564 3.424,2.4657 c 1.8829,1.3563 3.5049,2.5321 3.6045,2.6135 0.0991,0.0809 -0.4151,2.095 -1.1442,4.475 -0.7285,2.3799 -1.2277,4.3276 -1.1099,4.3276 0.1184,0 1.7056,-1.0847 3.5279,-2.4105 1.8218,-1.3258 3.5092,-2.4105 3.7497,-2.4105 0.24,0 1.9231,1.0815 3.7395,2.403 1.8159,1.3215 3.3785,2.3264 3.4722,2.2332 0.0932,-0.0937 -0.4307,-1.9354 -1.1645,-4.0936 -1.5251,-4.4824 -1.5819,-4.3319 2.7737,-7.3258 L 49.4309,28.0829 44.9833,27.815 40.5356,27.5472 39.0813,23.2619 C 38.2226,20.7303 37.4979,19.3054 37.3104,19.78 Z" />
  </mask>
  <path
     id="path838"
     fill="#748791"
     d="m 92.245544,7.5370431 c 3.001396,0 4.200196,-0.30051 7.327396,-1.83467 2.0564,-1.009196 4.047,-1.852874 4.4241,-1.8748364 0.3766,-0.021962 2.1845,0.7392224 4.0175,1.6916364 2.68,1.39221 4.1718,1.78539 7.6177,2.00876 l 4.2854,0.27694 2.4105,3.5498799 c 1.6718,2.46193 3.3688,4.17182 5.5377,5.58002 3.5676,2.3157 4.1043,3.3356 4.1043,7.7919 0,2.5846 0.3584,3.9039 1.8818,6.9288 l 1.8813,3.7363 -1.8813,3.7363 c -1.3873,2.7549 -1.8818,4.4257 -1.8818,6.3611 0,5.0015 -0.3648,5.7354 -4.0421,8.1314 -2.4587,1.6017 -3.9822,3.1251 -5.5838,5.5838 -2.3998,3.6833 -3.1257,4.0422 -8.1738,4.0422 -2.035,0 -3.5536,0.466 -6.4109,1.9675 l -3.7443,1.9675 -3.9763,-1.9675 c -3.38,-1.6724 -4.5167,-1.9686 -7.583396,-1.9756 -1.9836,-0.0048 -3.8761,-0.1853 -4.205,-0.4017 -0.3289,-0.2164 -1.486,-1.787 -2.5712,-3.4899 -1.0847,-1.7029 -2.9853,-3.7979 -4.2227,-4.656 -3.167,-2.1962 -4.4056,-3.0101 -4.889,-4.1455 -0.3356,-0.7884 -0.307,-1.7319 -0.307,-3.401 0,-3.1856 -0.27477,-4.2548 -1.97552,-7.6922 l -1.97501,-3.9918 1.97501,-4.2098 c 1.63219,-3.4776 1.97712,-4.8103 1.98362,-7.6671 0.0048,-1.9021 0.1853,-3.7175 0.4017,-4.0341 0.2164,-0.3166 1.8657,-1.5679 3.6656,-2.7806 2.0805,-1.4019 3.9163,-3.20868 5.0422,-4.96353 2.6645,-4.1530299 2.8503,-4.2681999 6.8673,-4.2681999 z M 125.75914,41.856273 c 3.4797,-11.8474 -3.4396,-24.6595 -15.1793,-28.10816 -11.8607,-3.48399 -24.655696,3.42556 -28.108096,15.17926 -3.4861,11.8688 3.4181,24.6536 15.179196,28.1081 11.8474,3.4797 24.6595,-3.4395 28.1082,-15.1792 z m -40.893996,-12.209 c 1.5314,-5.4702 6.4928,-10.7846 12.207296,-13.0757 1.9327,-0.7751 3.6286,-0.9684 7.5786,-0.8651 4.3347,0.1136 5.5447,0.3573 8.1631,1.6429 3.9173,1.9236 7.4201,5.4264 9.3437,9.3437 1.3643,2.779 1.5095,3.6142 1.5095,8.6987 0,5.0353 -0.1527,5.9352 -1.456,8.5884 -1.8582,3.7839 -5.7236,7.6493 -9.5076,9.5076 -2.6531,1.3032 -3.553,1.4559 -8.5883,1.4559 -5.0846,0 -5.9197,-0.1452 -8.6987,-1.5095 -3.917396,-1.9236 -7.420096,-5.4263 -9.343696,-9.3437 -1.7865,-3.6382 -2.3494,-10.3668 -1.2079,-14.4432 z m 36.222396,-2.2905 c -1.9905,-3.8874 -5.129,-7.0323 -8.8535,-8.8701 -2.3768,-1.1726 -3.9538,-1.5347 -7.3151,-1.6783 -4.8987,-0.21 -7.8197,0.6417 -11.732196,3.4208 -11.503,8.1695 -9.9742,25.6312 2.810096,32.1074 2.7024,1.3687 3.5799,1.5347 8.1186,1.5347 4.5387,0 5.4161,-0.166 8.1186,-1.5347 3.7459,-1.8979 6.8763,-5.0476 8.8535,-8.9098 1.3413,-2.6199 1.5084,-3.5091 1.5084,-8.035 0,-4.5258 -0.1671,-5.4151 -1.5084,-8.035 z m -55.010994,59.7779 c -0.0032,-0.3225 2.940288,-7.1549 6.541048,-15.1835 3.60075,-8.0286 6.59675,-14.597 6.65835,-14.597 0.9508,0 2.1443,1.2208 3.7047,3.7888 2.7587,4.5419 3.9473,5.3176 8.1496,5.3176 2.8246,0 4.254296,0.3514 7.628496,1.8748 2.2836,1.0312 4.9314,1.8749 5.8832,1.8749 1.2465,0 1.652,0.2057 1.449,0.7349 -1.3413,3.4947 -12.515896,27.5992 -13.131296,28.3251 -1.7517,2.065497 -2.8937,1.221797 -7.6044,-5.6181 -1.57,-2.2798 -3.3276,-4.2955 -3.9061,-4.4793 -0.578,-0.1832 -3.8038,-0.1612 -7.1683,0.0488 -5.41829,0.3385 -6.23625,0.2748 -7.1576,-0.5593 -0.572096,-0.5174 -1.042948,-1.2052 -1.046698,-1.5277 z m 49.984294,-20.6661 c 4.8006,-0.0107 6.3198,-0.8763 9.0094,-5.1344 1.2127,-1.9203 2.4587,-3.4068 2.7689,-3.3034 0.6187,0.2062 13.2374,27.9297 13.2374,29.0825 0,0.3921 -0.495,1.0601 -1.0997,1.4838 -0.8721,0.6106 -2.5145,0.7129 -7.9327,0.4928 l -6.8325,-0.277 -1.622,2.0817 c -0.8924,1.1447 -2.6146,3.5579 -3.8268,5.3625 -4.0384,6.010197 -4.9619,5.414597 -10.385,-6.7012 l -4.1118,-9.1856 2.9708,-6.5534 c 1.6338,-3.604 3.2429,-6.7301 3.5761,-6.9465 0.3327,-0.2164 2.2445,-0.397 4.2479,-0.4018 z"
     clip-rule="evenodd"
     fill-rule="evenodd" />
  <path
     id="path840"
     fill="#f45b69"
     d="m 103.38694,23.607073 c -0.1741,0.4419 -0.8662,2.3703 -1.5374,4.2854 l -1.2213,3.4818 -4.4921,0.157 -4.492696,0.1564 3.423996,2.4657 c 1.8829,1.3563 3.5049,2.5321 3.6045,2.6135 0.0991,0.0809 -0.4151,2.095 -1.1442,4.475 -0.7285,2.3799 -1.2277,4.3276 -1.1099,4.3276 0.1184,0 1.7056,-1.0847 3.5279,-2.4105 1.8218,-1.3258 3.5092,-2.4105 3.7497,-2.4105 0.24,0 1.9231,1.0815 3.7395,2.403 1.8159,1.3215 3.3785,2.3264 3.4722,2.2332 0.0932,-0.0937 -0.4307,-1.9354 -1.1645,-4.0936 -1.5251,-4.4824 -1.5819,-4.3319 2.7737,-7.3258 l 2.9911,-2.0553 -4.4476,-0.2679 -4.4477,-0.2678 -1.4543,-4.2853 c -0.8587,-2.5316 -1.5834,-3.9565 -1.7709,-3.4819 z" />
  <path
     transform="translate(66.076544,3.8270731)"
     id="path842"
     mask="url(#path-1-inside-1_35_447)"
     fill="#000000"
     d="m 33.4964,1.8753 0.4404,0.89779 2e-4,-6e-5 z M 19.3017,7.97817 20.1434,8.5182 v -4e-5 z m -5.0422,4.96353 -0.5588,-0.8293 v 0 z m -4.0673,6.8147 -1.00003,-0.0025 v 3e-4 z m -1.98362,7.6671 -0.90525,-0.4249 -7e-5,10e-5 z m -1.97501,4.2098 -0.90532,-0.4247 -0.20467,0.4362 0.2137,0.4319 z m 1.97501,3.9918 -0.89629,0.4434 v 1e-4 z M 15.3801,50.8638 15.95,50.042 v 0 z m 4.2227,4.656 -0.8434,0.5373 10e-5,1e-4 z m 6.7762,3.8916 -0.0024,1 h 10e-5 z m 7.5834,1.9756 0.4435,-0.8963 v 0 z m 3.9763,1.9675 -0.4435,0.8963 0.4572,0.2262 0.4515,-0.2373 z m 3.7443,-1.9675 0.4652,0.8852 v 0 z m 14.5847,-6.0097 0.8378,0.5459 1e-4,-1e-4 z m 5.5838,-5.5838 0.5458,0.8379 h 10e-5 z m 5.9239,-14.4925 0.8932,0.4498 v -10e-5 z m 1.8813,-3.7363 0.8932,0.4497 0.2264,-0.4497 -0.2264,-0.4497 z m -1.8813,-3.7363 0.8932,-0.4497 v -10e-5 z m -5.9861,-14.7207 -0.5445,0.8387 1e-4,10e-5 z M 56.2516,7.52768 55.4243,8.08944 v 2e-5 z M 53.8411,3.9778 54.6684,3.41603 54.3936,3.01142 53.9056,2.97988 Z m -4.2854,-0.27694 -0.0646,0.99791 2e-4,1e-5 z M 41.938,1.6921 l -0.4611,0.88737 10e-5,4e-5 z M 37.9205,4.63576e-4 37.9786,0.998772 l 1e-4,-5e-6 z M 44.5033,9.92104 44.7852,8.96158 v 0 z M 59.6826,38.0292 60.642,38.311 v 0 z m -28.1082,15.1792 -0.2818,0.9595 v 0 z M 16.3952,25.1003 15.4357,24.8185 v 0 z m 14.6007,-12.3558 0.3721,0.9282 h 10e-5 z m -12.2073,13.0757 0.9629,0.2697 v -10e-5 z m 1.2079,14.4432 -0.8976,0.4408 v 0 z m 9.3437,9.3437 -0.4408,0.8976 10e-5,1e-4 z m 17.287,0.0536 -0.4408,-0.8976 v 0 z m 9.5076,-9.5076 -0.8975,-0.4409 -10e-5,10e-5 z M 56.0813,22.866 56.9789,22.4253 v -10e-5 z m -9.3437,-9.3437 0.4408,-0.8976 h -1e-4 z m -8.1631,-1.6429 0.0262,-0.9996 v 0 z m 7.583,2.7802 0.4425,-0.8968 h -1e-4 z m 8.8535,8.8701 0.8901,-0.4557 v -1e-4 z m 0,16.07 -0.8901,-0.4557 v 1e-4 z m -8.8535,8.9098 0.4518,0.8921 h 1e-4 z m -16.2372,0 -0.4519,0.8921 h 10e-5 z m -2.8101,-32.1074 0.579,0.8153 h 10e-5 z m 11.7322,-3.4208 -0.0428,0.9991 h 1e-4 z m -1.532,6.7987 -0.9301,-0.3674 -3e-4,9e-4 z m -1.5374,4.2854 0.9436,0.331 1e-4,-3e-4 z m -1.2213,3.4818 0.0349,0.9994 0.6826,-0.0239 0.2261,-0.6445 z m -4.4921,0.157 0.0348,0.9994 10e-5,-1e-4 z m -4.4927,0.1564 -0.0348,-0.9994 -2.9229,0.1017 2.3733,1.7092 z m 3.424,2.4657 0.5845,-0.8114 -10e-5,-10e-5 z m 3.6045,2.6135 -0.6328,0.7743 5e-4,4e-4 z m -1.1442,4.475 -0.9561,-0.2929 -10e-5,2e-4 z m 2.418,1.9171 0.5883,0.8087 2e-4,-10e-5 z m 7.4892,-0.0075 0.5884,-0.8085 -1e-4,-1e-4 z m 3.4722,2.2332 0.7051,0.7092 0.004,-0.0041 z m -1.1645,-4.0936 0.9467,-0.3219 v -2e-4 z m 2.7737,-7.3258 -0.5664,-0.8241 h -10e-5 z m 2.9911,-2.0553 0.5664,0.8242 2.3976,-1.6476 -2.9039,-0.1748 z m -4.4476,-0.2679 -0.0601,0.9982 z m -4.4477,-0.2678 -0.9469,0.3214 0.216,0.6364 0.6708,0.0404 z m -1.4543,-4.2853 -0.947,0.3212 v 10e-5 z M 2.62954e-6,83.3076 -0.999949,83.3176 l 1.9e-5,0.0016 z M 1.0467,84.8353 1.7178,84.094 l -3e-4,-3e-4 z m 7.1576,0.5593 -0.06229,-0.9981 h -7e-5 z m 7.1683,-0.0488 0.3027,-0.9531 -5e-4,-1e-4 z m 3.9061,4.4793 -0.8236,0.5672 v 0 z m 7.6044,5.6181 0.7626,0.6467 h 10e-5 z m 13.1313,-28.3251 0.9336,0.3583 10e-5,-2e-4 z m -7.3322,-2.6098 0.4115,-0.9114 v 0 z m -15.7781,-7.1924 0.8547,-0.5191 -10e-5,-2e-4 z m 42.0896,0.1912 0.8455,0.5341 v -1e-4 z m -9.0094,5.1344 -0.0022,-1 h -2e-4 z m -4.2479,0.4018 0.5447,0.8386 7e-4,-4e-4 z m -3.5761,6.9465 -0.9108,-0.4129 v 0 z m -2.9708,6.5534 -0.9108,-0.4129 -0.186,0.4103 0.1841,0.4112 z m 4.1118,9.1856 0.9127,-0.4085 v 0 z m 10.385,6.7012 0.83,0.5578 10e-5,-2e-4 z m 3.8268,-5.3625 0.7887,0.6148 1e-4,-2e-4 z m 1.622,-2.0817 0.0405,-0.9991 -0.5135,-0.0208 -0.3158,0.4053 z m 6.8325,0.277 0.0405,-0.9992 h -1e-4 z m 7.9327,-0.4928 0.5736,0.8191 2e-4,-1e-4 z M 61.7626,54.2037 62.0788,53.255 Z M 10.4911,46.7183 11.4112,46.3267 Z M 33.056,0.977518 C 31.5049,1.73846 30.5014,2.15779 29.5426,2.3979 28.594,2.63545 27.639,2.70997 26.169,2.70997 v 2 c 1.5314,0 2.6765,-0.07574 3.8594,-0.37198 1.1728,-0.29369 2.3323,-0.79169 3.9084,-1.5649 z M 26.169,2.70997 c -1.9178,0 -3.295,-0.00202 -4.4687,0.72737 -0.5876,0.36522 -1.0724,0.87588 -1.5607,1.5144 -0.4847,0.63384 -1.0189,1.45665 -1.6795,2.48645 l 1.6833,1.07997 C 20.8149,7.47144 21.3032,6.72247 21.7283,6.16666 22.1497,5.61555 22.462,5.31873 22.756,5.13602 23.3456,4.76957 24.0699,4.70997 26.169,4.70997 Z m -7.7089,4.72817 c -1.039,1.61927 -2.7693,3.33336 -4.7594,4.67426 l 1.1176,1.6586 c 2.171,-1.4628 4.1121,-3.3624 5.3251,-5.2528 z m -4.7594,4.67426 c -0.913,0.6152 -1.7908,1.2421 -2.4722,1.759 -0.3398,0.2578 -0.6382,0.4938 -0.8704,0.6908 -0.1913,0.1622 -0.44595,0.3855 -0.58973,0.5958 l 1.65113,1.1287 c -0.0356,0.052 -0.003,2e-4 0.2321,-0.1992 0.1942,-0.1646 0.4612,-0.3766 0.7857,-0.6227 0.6473,-0.4911 1.4942,-1.0963 2.381,-1.6938 z M 9.76837,15.158 c -0.11448,0.1675 -0.17618,0.348 -0.2097,0.4573 -0.0396,0.1291 -0.07222,0.2706 -0.09984,0.4129 -0.05548,0.2859 -0.10217,0.6353 -0.14022,1.0175 -0.07642,0.7678 -0.12396,1.7297 -0.12644,2.7082 l 2.00003,0.0051 c 0.0023,-0.9237 0.0474,-1.8205 0.1166,-2.5152 0.0347,-0.3489 0.074,-0.6316 0.1134,-0.8346 0.0198,-0.1021 0.0368,-0.1692 0.0486,-0.2074 0.0177,-0.058 0.009,-0.0035 -0.0513,0.0849 z m -0.5762,4.5962 C 9.18905,21.1389 9.1039,22.0941 8.84191,23.1067 8.57537,24.1368 8.11488,25.2695 7.30333,26.9986 l 1.81051,0.8497 c 0.82063,-1.7484 1.34876,-3.0209 1.66436,-4.2407 0.3201,-1.2373 0.4106,-2.3769 0.414,-3.8489 z M 7.30326,26.9987 5.32825,31.2086 7.1389,32.058 9.11391,27.8482 Z m -1.96598,5.078 1.97501,3.9918 1.79259,-0.8869 -1.97501,-3.9918 z m 1.97501,3.9919 c 0.84851,1.7149 1.30019,2.7604 1.55328,3.7458 0.2494,0.971 0.31856,1.9335 0.31856,3.5029 h 1.99997 c 0,-1.6163 -0.0682,-2.7811 -0.3814,-4.0005 -0.3095,-1.2049 -0.84559,-2.4127 -1.69783,-4.1352 z m 7.49791,15.6169 c 1.0981,0.7615 2.913,2.7449 3.9492,4.3716 l 1.6868,-1.0745 C 19.3129,53.2034 17.3268,50.9968 15.95,50.042 Z m 3.9493,4.3717 c 0.553,0.8678 1.1263,1.705 1.6074,2.3581 0.24,0.3257 0.4632,0.614 0.6537,0.8406 0.1566,0.1864 0.3798,0.4418 0.6037,0.5892 l 1.0994,-1.6708 c 0.0594,0.0391 0.0147,0.0171 -0.172,-0.2051 -0.153,-0.182 -0.3485,-0.4333 -0.5746,-0.7402 -0.4509,-0.612 -0.9988,-1.4115 -1.531,-2.2466 z m 2.8648,3.7879 c 0.1683,0.1107 0.3498,0.1703 0.4609,0.203 0.1312,0.0387 0.2758,0.0708 0.4225,0.0981 0.2947,0.0549 0.6561,0.1013 1.0532,0.1392 0.7973,0.0761 1.7976,0.1236 2.8157,0.126 l 0.0048,-2 C 25.4159,58.4091 24.4781,58.3639 23.751,58.2944 23.3859,58.2596 23.0886,58.22 22.8739,58.18 22.766,58.1599 22.6933,58.1423 22.6503,58.1296 22.5872,58.111 22.6376,58.1177 22.7237,58.1743 Z m 4.7524,0.5663 c 1.5041,0.0035 2.4561,0.0787 3.4244,0.331 0.9834,0.2562 2.0341,0.7078 3.7179,1.5409 l 0.8869,-1.7926 c -1.6963,-0.8393 -2.904,-1.372 -4.1006,-1.6837 -1.2117,-0.3157 -2.3615,-0.392 -3.924,-0.3956 z m 7.1423,1.8719 3.9762,1.9675 0.887,-1.7926 -3.9763,-1.9675 z m 4.8849,1.9564 3.7443,-1.9675 -0.9303,-1.7704 -3.7443,1.9675 z m 3.7443,-1.9675 c 2.7893,-1.4658 4.1408,-1.8527 5.9457,-1.8527 v -2 c -2.2651,0 -3.9509,0.5451 -6.876,2.0823 z m 5.9457,-1.8527 c 2.4754,0 4.1649,-0.0717 5.5233,-0.7435 1.3914,-0.6881 2.305,-1.9367 3.4883,-3.7528 l -1.6757,-1.0918 c -1.2165,1.8672 -1.8657,2.6396 -2.6992,3.0518 -0.8664,0.4285 -2.0639,0.5363 -4.6367,0.5363 z m 9.0117,-4.4964 c 1.5256,-2.3421 2.9496,-3.766 5.2917,-5.2917 l -1.0916,-1.6758 c -2.5754,1.6776 -4.1983,3.3006 -5.8759,5.8759 z m 5.2918,-5.2917 c 1.8138,-1.1818 3.0609,-2.0959 3.7496,-3.4814 0.6734,-1.3545 0.7466,-3.0343 0.7466,-5.4879 h -2 c 0,2.5479 -0.1091,3.7358 -0.5375,4.5976 -0.413,0.8308 -1.1869,1.4817 -3.0505,2.696 z m 4.4962,-8.9693 c 0,-1.7132 0.4205,-3.2217 1.775,-5.9113 l -1.7863,-0.8996 c -1.4203,2.8203 -1.9887,4.6533 -1.9887,6.8109 z m 1.775,-5.9114 1.8813,-3.7363 -1.7864,-0.8994 -1.8812,3.7363 z m 1.8813,-4.6357 -1.8813,-3.7363 -1.7863,0.8995 1.8812,3.7362 z m -1.8813,-3.7364 c -0.754,-1.497 -1.1874,-2.5106 -1.4403,-3.4418 -0.2487,-0.9156 -0.3347,-1.7957 -0.3347,-3.0372 h -2 c 0,1.3431 0.0932,2.4149 0.4046,3.5614 0.3071,1.1308 0.8146,2.2894 1.5841,3.8172 z m -1.775,-6.479 c 0,-2.219 -0.1214,-3.8203 -0.8295,-5.1647 -0.7132,-1.3541 -1.947,-2.3084 -3.7303,-3.466 l -1.0889,1.6776 c 1.7843,1.1582 2.6026,1.8716 3.0496,2.7205 0.4522,0.8585 0.5991,1.9953 0.5991,4.2326 z M 62.3339,12.269 C 60.2923,10.9434 58.687,9.33406 57.0789,6.96589 l -1.6546,1.12357 c 1.7355,2.55574 3.5242,4.36604 5.8205,5.85694 z M 57.0789,6.96591 54.6684,3.41603 53.0138,4.53957 55.4243,8.08944 Z M 53.9056,2.97988 49.6202,2.70294 49.4913,4.69878 53.7766,4.97572 Z M 49.6204,2.70295 C 47.9207,2.59277 46.7609,2.44373 45.7146,2.16784 44.675,1.89373 43.705,1.48315 42.399,0.804702 L 41.477,2.57951 c 1.374,0.71375 2.4899,1.19586 3.7277,1.52224 1.231,0.32459 2.5402,0.48383 4.2864,0.59702 z M 42.3991,0.804735 c -0.9366,-0.48663 -1.8713,-0.926897 -2.628,-1.245478 -0.3769,-0.158701 -0.7219,-0.292432 -1.0074,-0.386969 -0.142,-0.047034 -0.2825,-0.08881 -0.4126,-0.118847 C 38.244,-0.971317 38.0588,-1.0093 37.8623,-0.99784 l 0.1164,1.996607 C 37.8764,1.00474 37.83,0.985737 37.901,1.00212 c 0.0481,0.01111 0.1249,0.03264 0.2339,0.06876 0.2168,0.07177 0.5088,0.18374 0.8601,0.33164 0.6997,0.29463 1.5855,0.71116 2.4819,1.17695 z m -4.5367,-1.80258 c -0.1659,0.009657 -0.3293,0.053147 -0.4319,0.082612 -0.1237,0.035506 -0.263,0.082167 -0.4102,0.135224 -0.2957,0.106561 -0.6626,0.253331 -1.0723,0.42695 -0.8214,0.34812664 -1.8501,0.819265 -2.8921,1.330639 L 33.937,2.77303 C 34.9514,2.2752 35.9462,1.8199 36.7284,1.4884 37.1206,1.3222 37.4505,1.19086 37.6984,1.10152 37.823,1.05662 37.917,1.02588 37.9824,1.0071 38.0689,0.982285 38.0502,0.994606 37.9786,0.998772 Z M 44.2215,10.8805 c 11.2016,3.2906 17.8281,15.5411 14.5016,26.8669 L 60.642,38.311 C 64.2749,25.9419 57.0629,12.5683 44.7852,8.96158 Z M 58.7231,37.7473 C 55.4325,48.949 43.182,55.5754 31.8562,52.2489 l -0.5636,1.919 C 43.6617,57.8008 57.0353,50.5888 60.642,38.311 Z M 31.8563,52.2489 C 20.6332,48.9525 14.0218,36.7292 17.3547,25.3821 l -1.919,-0.5636 c -3.6393,12.3904 3.5577,25.7368 15.8569,29.3494 z M 17.3547,25.3821 C 20.649,14.1666 32.8824,7.54975 44.2215,10.8805 L 44.7852,8.96158 C 32.4027,5.32436 19.0462,12.5267 15.4357,24.8185 Z M 30.6238,11.8164 c -5.9752,2.3955 -11.1751,7.9367 -12.7982,13.7342 l 1.9259,0.5392 C 21.1914,20.9468 25.9143,15.8593 31.368,13.6727 Z M 17.8256,25.5506 c -0.6134,2.1905 -0.755,5.02 -0.5276,7.7389 0.2272,2.7158 0.8327,5.443 1.8009,7.4147 l 1.7952,-0.8815 c -0.8183,-1.6666 -1.3875,-4.1228 -1.603,-6.6999 -0.2153,-2.5741 -0.0677,-5.147 0.4604,-7.0329 z m 1.2733,15.1536 c 2.0211,4.116 5.6845,7.7794 9.8005,9.8005 l 0.8815,-1.7952 c -3.7187,-1.8261 -7.0607,-5.1681 -8.8868,-8.8868 z m 9.8006,9.8006 c 1.413,0.6936 2.4194,1.1223 3.7544,1.354 1.2916,0.2241 2.8597,0.2578 5.385,0.2578 v -2 c -2.5593,0 -3.951,-0.0389 -5.0429,-0.2284 -1.0485,-0.182 -1.8491,-0.5081 -3.2151,-1.1788 z m 9.1394,1.6118 c 2.5026,0 4.0715,-0.0358 5.3546,-0.2533 1.3277,-0.2251 2.3178,-0.6386 3.6746,-1.3051 l -0.8817,-1.7951 c -1.2964,0.6368 -2.0828,0.9513 -3.1272,1.1283 -1.089,0.1847 -2.4877,0.2252 -5.0203,0.2252 z m 9.0291,-1.5583 c 3.9826,-1.9558 8.0087,-5.9818 9.9644,-9.9644 l -1.7952,-0.8816 c -1.7607,3.5853 -5.4654,7.2901 -9.0508,9.0508 z m 9.9644,-9.9643 c 0.6665,-1.3568 1.08,-2.347 1.3051,-3.6747 0.2175,-1.2831 0.2533,-2.852 0.2533,-5.3546 h -2 c 0,2.5327 -0.0406,3.9314 -0.2252,5.0203 -0.1771,1.0445 -0.4915,1.8308 -1.1283,3.1272 z m 1.5584,-9.0293 c 0,-2.5253 -0.0337,-4.0934 -0.2579,-5.3849 -0.2317,-1.335 -0.6603,-2.3415 -1.354,-3.7545 l -1.7953,0.8814 c 0.6707,1.3661 0.9968,2.1666 1.1788,3.2151 0.1895,1.0919 0.2284,2.4836 0.2284,5.0429 z m -1.6119,-9.1395 c -2.0211,-4.116 -5.6846,-7.7794 -9.8005,-9.8005 L 46.2968,14.42 c 3.7187,1.826 7.0608,5.1681 8.8868,8.8868 z M 47.1783,12.6247 C 45.8327,11.964 44.7882,11.5409 43.497,11.281 42.232,11.0264 40.7684,10.9366 38.6007,10.8798 l -0.0523,1.9993 c 2.1669,0.0568 3.4757,0.1456 4.554,0.3626 1.052,0.2118 1.9217,0.5534 3.1945,1.1783 z m -8.5776,-1.7449 c -3.9858,-0.1043 -5.8495,0.0834 -7.977,0.9366 l 0.7444,1.8563 c 1.7379,-0.697 3.266,-0.896 7.1803,-0.7936 z m 7.1143,4.6765 c 3.5213,1.7377 6.5079,4.7225 8.4059,8.4292 l 1.7802,-0.9116 C 53.818,19.0059 50.5276,15.7009 46.6,13.7628 Z m 8.4059,8.4291 c 0.6574,1.2842 0.9819,2.0592 1.1645,3.0316 0.1896,1.01 0.234,2.2725 0.234,4.5477 h 2 c 0,-2.2506 -0.0391,-3.6957 -0.2684,-4.9167 -0.2363,-1.2587 -0.666,-2.2383 -1.3499,-3.574 z m 1.3985,7.5793 c 0,2.2752 -0.0444,3.5377 -0.234,4.5477 -0.1826,0.9724 -0.5071,1.7474 -1.1645,3.0316 l 1.7802,0.9115 c 0.6839,-1.3358 1.1136,-2.3154 1.3499,-3.574 0.2293,-1.2211 0.2684,-2.6661 0.2684,-4.9168 z m -1.3985,7.5794 c -1.8843,3.6806 -4.8644,6.6743 -8.4154,8.4734 l 0.9039,1.7841 c 3.9409,-1.9967 7.2217,-5.3025 9.2917,-9.3462 z m -8.4152,8.4733 c -1.3286,0.6728 -2.122,1.0043 -3.1047,1.1901 -1.0183,0.1925 -2.2803,0.2367 -4.5621,0.2367 v 2 c 2.2569,0 3.7029,-0.0388 4.9336,-0.2715 1.2664,-0.2394 2.2629,-0.6753 3.6368,-1.3711 z m -7.6668,1.4268 c -2.2818,0 -3.5439,-0.0442 -4.5622,-0.2367 -0.9826,-0.1858 -1.7761,-0.5173 -3.1046,-1.1901 l -0.9036,1.7842 c 1.3739,0.6958 2.3704,1.1317 3.6367,1.3711 1.2308,0.2327 2.6767,0.2715 4.9337,0.2715 z M 30.3722,47.6175 C 18.2292,41.4661 16.827,24.9319 27.6892,17.2174 L 26.5311,15.5868 C 14.3875,24.2113 16.0429,42.6005 29.4684,49.4016 Z M 27.6893,17.2174 c 1.8988,-1.3487 3.5059,-2.1935 5.1971,-2.6866 1.6925,-0.4934 3.53,-0.6526 5.9132,-0.5504 l 0.0856,-1.9982 c -2.5155,-0.1078 -4.5878,0.054 -6.5587,0.6286 -1.9721,0.575 -3.7817,1.5457 -5.7954,2.976 z m 11.1104,-3.237 c 3.2584,0.1392 4.6919,0.4791 6.9153,1.576 l 0.8849,-1.7936 C 44.0698,12.5145 42.3493,12.1302 38.8851,11.9822 Z M 36.38,19.4135 c -0.1828,0.4638 -0.8821,2.4133 -1.5507,4.3211 l 1.8874,0.6615 c 0.6737,-1.9222 1.3586,-3.8295 1.5241,-4.2496 z m -1.5506,4.3209 -1.2214,3.4818 1.8873,0.662 1.2213,-3.4818 z m -0.3126,2.8134 -4.4922,0.157 0.0699,1.9987 4.4921,-0.1569 z m -4.492,0.157 -4.4927,0.1564 0.0696,1.9988 4.4927,-0.1564 z m -5.0423,1.9673 3.424,2.4656 1.1688,-1.6229 -3.424,-2.4657 z m 3.4239,2.4656 c 0.9409,0.6777 1.8162,1.3101 2.4685,1.783 0.3263,0.2365 0.596,0.4327 0.79,0.5745 0.2126,0.1553 0.3001,0.2208 0.2977,0.2189 l 1.2656,-1.5486 c -0.1309,-0.107 -1.7964,-1.3134 -3.6528,-2.6506 z m 3.5567,2.5768 c -0.2211,-0.1805 -0.2948,-0.3982 -0.3165,-0.4694 -0.0278,-0.091 -0.0346,-0.1632 -0.0368,-0.1923 -0.0046,-0.0606 -10e-5,-0.0966 -0.0013,-0.0837 -0.0015,0.0167 -0.0087,0.0722 -0.0295,0.1804 -0.0401,0.2082 -0.1121,0.5194 -0.214,0.918 -0.2024,0.792 -0.5086,1.8749 -0.8699,3.0544 l 1.9123,0.5857 c 0.3677,-1.2005 0.6832,-2.3147 0.8953,-3.1449 0.1055,-0.4125 0.189,-0.7688 0.2403,-1.0354 0.0248,-0.1291 0.0472,-0.2628 0.0577,-0.381 0.0048,-0.0546 0.0109,-0.1445 0.0033,-0.2447 -0.0037,-0.0488 -0.0131,-0.1373 -0.0447,-0.2408 -0.0256,-0.0836 -0.1043,-0.3102 -0.3316,-0.4957 z m -1.4681,3.4076 c -0.3672,1.1997 -0.6787,2.297 -0.8848,3.1006 -0.1022,0.3985 -0.1825,0.7407 -0.2302,0.9922 -0.0225,0.1188 -0.0446,0.2529 -0.0526,0.3738 -0.0031,0.0478 -0.0101,0.1684 0.0144,0.3063 0.011,0.0616 0.0436,0.2235 0.1566,0.394 0.1374,0.2074 0.4219,0.4534 0.8429,0.4534 v -2 c 0.4136,0 0.692,0.2422 0.8245,0.4421 0.1079,0.163 0.1368,0.3137 0.1451,0.3604 0.0113,0.0635 0.0128,0.1118 0.0131,0.1316 4e-4,0.0233 -6e-4,0.0387 -8e-4,0.043 -4e-4,0.0051 0.0028,-0.0316 0.0219,-0.1326 0.0356,-0.1881 0.1035,-0.4815 0.2025,-0.8674 0.1962,-0.7653 0.4986,-1.8318 0.8598,-3.0121 z m -0.1537,5.6203 c 0.1617,0 0.2858,-0.0397 0.3206,-0.0508 0.0535,-0.0172 0.0974,-0.0357 0.1252,-0.0481 0.0566,-0.0252 0.1091,-0.0531 0.1492,-0.0753 0.0832,-0.046 0.1809,-0.1055 0.2837,-0.1704 0.209,-0.1319 0.4869,-0.3167 0.8105,-0.5378 0.6495,-0.4438 1.5101,-1.0524 2.427,-1.7194 l -1.1766,-1.6173 c -0.9054,0.6587 -1.7495,1.2554 -2.3788,1.6854 -0.3158,0.2158 -0.5708,0.385 -0.7496,0.4979 -0.0912,0.0575 -0.1511,0.0932 -0.1845,0.1116 -0.0182,0.0101 -0.0137,0.0068 0.0057,-0.0018 0.0093,-0.0042 0.0374,-0.0165 0.0778,-0.0294 0.0217,-0.007 0.1355,-0.0446 0.2898,-0.0446 z m 4.1164,-2.6019 c 0.8989,-0.6542 1.76,-1.2455 2.4201,-1.6698 0.3317,-0.2133 0.6018,-0.3773 0.7954,-0.4848 0.0983,-0.0546 0.1618,-0.0862 0.1957,-0.1012 0.0173,-0.0077 0.0124,-0.0045 -0.0088,0.0022 -0.0031,0.001 -0.1001,0.0345 -0.2412,0.0345 v -2 c -0.1712,0 -0.3095,0.042 -0.3646,0.0595 -0.0733,0.0233 -0.1409,0.051 -0.1963,0.0756 -0.1115,0.0495 -0.2336,0.113 -0.3556,0.1808 -0.2474,0.1374 -0.5582,0.3273 -0.9061,0.551 -0.6992,0.4495 -1.5926,1.0634 -2.5155,1.735 z m 3.1612,-2.2191 c -0.141,0 -0.238,-0.0334 -0.2411,-0.0345 -0.0213,-0.0067 -0.0263,-0.0099 -0.0091,-0.0022 0.0337,0.0149 0.097,0.0463 0.1951,0.1007 0.193,0.1071 0.4623,0.2707 0.7931,0.4832 0.6583,0.423 1.517,1.0124 2.4132,1.6645 l 1.1766,-1.6173 c -0.9202,-0.6695 -1.8112,-1.2816 -2.5086,-1.7297 -0.347,-0.223 -0.657,-0.4125 -0.9039,-0.5494 C 38.4124,36.169 38.2906,36.1056 38.1792,36.0562 38.124,36.0317 38.0564,36.004 37.9832,35.9808 37.9282,35.9633 37.79,35.9214 37.6189,35.9214 Z M 40.77,40.133 c 0.9186,0.6685 1.7796,1.2617 2.4294,1.6796 0.322,0.2071 0.6075,0.3811 0.8286,0.5007 0.1055,0.0571 0.2267,0.1186 0.3436,0.1633 0.0527,0.0201 0.1534,0.0563 0.2758,0.0747 0.0608,0.0091 0.1715,0.0211 0.3063,0.0025 0.1323,-0.0181 0.3718,-0.0781 0.582,-0.2871 l -1.4102,-1.4182 c 0.2044,-0.2032 0.4351,-0.2594 0.5559,-0.276 0.1233,-0.017 0.2196,-0.0056 0.2635,0.001 0.05,0.0076 0.0868,0.0176 0.1048,0.0229 0.0196,0.0058 0.0324,0.0106 0.0367,0.0123 0.0064,0.0024 -0.024,-0.0097 -0.1066,-0.0544 -0.155,-0.0838 -0.3912,-0.2262 -0.6985,-0.4238 -0.6089,-0.3916 -1.4372,-0.9617 -2.3345,-1.6146 z m 4.7697,2.1297 c 0.1772,-0.1782 0.2399,-0.3726 0.2626,-0.4556 0.0266,-0.0975 0.0342,-0.1807 0.037,-0.2297 0.0057,-0.0989 -0.0018,-0.1868 -0.0076,-0.2411 -0.0125,-0.116 -0.0369,-0.2444 -0.0631,-0.3657 -0.0542,-0.2505 -0.1406,-0.5807 -0.2483,-0.9592 -0.2168,-0.7623 -0.5367,-1.7789 -0.9075,-2.8693 l -1.8935,0.6439 c 0.3631,1.0678 0.6721,2.0511 0.8774,2.7726 0.1033,0.3634 0.1763,0.6461 0.2171,0.8347 0.0099,0.0459 0.0171,0.0827 0.0222,0.1112 0.0025,0.0141 0.0043,0.0251 0.0055,0.0333 6e-4,0.004 10e-4,0.0071 0.0013,0.0093 3e-4,0.0022 4e-4,0.0032 4e-4,0.0032 0,0 -1e-4,-4e-4 -1e-4,-10e-4 -10e-5,-7e-4 -2e-4,-0.0017 -3e-4,-0.0031 -2e-4,-0.0027 -5e-4,-0.0074 -8e-4,-0.0136 -5e-4,-0.0108 -0.0014,-0.0358 6e-4,-0.0702 0.0017,-0.0299 0.0071,-0.0971 0.0303,-0.182 0.0192,-0.0704 0.0773,-0.2556 0.2486,-0.4279 z m -0.9269,-5.1208 c -0.3909,-1.1488 -0.6573,-1.9164 -0.7944,-2.5156 -0.1332,-0.5823 -0.1038,-0.8488 -0.0355,-1.0293 0.0753,-0.1988 0.2622,-0.4639 0.8045,-0.9072 0.5424,-0.4435 1.3099,-0.9653 2.4188,-1.7275 l -1.1329,-1.6482 c -1.0689,0.7347 -1.9275,1.3169 -2.5518,1.8273 -0.6244,0.5105 -1.1447,1.0493 -1.409,1.7474 -0.2713,0.7164 -0.2139,1.4398 -0.0437,2.1836 0.1663,0.7269 0.4789,1.6214 0.8506,2.7137 z m 2.3933,-6.1795 2.9912,-2.0553 -1.1327,-1.6484 -2.9912,2.0554 z m 2.4849,-3.8777 -4.4476,-0.2679 -0.1202,1.9964 4.4476,0.2679 z m -4.4476,-0.2679 -4.4477,-0.2678 -0.1202,1.9964 4.4477,0.2678 z m -3.5608,0.409 -1.4544,-4.2853 -1.8939,0.6427 1.4544,4.2854 z m -1.4543,-4.2852 c -0.4347,-1.2814 -0.8485,-2.3234 -1.1928,-3.0003 -0.1575,-0.3097 -0.3539,-0.6533 -0.5874,-0.884 -0.0829,-0.0818 -0.396,-0.3847 -0.8814,-0.366 -0.6374,0.0245 -0.9098,0.5283 -0.9864,0.7223 l 1.8601,0.7348 c -0.0297,0.0753 -0.2384,0.5199 -0.7969,0.5414 -0.2212,0.0085 -0.3833,-0.0639 -0.4622,-0.1081 -0.0802,-0.0449 -0.1264,-0.0893 -0.1386,-0.1014 -0.018,-0.0178 0.0556,0.064 0.2101,0.3677 0.2796,0.5497 0.6575,1.486 1.0815,2.7361 z M 5.62861,67.7149 C 3.82679,71.7324 2.18865,75.4523 1.00063,78.21 c -0.593696,1.3781 -1.0766807,2.5199 -1.411908,3.3397 -0.167164,0.4088 -0.30045,0.7445 -0.392995,0.9921 -0.045803,0.1226 -0.085484,0.2338 -0.114968,0.3262 -0.01449,0.0453 -0.030257,0.0977 -0.043364,0.1509 -0.006112,0.0247 -0.038825,0.15 -0.037343,0.2987 l 1.999901,-0.02 C 1.00075,83.3773 0.991046,83.4364 0.988127,83.4537 0.984048,83.478 0.980126,83.494 0.979134,83.4981 0.977197,83.5059 0.978216,83.5007 0.985987,83.4763 1.00103,83.4292 1.02777,83.3528 1.06918,83.242 1.15106,83.0229 1.27534,82.7092 1.43993,82.3066 1.76823,81.5038 2.24557,80.3752 2.83744,79.0013 4.02056,76.255 5.65454,72.5444 7.45348,68.5333 Z m -6.62854,15.6043 c 0.00333,0.2864 0.099518,0.5398 0.174276,0.7043 0.084024,0.1848 0.19335,0.3684 0.310855,0.54 0.235053,0.3431 0.5478957,0.7034 0.890693,1.0135 L 1.7175,84.0937 C 1.48821,83.8863 1.27957,83.644 1.13524,83.4333 1.06305,83.3279 1.01821,83.2467 0.995014,83.1957 0.962554,83.1243 0.99848,83.1708 0.999935,83.296 Z m 1.375523,2.2575 c 0.286381,0.2592 0.608227,0.4969 1.040427,0.6722 0.41963,0.1702 0.88829,0.2592 1.44525,0.3027 1.08246,0.0846 2.72078,0.0088 5.40539,-0.159 L 8.14194,84.3965 C 5.40826,84.5673 3.92846,84.6289 3.01702,84.5577 2.57704,84.5233 2.32981,84.4613 2.16762,84.3955 2.018,84.3348 1.8921,84.2517 1.7178,84.094 Z m 7.890997,0.8159 c 1.66659,-0.104 3.29551,-0.1612 4.57361,-0.1699 0.6401,-0.0043 1.1832,0.0035 1.5949,0.0228 0.4629,0.0217 0.6376,0.0543 0.6354,0.0536 l 0.6043,-1.9065 c -0.2913,-0.0924 -0.7366,-0.1257 -1.1462,-0.1449 -0.4608,-0.0216 -1.0428,-0.0294 -1.702,-0.0249 -1.3204,0.009 -2.98665,0.0677 -4.68459,0.1737 z m 6.80331,-0.0937 c -0.0806,-0.0256 -0.0927,-0.0483 -0.0145,0.0084 0.0634,0.0459 0.1538,0.1203 0.2717,0.2293 0.2349,0.2174 0.5321,0.529 0.873,0.92 0.6797,0.7795 1.4885,1.8226 2.255,2.9357 l 1.6472,-1.1344 c -0.8035,-1.1668 -1.6585,-2.2714 -2.3948,-3.1157 -0.367,-0.4209 -0.7158,-0.7901 -1.0221,-1.0736 -0.1528,-0.1414 -0.3069,-0.2725 -0.4565,-0.3809 -0.1348,-0.0976 -0.3284,-0.2234 -0.5536,-0.295 z m 3.3852,4.0934 c 1.18,1.7133 2.1499,3.0709 2.9681,4.1066 0.8082,1.023 1.5147,1.7926 2.1731,2.2791 0.6738,0.4978 1.4323,0.7944 2.2598,0.5919 0.7519,-0.184 1.3264,-0.7338 1.7896,-1.28 l -1.5253,-1.2935 c -0.4126,0.4866 -0.6377,0.6059 -0.7398,0.6309 -0.0266,0.0065 -0.1763,0.052 -0.5959,-0.2579 -0.4348,-0.3213 -1.0066,-0.916 -1.7922,-1.9103 -0.7755,-0.9817 -1.7148,-2.2945 -2.8902,-4.0012 z m 9.1907,5.6976 c 0.0832,-0.0981 0.1528,-0.2161 0.1882,-0.2766 0.0487,-0.0831 0.1045,-0.1845 0.1654,-0.2985 0.1223,-0.2292 0.2793,-0.5364 0.4643,-0.9072 0.3709,-0.7429 0.866,-1.7637 1.4444,-2.9737 1.1574,-2.4213 2.6556,-5.6155 4.1757,-8.8943 3.0301,-6.5361 6.1782,-13.4757 6.8642,-15.2632 l -1.8672,-0.7166 c -0.6552,1.7072 -3.7651,8.5672 -6.8115,15.1386 -1.5182,3.2748 -3.0128,6.4613 -4.1657,8.8729 -0.5767,1.2065 -1.066,2.2153 -1.4293,2.9431 -0.1821,0.3647 -0.3296,0.6531 -0.4393,0.8585 -0.0551,0.1033 -0.0971,0.1789 -0.1269,0.2298 -0.043,0.0734 -0.0325,0.0465 0.0123,-0.0063 z M 40.9481,67.4762 c 0.0913,-0.238 0.178,-0.5975 0.0563,-0.9913 -0.1312,-0.4248 -0.438,-0.6823 -0.7185,-0.8246 -0.2617,-0.1327 -0.5509,-0.1943 -0.8096,-0.2282 -0.2698,-0.0354 -0.5765,-0.0489 -0.9109,-0.0489 v 2 c 0.2889,0 0.5004,0.0121 0.6509,0.0319 0.1615,0.0212 0.1947,0.044 0.1648,0.0289 -0.0487,-0.0247 -0.2143,-0.1315 -0.2876,-0.3689 -0.0637,-0.2064 -0.0026,-0.3417 -0.0127,-0.3152 z m -2.3827,-2.093 c -0.2999,0 -1.0605,-0.16 -2.1386,-0.5036 -1.0297,-0.3281 -2.2265,-0.783 -3.3331,-1.2827 l -0.823,1.8228 c 1.1769,0.5315 2.4458,1.014 3.5489,1.3655 1.0547,0.3361 2.0939,0.598 2.7458,0.598 z m -5.4717,-1.7863 c -1.701,-0.768 -2.9694,-1.2676 -4.1932,-1.5684 -1.2381,-0.3043 -2.3889,-0.395 -3.8468,-0.395 v 2 c 1.3667,0 2.3431,0.085 3.3695,0.3372 1.0408,0.2558 2.1743,0.6936 3.8475,1.449 z m -8.04,-1.9634 c -2.0668,0 -3.1606,-0.1999 -4.0697,-0.7931 -0.9541,-0.6226 -1.839,-1.7614 -3.2252,-4.0436 l -1.7094,1.0382 c 1.3725,2.2597 2.4613,3.7797 3.8417,4.6804 1.4255,0.9301 3.0272,1.1181 5.1626,1.1181 z m -7.295,-4.8369 c -0.7953,-1.3089 -1.53,-2.3309 -2.2205,-3.0372 -0.6599,-0.6749 -1.4441,-1.2323 -2.3388,-1.2323 v 2 c 0.0561,0 0.3441,0.053 0.9087,0.6305 0.534,0.5462 1.1763,1.4185 1.9414,2.6776 z m -4.5593,-4.2695 c -0.2625,0 -0.4485,0.1023 -0.5194,0.1453 -0.0846,0.0513 -0.1433,0.1042 -0.1727,0.1322 -0.0596,0.0569 -0.0991,0.1089 -0.1134,0.128 -0.0337,0.0449 -0.0577,0.0847 -0.0668,0.1 -0.0227,0.0378 -0.0436,0.0771 -0.059,0.1065 -0.0334,0.0638 -0.0758,0.1492 -0.1243,0.249 -0.0984,0.2025 -0.2372,0.4962 -0.4106,0.868 -0.3476,0.7451 -0.8418,1.8201 -1.4456,3.1438 -1.20792,2.6481 -2.85802,6.2994 -4.65899,10.315 l 1.82487,0.8184 c 1.7998,-4.013 3.44812,-7.6602 4.65372,-10.3034 0.603,-1.322 1.0945,-2.3909 1.4384,-3.1282 0.1724,-0.3695 0.3059,-0.6517 0.3972,-0.8398 0.0464,-0.0954 0.0782,-0.159 0.0972,-0.1953 0.0108,-0.0207 0.0106,-0.0193 0.0032,-0.0068 -0.0016,0.0026 -0.0194,0.0329 -0.0483,0.0714 -0.012,0.016 -0.0494,0.0656 -0.1074,0.1209 -0.0285,0.0272 -0.0865,0.0795 -0.1704,0.1304 -0.0703,0.0426 -0.2557,0.1446 -0.5177,0.1446 z m 44.9488,4.446 c -1.3339,2.1118 -2.2761,3.2059 -3.3627,3.8251 -1.0779,0.6144 -2.4341,0.838 -4.8034,0.8433 l 0.0044,2 c 2.4314,-0.0054 4.2351,-0.2199 5.7893,-1.1056 1.5455,-0.8808 2.7077,-2.3484 4.0634,-4.4947 z m -8.1663,4.6684 c -1.0277,0.0025 -2.0375,0.0499 -2.8422,0.126 -0.4008,0.0379 -0.7653,0.0842 -1.0622,0.1389 -0.1478,0.0273 -0.2933,0.0592 -0.425,0.0976 -0.1117,0.0326 -0.2932,0.0916 -0.4614,0.201 l 1.0907,1.6765 c -0.0851,0.0553 -0.1341,0.0614 -0.0697,0.0426 0.0443,-0.0129 0.1185,-0.0306 0.228,-0.0508 0.2177,-0.0401 0.5187,-0.0798 0.8878,-0.1147 0.7352,-0.0695 1.6831,-0.1147 2.6588,-0.1171 z m -4.7902,0.5631 c -0.145,0.0943 -0.2464,0.209 -0.2925,0.263 -0.0593,0.0693 -0.115,0.1444 -0.1649,0.2159 -0.1005,0.1439 -0.212,0.323 -0.3296,0.5229 -0.2368,0.4029 -0.5298,0.9452 -0.8577,1.5821 -0.6573,1.2769 -1.4753,2.9749 -2.2975,4.7884 l 1.8216,0.8258 c 0.8116,-1.7904 1.6151,-3.4575 2.2541,-4.6988 0.3203,-0.6222 0.5941,-1.1273 0.8038,-1.484 0.1057,-0.1799 0.1873,-0.3087 0.245,-0.3913 0.0137,-0.0197 0.0247,-0.0347 0.033,-0.0456 0.0085,-0.0113 0.0126,-0.016 0.0124,-0.0159 -2e-4,3e-4 -0.0022,0.0026 -0.0059,0.0066 -0.0036,0.0039 -0.01,0.0105 -0.0189,0.0191 -0.0141,0.0136 -0.0528,0.0497 -0.1135,0.0891 z m -3.9422,7.3723 -2.9708,6.5534 1.8216,0.8258 2.9708,-6.5534 z m -2.9727,7.3749 4.1118,9.1856 1.8254,-0.8171 -4.1118,-9.1857 z m 4.1117,9.1856 c 1.3547,3.0264 2.4442,5.3698 3.3783,7.0754 0.907,1.6559 1.7602,2.8951 2.7041,3.5041 0.5154,0.3326 1.093,0.5019 1.7151,0.4201 0.5957,-0.0784 1.1158,-0.3722 1.5668,-0.7383 0.8736,-0.7091 1.7659,-1.9263 2.7635,-3.4109 l -1.66,-1.1155 c -1.0217,1.5205 -1.7592,2.4827 -2.364,2.9736 -0.2882,0.2339 -0.4695,0.2953 -0.5671,0.3082 -0.0711,0.0093 -0.1786,0.0058 -0.37,-0.1177 -0.4697,-0.3031 -1.1166,-1.1089 -2.0342,-2.7844 -0.8905,-1.6258 -1.9501,-3.9002 -3.307,-6.9317 z m 12.1279,6.8502 c 1.2048,-1.7936 2.9126,-4.1858 3.7854,-5.3053 l -1.5774,-1.2297 c -0.9121,1.17 -2.6486,3.6042 -3.8682,5.4198 z m 3.7855,-5.3055 1.622,-2.0816 -1.5776,-1.2293 -1.622,2.0816 z m 0.7927,-1.6971 6.8325,0.277 0.0809,-1.9984 -6.8324,-0.2769 z m 6.8324,0.277 c 2.7049,0.1099 4.5186,0.142 5.7738,0.064 1.2418,-0.0772 2.1028,-0.2676 2.7731,-0.7369 l -1.1472,-1.6383 c -0.2019,0.1414 -0.598,0.3075 -1.75,0.3791 -1.1386,0.0707 -2.8552,0.044 -5.5686,-0.0663 z m 8.5471,-0.673 c 0.3919,-0.2746 0.744,-0.6235 1.0062,-0.9774 C 75.7078,84.3047 76,83.8186 76,83.2862 h -2 c 0,-0.0962 0.0256,-0.1268 0.001,-0.072 -0.0199,0.0442 -0.06,0.1155 -0.1275,0.2066 -0.1364,0.1841 -0.3342,0.381 -0.547,0.5302 z M 76,83.2862 c 0,-0.1888 -0.0506,-0.3721 -0.0725,-0.4512 -0.032,-0.1156 -0.0752,-0.2487 -0.1248,-0.3914 -0.0998,-0.2872 -0.242,-0.6602 -0.4172,-1.0998 -0.3514,-0.8817 -0.851,-2.07 -1.4487,-3.4552 C 72.7407,75.1161 71.1411,71.5297 69.5234,67.9757 67.9058,64.4218 66.2674,60.8944 64.9935,58.24 64.3571,56.9141 63.8082,55.7989 63.3968,55.0051 63.1922,54.6103 63.0151,54.2824 62.8749,54.0442 62.8062,53.9275 62.7354,53.8137 62.6673,53.7188 62.6344,53.673 62.5874,53.6108 62.5296,53.5491 62.509,53.5272 62.348,53.3447 62.0788,53.255 l -0.6325,1.8974 c -0.1491,-0.0497 -0.2474,-0.1231 -0.2853,-0.1529 -0.0458,-0.0361 -0.0764,-0.0675 -0.0901,-0.0821 -0.0269,-0.0287 -0.0374,-0.045 -0.0283,-0.0323 0.0159,0.0222 0.0512,0.0759 0.1089,0.1739 0.1125,0.1912 0.27,0.4811 0.4696,0.8664 0.3972,0.7663 0.9356,1.8598 1.5693,3.18 1.266,2.6378 2.8983,6.152 4.5127,9.6988 1.6144,3.5468 3.2082,7.1203 4.3974,9.8767 0.595,1.3791 1.086,2.5475 1.4271,3.4034 0.1711,0.4292 0.3006,0.7702 0.3859,1.0158 0.043,0.1237 0.0708,0.2117 0.0866,0.2687 C 74.0259,83.4622 74,83.4029 74,83.2862 Z M 62.0788,53.255 c -0.4485,-0.1495 -0.8255,0.0374 -0.9371,0.0956 -0.1641,0.0856 -0.3096,0.1986 -0.4255,0.2986 -0.2385,0.2058 -0.5008,0.4886 -0.766,0.8049 -0.5376,0.6414 -1.1783,1.5315 -1.802,2.5191 l 1.691,1.0679 c 0.5891,-0.9328 1.1777,-1.7461 1.6438,-2.3022 0.2367,-0.2824 0.4197,-0.4719 0.54,-0.5757 0.0635,-0.0549 0.0757,-0.0561 0.0439,-0.0395 -0.017,0.0089 -0.0743,0.0375 -0.1634,0.0567 -0.0885,0.019 -0.257,0.0387 -0.4572,-0.028 z M 15.95,50.042 C 14.3458,48.9296 13.2872,48.2058 12.5583,47.6159 11.8393,47.034 11.558,46.6714 11.4112,46.3267 L 9.57104,47.11 c 0.33656,0.7907 0.91616,1.4027 1.72906,2.0606 0.803,0.6499 1.9473,1.4311 3.5102,2.5149 z M 11.4112,46.3267 C 11.3057,46.0788 11.241,45.7717 11.2097,45.2841 11.1776,44.7824 11.1841,44.1754 11.1841,43.3173 H 9.18413 c 0,0.811 -0.00776,1.5103 0.02969,2.0947 0.03836,0.5985 0.12712,1.1575 0.35722,1.698 z" />
</svg>
