<?xml version="1.0" encoding="UTF-8" standalone="no"?>
<svg
   xmlns:dc="http://purl.org/dc/elements/1.1/"
   xmlns:cc="http://creativecommons.org/ns#"
   xmlns:rdf="http://www.w3.org/1999/02/22-rdf-syntax-ns#"
   xmlns:svg="http://www.w3.org/2000/svg"
   xmlns="http://www.w3.org/2000/svg"
   xmlns:sodipodi="http://sodipodi.sourceforge.net/DTD/sodipodi-0.dtd"
   xmlns:inkscape="http://www.inkscape.org/namespaces/inkscape"
   inkscape:version="1.0 (4035a4f, 2020-05-01)"
   sodipodi:docname="clock.svg"
   id="svg891"
   version="1.1"
   fill="none"
   viewBox="0 0 200 100"
   height="100"
   width="200">
  <metadata
     id="metadata897">
    <rdf:RDF>
      <cc:Work
         rdf:about="">
        <dc:format>image/svg+xml</dc:format>
        <dc:type
           rdf:resource="http://purl.org/dc/dcmitype/StillImage" />
        <dc:title></dc:title>
      </cc:Work>
    </rdf:RDF>
  </metadata>
  <defs
     id="defs895" />
  <sodipodi:namedview
     inkscape:current-layer="svg891"
     inkscape:window-maximized="0"
     inkscape:window-y="0"
     inkscape:window-x="0"
     inkscape:cy="205.77964"
     inkscape:cx="52.593704"
     inkscape:zoom="1.6299289"
     showgrid="false"
     id="namedview893"
     inkscape:window-height="1120"
     inkscape:window-width="1792"
     inkscape:pageshadow="2"
     inkscape:pageopacity="0"
     guidetolerance="10"
     gridtolerance="10"
     objecttolerance="10"
     borderopacity="1"
     bordercolor="#666666"
     pagecolor="#ffffff" />
  <mask
     fill="#ffffff"
     id="path-1-inside-1_35_469">
    <path
       id="path852"
       d="m 34.0568,0.143775 c -0.7251,0.068703 -2.2111,0.287993 -3.302,0.48751 -1.091,0.199518 -2.7894,0.594595 -3.7741,0.878045 -0.9847,0.28346 -2.5312,0.8177 -3.4365,1.18714 -0.9053,0.36959 -2.437,1.08358 -3.4038,1.58691 -0.9668,0.50333 -2.4188,1.35385 -3.2266,1.88985 -0.8077,0.53614 -2.159,1.52874 -3.0029,2.20596 -0.844,0.67707 -2.3264,2.04701 -3.2944,3.04421 C 9.64832,12.4206 8.29257,13.9947 7.60364,14.9212 6.9147,15.8477 6.0368,17.1002 5.6527,17.7045 5.26861,18.3087 4.46923,19.7919 3.87639,21.0005 3.28355,22.209 2.56034,23.8476 2.26912,24.6417 1.9779,25.4358 1.51896,26.952 1.24913,28.0109 0.9793,29.0699 0.654815,30.5625 0.52781,31.3279 0.400951,32.0933 0.23,33.4446 0.147821,34.3309 0.0656405,35.2171 -8.70318e-4,36.6674 8.61197e-6,37.5536 7.41054e-4,38.4399 0.0964059,40.0549 0.212571,41.1426 c 0.116165,1.0877 0.346746,2.6768 0.512425,3.5313 0.165678,0.8546 0.499804,2.2615 0.742834,3.1265 0.24288,0.865 0.74491,2.3413 1.11567,3.2804 0.37076,0.9392 0.96988,2.3009 1.33127,3.026 0.36138,0.7251 0.99246,1.8787 1.40219,2.5636 0.40987,0.6848 1.1927,1.8727 1.73969,2.6396 0.54699,0.767 1.62237,2.1183 2.38968,3.003 0.76747,0.8848 2.00437,2.1563 2.74867,2.8259 0.7443,0.6695 1.9489,1.6679 2.6767,2.2187 0.7277,0.5508 1.9502,1.3965 2.7166,1.8793 0.7663,0.4828 2.1469,1.2557 3.0679,1.7176 0.921,0.462 2.4163,1.1298 3.3229,1.4843 0.9066,0.3545 2.4902,0.8756 3.5193,1.1577 1.0289,0.2823 2.6288,0.6424 3.5554,0.8003 0.9265,0.1578 2.4097,0.3539 3.296,0.4357 0.8862,0.0818 2.3035,0.1486 3.1495,0.1486 0.8459,0 2.2632,-0.0668 3.1494,-0.1486 0.8863,-0.0818 2.3695,-0.2779 3.296,-0.4357 0.9266,-0.1579 2.5265,-0.518 3.5554,-0.8003 1.0291,-0.2821 2.6305,-0.8101 3.5589,-1.1731 0.9283,-0.363 2.4596,-1.0539 3.4027,-1.5353 0.9431,-0.4814 2.3022,-1.2446 3.0203,-1.696 0.718,-0.4515 1.9345,-1.2947 2.7033,-1.8737 0.7687,-0.5791 2.2178,-1.844 3.2199,-2.8109 1.0021,-0.9668 2.3637,-2.417 3.0259,-3.2227 0.6621,-0.8057 1.677,-2.1698 2.2551,-3.0313 0.5782,-0.8615 1.5065,-2.4436 2.0628,-3.5157 0.5562,-1.0722 1.3132,-2.7225 1.6822,-3.6675 0.369,-0.9449 0.9019,-2.5599 1.1841,-3.589 0.2823,-1.0289 0.6423,-2.6289 0.8002,-3.5554 0.1578,-0.9266 0.354,-2.4098 0.4357,-3.296 0.0819,-0.8863 0.1487,-2.3035 0.1487,-3.1495 0,-0.846 -0.0668,-2.2633 -0.1487,-3.1495 -0.0817,-0.8863 -0.2779,-2.3695 -0.4357,-3.296 C 74.2576,30.1084 73.8976,28.5084 73.6153,27.4795 73.3331,26.4504 72.8056,24.8502 72.4432,23.9233 72.0808,22.9965 71.3497,21.3834 70.8184,20.3386 70.2872,19.294 69.3736,17.7222 68.788,16.8459 68.2024,15.9695 67.2076,14.6111 66.5771,13.8272 65.9466,13.0434 64.814,11.7852 64.0598,11.0312 63.3059,10.2771 61.9818,9.09288 61.1174,8.3994 60.2529,7.70592 59.0183,6.79111 58.3738,6.36644 57.7292,5.94177 56.8064,5.35993 56.3229,5.07354 55.8395,4.78701 54.8837,4.27254 54.1989,3.93035 53.514,3.58815 52.2298,3.01699 51.345,2.66132 50.4602,2.30564 48.9671,1.79103 48.0268,1.51769 47.0864,1.24448 45.6021,0.882371 44.7281,0.712884 43.8542,0.543543 42.2491,0.30989 41.1614,0.193724 40.0738,0.0775592 38.3269,-0.0093077 37.2795,7.99997e-4 36.2321,0.0107612 34.7819,0.0752183 34.0568,0.143775 Z m 6.4039,5.055055 c 0.7251,0.07895 1.7468,0.21709 2.2705,0.30704 0.5237,0.08994 1.5836,0.31978 2.3553,0.5108 0.7717,0.19088 2.0901,0.58566 2.9297,0.87732 0.8397,0.29151 2.2519,0.87468 3.1381,1.29584 0.8863,0.42115 2.2324,1.14466 2.9913,1.60771 0.759,0.46316 2.0114,1.31446 2.7833,1.89176 0.7718,0.5774 2.2613,1.9079 3.3101,2.9564 1.0485,1.0487 2.3707,2.5329 2.9379,3.2983 0.5674,0.7654 1.3467,1.8861 1.7319,2.4904 0.3853,0.6042 1.1186,1.9556 1.6296,3.003 0.5109,1.0474 1.166,2.5913 1.4556,3.431 0.2898,0.8397 0.6831,2.1581 0.874,2.9298 0.191,0.7717 0.4208,1.8315 0.5108,2.3552 0.0899,0.5237 0.2281,1.5455 0.307,2.2706 0.0788,0.7251 0.1435,2.2083 0.1435,3.296 0,1.0877 -0.0647,2.5708 -0.1435,3.296 -0.0789,0.7251 -0.2171,1.7468 -0.307,2.2705 -0.09,0.5237 -0.3198,1.5836 -0.5108,2.3553 -0.1909,0.7717 -0.5842,2.0901 -0.874,2.9297 -0.2896,0.8397 -0.9447,2.3837 -1.4556,3.4311 -0.511,1.0474 -1.2443,2.3987 -1.6296,3.003 -0.3852,0.6043 -1.1645,1.7249 -1.7319,2.4903 -0.5672,0.7654 -1.8894,2.2496 -2.9379,3.2983 -1.0488,1.0486 -2.533,2.3708 -3.2984,2.938 -0.7654,0.5673 -1.886,1.3466 -2.4903,1.7319 -0.6043,0.3853 -1.9556,1.1186 -3.003,1.6296 -1.0474,0.5109 -2.5914,1.166 -3.4311,1.4556 -0.8396,0.2898 -2.158,0.6831 -2.9297,0.874 -0.7717,0.191 -1.8316,0.4208 -2.3553,0.5108 -0.5237,0.0899 -1.5454,0.2281 -2.2705,0.307 -0.7252,0.0788 -2.1944,0.1439 -3.2651,0.1446 -1.0708,6e-4 -2.587,-0.068 -3.3693,-0.1525 -0.7823,-0.0845 -1.9828,-0.2561 -2.6676,-0.381 -0.6849,-0.1251 -2.0094,-0.447 -2.9436,-0.7153 -0.934,-0.2684 -2.3842,-0.7596 -3.2227,-1.0915 C 24.154,67.7136 22.7909,67.084 21.9636,66.6466 21.1361,66.2092 19.8567,65.4489 19.1203,64.9571 18.3839,64.4652 17.3139,63.6941 16.7427,63.2434 16.1714,62.7928 14.913,61.6282 13.946,60.6558 12.979,59.6832 11.7227,58.2613 11.1544,57.4959 10.586,56.7305 9.80578,55.6099 9.42052,55.0056 9.03525,54.4013 8.30193,53.05 7.79098,52.0026 7.28003,50.9552 6.62495,49.4112 6.33534,48.5715 6.04559,47.7319 5.65225,46.4135 5.46138,45.6418 5.27036,44.8701 5.04053,43.8102 4.95058,43.2865 4.86064,42.7628 4.72249,41.7411 4.64354,41.016 4.56472,40.2908 4.50012,38.8077 4.50012,37.72 c 0,-1.0877 0.0646,-2.5709 0.14342,-3.296 0.07895,-0.7251 0.2171,-1.7469 0.30704,-2.2706 0.08995,-0.5237 0.31978,-1.5835 0.5108,-2.3552 0.19087,-0.7717 0.58566,-2.0901 0.87732,-2.9298 0.29151,-0.8397 0.87468,-2.2518 1.29583,-3.1381 0.42115,-0.8862 1.14467,-2.2323 1.60772,-2.9913 0.4632,-0.7589 1.31445,-2.0114 1.89175,-2.7832 0.5775,-0.7719 1.9079,-2.2614 2.9564,-3.3101 1.0487,-1.0485 2.5382,-2.379 3.3101,-2.9564 0.7718,-0.5773 1.9913,-1.4078 2.71,-1.84547 C 20.8292,9.40612 21.9445,8.78428 22.5891,8.462 23.2336,8.13973 24.3833,7.63127 25.1437,7.33214 25.9043,7.03301 27.2886,6.56894 28.22,6.30086 29.1515,6.03279 30.5068,5.70641 31.2319,5.57545 31.957,5.44449 33.0447,5.28189 33.649,5.21421 34.2532,5.14653 35.7364,5.0831 36.9449,5.07329 c 1.2086,-0.00982 2.7906,0.04673 3.5158,0.12554 z"
       clip-rule="evenodd"
       fill-rule="evenodd" />
    <path
       id="path854"
       d="m 40.4607,5.19883 c 0.7251,0.07895 1.7468,0.21709 2.2705,0.30704 0.5237,0.08994 1.5836,0.31978 2.3553,0.5108 0.7717,0.19088 2.0901,0.58566 2.9297,0.87732 0.8397,0.29151 2.2519,0.87468 3.1381,1.29584 0.8863,0.42115 2.2324,1.14466 2.9913,1.60771 0.759,0.46316 2.0114,1.31446 2.7833,1.89176 0.7718,0.5774 2.2613,1.9079 3.3101,2.9564 1.0485,1.0487 2.3707,2.5329 2.9379,3.2983 0.5674,0.7654 1.3467,1.8861 1.7319,2.4904 0.3853,0.6042 1.1186,1.9556 1.6296,3.003 0.5109,1.0474 1.166,2.5913 1.4556,3.431 0.2898,0.8397 0.6831,2.1581 0.874,2.9298 0.191,0.7717 0.4208,1.8315 0.5108,2.3552 0.0899,0.5237 0.2281,1.5455 0.307,2.2706 0.0788,0.7251 0.1435,2.2083 0.1435,3.296 0,1.0877 -0.0647,2.5708 -0.1435,3.296 -0.0789,0.7251 -0.2171,1.7468 -0.307,2.2705 -0.09,0.5237 -0.3198,1.5836 -0.5108,2.3553 -0.1909,0.7717 -0.5842,2.0901 -0.874,2.9297 -0.2896,0.8397 -0.9447,2.3837 -1.4556,3.4311 -0.511,1.0474 -1.2443,2.3987 -1.6296,3.003 -0.3852,0.6043 -1.1645,1.7249 -1.7319,2.4903 -0.5672,0.7654 -1.8894,2.2496 -2.9379,3.2983 -1.0488,1.0486 -2.533,2.3708 -3.2984,2.938 -0.7654,0.5673 -1.886,1.3466 -2.4903,1.7319 -0.6043,0.3853 -1.9556,1.1186 -3.003,1.6296 -1.0474,0.5109 -2.5914,1.166 -3.4311,1.4556 -0.8396,0.2898 -2.158,0.6831 -2.9297,0.874 -0.7717,0.191 -1.8316,0.4208 -2.3553,0.5108 -0.5237,0.0899 -1.5454,0.2281 -2.2705,0.307 -0.7252,0.0788 -2.1944,0.1439 -3.2651,0.1446 -1.0708,6e-4 -2.587,-0.068 -3.3693,-0.1525 -0.7823,-0.0845 -1.9828,-0.2561 -2.6676,-0.381 -0.6849,-0.1251 -2.0094,-0.447 -2.9436,-0.7153 -0.934,-0.2684 -2.3842,-0.7596 -3.2227,-1.0915 C 24.154,67.7136 22.7909,67.084 21.9636,66.6466 21.1361,66.2092 19.8567,65.4489 19.1203,64.9571 18.3839,64.4652 17.3139,63.6941 16.7427,63.2434 16.1714,62.7928 14.913,61.6282 13.946,60.6558 12.979,59.6832 11.7227,58.2613 11.1544,57.4959 10.586,56.7305 9.80578,55.6099 9.42052,55.0056 9.03525,54.4013 8.30193,53.05 7.79098,52.0026 7.28003,50.9552 6.62495,49.4112 6.33534,48.5715 6.04559,47.7319 5.65225,46.4135 5.46138,45.6418 5.27036,44.8701 5.04053,43.8102 4.95058,43.2865 4.86064,42.7628 4.72249,41.7411 4.64354,41.016 4.56472,40.2908 4.50012,38.8077 4.50012,37.72 c 0,-1.0877 0.0646,-2.5709 0.14342,-3.296 0.07895,-0.7251 0.2171,-1.7469 0.30704,-2.2706 0.08995,-0.5237 0.31978,-1.5835 0.5108,-2.3552 0.19087,-0.7717 0.58566,-2.0901 0.87732,-2.9298 0.29151,-0.8397 0.87468,-2.2518 1.29583,-3.1381 0.42115,-0.8862 1.14467,-2.2323 1.60772,-2.9913 0.4632,-0.7589 1.31445,-2.0114 1.89175,-2.7832 0.5775,-0.7719 1.9079,-2.2614 2.9564,-3.3101 1.0487,-1.0485 2.5382,-2.379 3.3101,-2.9564 0.7718,-0.5773 1.9913,-1.4078 2.71,-1.84547 C 20.8292,9.40612 21.9445,8.78428 22.5891,8.462 23.2336,8.13973 24.3833,7.63127 25.1437,7.33214 25.9043,7.03301 27.2886,6.56894 28.22,6.30086 29.1515,6.03279 30.5068,5.70641 31.2319,5.57545 31.957,5.44449 33.0447,5.28189 33.649,5.21421 34.2532,5.14653 35.7364,5.0831 36.9449,5.07329 c 1.2086,-0.00982 2.7906,0.04673 3.5158,0.12554 z"
       clip-rule="evenodd"
       fill-rule="evenodd" />
  </mask>
  <path
     id="path857"
     fill="#748791"
     d="m 100.31736,13.027772 c -0.725102,0.0687 -2.211102,0.287993 -3.302002,0.48751 -1.091,0.199518 -2.7894,0.594595 -3.7741,0.878045 -0.9847,0.28346 -2.5312,0.8177 -3.4365,1.18714 -0.9053,0.36959 -2.437,1.08358 -3.4038,1.58691 -0.9668,0.50333 -2.4188,1.35385 -3.2266,1.88985 -0.8077,0.53614 -2.159,1.52874 -3.0029,2.20596 -0.844,0.67707 -2.3264,2.04701 -3.2944,3.04421 -0.96818,0.9972 -2.32393,2.5713 -3.01286,3.4978 -0.68894,0.9265 -1.56684,2.179 -1.95094,2.7833 -0.38409,0.6042 -1.18347,2.0874 -1.77631,3.296 -0.59284,1.2085 -1.31605,2.8471 -1.60727,3.6412 -0.29122,0.7941 -0.75016,2.3103 -1.01999,3.3692 -0.26983,1.059 -0.594315,2.5516 -0.72132,3.317 -0.126859,0.7654 -0.29781,2.1167 -0.379989,3.003 -0.08218,0.8862 -0.148691,2.3365 -0.147812,3.2227 7.32e-4,0.8863 0.0964,2.5013 0.212562,3.589 0.116165,1.0877 0.346746,2.6768 0.512425,3.5313 0.165678,0.8546 0.499804,2.2615 0.742834,3.1265 0.24288,0.865 0.74491,2.3413 1.11567,3.2804 0.37076,0.9392 0.96988,2.3009 1.33127,3.026 0.36138,0.7251 0.99246,1.8787 1.40219,2.5636 0.40987,0.6848 1.1927,1.8727 1.73969,2.6396 0.54699,0.767 1.62237,2.1183 2.38968,3.003 0.76747,0.8848 2.00437,2.1563 2.74867,2.8259 0.7443,0.6695 1.9489,1.6679 2.6767,2.2187 0.7277,0.5508 1.9502,1.3965 2.7166,1.8793 0.7663,0.4828 2.1469,1.2557 3.0679,1.7176 0.921,0.462 2.4163,1.1298 3.3229,1.4843 0.9066,0.3545 2.4902,0.8756 3.5193,1.1577 1.0289,0.2823 2.6288,0.6424 3.5554,0.8003 0.9265,0.1578 2.4097,0.3539 3.296002,0.4357 0.8862,0.0818 2.3035,0.1486 3.1495,0.1486 0.8459,0 2.2632,-0.0668 3.1494,-0.1486 0.8863,-0.0818 2.3695,-0.2779 3.296,-0.4357 0.9266,-0.1579 2.5265,-0.518 3.5554,-0.8003 1.0291,-0.2821 2.6305,-0.8101 3.5589,-1.1731 0.9283,-0.363 2.4596,-1.0539 3.4027,-1.5353 0.9431,-0.4814 2.3022,-1.2446 3.0203,-1.696 0.718,-0.4515 1.9345,-1.2947 2.7033,-1.8737 0.7687,-0.5791 2.2178,-1.844 3.2199,-2.8109 1.0021,-0.9668 2.3637,-2.417 3.0259,-3.2227 0.6621,-0.8057 1.677,-2.1698 2.2551,-3.0313 0.5782,-0.8615 1.5065,-2.4436 2.0628,-3.5157 0.5562,-1.0722 1.3132,-2.7225 1.6822,-3.6675 0.369,-0.9449 0.9019,-2.5599 1.1841,-3.589 0.2823,-1.0289 0.6423,-2.6289 0.8002,-3.5554 0.1578,-0.9266 0.354,-2.4098 0.4357,-3.296 0.0819,-0.8863 0.1487,-2.3035 0.1487,-3.1495 0,-0.846 -0.0668,-2.2633 -0.1487,-3.1495 -0.0817,-0.8863 -0.2779,-2.3695 -0.4357,-3.296 -0.1579,-0.9265 -0.5179,-2.5265 -0.8002,-3.5554 -0.2822,-1.0291 -0.8097,-2.6293 -1.1721,-3.5562 -0.3624,-0.9268 -1.0935,-2.5399 -1.6248,-3.5847 -0.5312,-1.0446 -1.4448,-2.6164 -2.0304,-3.4927 -0.5856,-0.8764 -1.5804,-2.2348 -2.2109,-3.0187 -0.6305,-0.7838 -1.7631,-2.042 -2.5173,-2.796 -0.7539,-0.7541 -2.078,-1.93832 -2.9424,-2.6318 -0.8645,-0.69348 -2.0991,-1.60829 -2.7436,-2.03296 -0.6446,-0.42467 -1.5674,-1.00651 -2.0509,-1.2929 -0.4834,-0.28653 -1.4392,-0.801 -2.124,-1.14319 -0.6849,-0.3422 -1.9691,-0.91336 -2.8539,-1.26903 -0.8848,-0.35568 -2.3779,-0.87029 -3.3182,-1.14363 -0.9404,-0.27321 -2.4247,-0.635319 -3.2987,-0.804806 -0.8739,-0.169341 -2.479,-0.402994 -3.5667,-0.51916 -1.0876,-0.116164 -2.8345,-0.203031 -3.8819,-0.192924 -1.0474,0.01 -2.4976,0.07442 -3.2227,0.142975 z m 6.4039,5.055055 c 0.7251,0.07895 1.7468,0.21709 2.2705,0.30704 0.5237,0.08994 1.5836,0.31978 2.3553,0.5108 0.7717,0.19088 2.0901,0.58566 2.9297,0.87732 0.8397,0.29151 2.2519,0.87468 3.1381,1.29584 0.8863,0.42115 2.2324,1.14466 2.9913,1.60771 0.759,0.46316 2.0114,1.31446 2.7833,1.89176 0.7718,0.5774 2.2613,1.9079 3.3101,2.9564 1.0485,1.0487 2.3707,2.5329 2.9379,3.2983 0.5674,0.7654 1.3467,1.8861 1.7319,2.4904 0.3853,0.6042 1.1186,1.9556 1.6296,3.003 0.5109,1.0474 1.166,2.5913 1.4556,3.431 0.2898,0.8397 0.6831,2.1581 0.874,2.9298 0.191,0.7717 0.4208,1.8315 0.5108,2.3552 0.0899,0.5237 0.2281,1.5455 0.307,2.2706 0.0788,0.7251 0.1435,2.2083 0.1435,3.296 0,1.0877 -0.0647,2.5708 -0.1435,3.296 -0.0789,0.7251 -0.2171,1.7468 -0.307,2.2705 -0.09,0.5237 -0.3198,1.5836 -0.5108,2.3553 -0.1909,0.7717 -0.5842,2.0901 -0.874,2.9297 -0.2896,0.8397 -0.9447,2.3837 -1.4556,3.4311 -0.511,1.0474 -1.2443,2.3987 -1.6296,3.003 -0.3852,0.6043 -1.1645,1.7249 -1.7319,2.4903 -0.5672,0.7654 -1.8894,2.2496 -2.9379,3.2983 -1.0488,1.0486 -2.533,2.3708 -3.2984,2.938 -0.7654,0.5673 -1.886,1.3466 -2.4903,1.7319 -0.6043,0.3853 -1.9556,1.1186 -3.003,1.6296 -1.0474,0.5109 -2.5914,1.166 -3.4311,1.4556 -0.8396,0.2898 -2.158,0.6831 -2.9297,0.874 -0.7717,0.191 -1.8316,0.4208 -2.3553,0.5108 -0.5237,0.0899 -1.5454,0.2281 -2.2705,0.307 -0.7252,0.0788 -2.1944,0.1439 -3.2651,0.1446 -1.0708,6e-4 -2.587,-0.068 -3.3693,-0.1525 -0.782302,-0.0845 -1.982802,-0.2561 -2.667602,-0.381 -0.6849,-0.1251 -2.0094,-0.447 -2.9436,-0.7153 -0.934,-0.2684 -2.3842,-0.7596 -3.2227,-1.0915 -0.8384,-0.3318 -2.2015,-0.9614 -3.0288,-1.3988 -0.8275,-0.4374 -2.1069,-1.1977 -2.8433,-1.6895 -0.7364,-0.4919 -1.8064,-1.263 -2.3776,-1.7137 -0.5713,-0.4506 -1.8297,-1.6152 -2.7967,-2.5876 -0.967,-0.9726 -2.2233,-2.3945 -2.7916,-3.1599 -0.5684,-0.7654 -1.34862,-1.886 -1.73388,-2.4903 -0.38527,-0.6043 -1.11859,-1.9556 -1.62954,-3.003 -0.51095,-1.0474 -1.16603,-2.5914 -1.45564,-3.4311 -0.28975,-0.8396 -0.68309,-2.158 -0.87396,-2.9297 -0.19102,-0.7717 -0.42085,-1.8316 -0.5108,-2.3553 -0.08994,-0.5237 -0.22809,-1.5454 -0.30704,-2.2705 -0.07882,-0.7252 -0.14342,-2.2083 -0.14342,-3.296 0,-1.0877 0.0646,-2.5709 0.14342,-3.296 0.07895,-0.7251 0.2171,-1.7469 0.30704,-2.2706 0.08995,-0.5237 0.31978,-1.5835 0.5108,-2.3552 0.19087,-0.7717 0.58566,-2.0901 0.87732,-2.9298 0.29151,-0.8397 0.87468,-2.2518 1.29583,-3.1381 0.42115,-0.8862 1.14467,-2.2323 1.60772,-2.9913 0.4632,-0.7589 1.31445,-2.0114 1.89175,-2.7832 0.5775,-0.7719 1.9079,-2.2614 2.9564,-3.3101 1.0487,-1.0485 2.5382,-2.379 3.3101,-2.9564 0.7718,-0.5773 1.9913,-1.4078 2.71,-1.84547 0.7187,-0.43771 1.834,-1.05955 2.4786,-1.38183 0.6445,-0.32227 1.7942,-0.83073 2.5546,-1.12986 0.7606,-0.29913 2.1449,-0.7632 3.0763,-1.03128 0.9315,-0.26807 2.2868,-0.59445 3.0119,-0.72541 0.7251,-0.13096 1.8128,-0.29356 2.4171,-0.36124 0.604202,-0.06768 2.087402,-0.13111 3.295902,-0.14092 1.2086,-0.0098 2.7906,0.04673 3.5158,0.12554 z"
     clip-rule="evenodd"
     fill-rule="evenodd" />
  <path
     id="path859"
     fill="#ffffff"
     d="m 106.72126,18.082827 c 0.7251,0.07895 1.7468,0.21709 2.2705,0.30704 0.5237,0.08994 1.5836,0.31978 2.3553,0.5108 0.7717,0.19088 2.0901,0.58566 2.9297,0.87732 0.8397,0.29151 2.2519,0.87468 3.1381,1.29584 0.8863,0.42115 2.2324,1.14466 2.9913,1.60771 0.759,0.46316 2.0114,1.31446 2.7833,1.89176 0.7718,0.5774 2.2613,1.9079 3.3101,2.9564 1.0485,1.0487 2.3707,2.5329 2.9379,3.2983 0.5674,0.7654 1.3467,1.8861 1.7319,2.4904 0.3853,0.6042 1.1186,1.9556 1.6296,3.003 0.5109,1.0474 1.166,2.5913 1.4556,3.431 0.2898,0.8397 0.6831,2.1581 0.874,2.9298 0.191,0.7717 0.4208,1.8315 0.5108,2.3552 0.0899,0.5237 0.2281,1.5455 0.307,2.2706 0.0788,0.7251 0.1435,2.2083 0.1435,3.296 0,1.0877 -0.0647,2.5708 -0.1435,3.296 -0.0789,0.7251 -0.2171,1.7468 -0.307,2.2705 -0.09,0.5237 -0.3198,1.5836 -0.5108,2.3553 -0.1909,0.7717 -0.5842,2.0901 -0.874,2.9297 -0.2896,0.8397 -0.9447,2.3837 -1.4556,3.4311 -0.511,1.0474 -1.2443,2.3987 -1.6296,3.003 -0.3852,0.6043 -1.1645,1.7249 -1.7319,2.4903 -0.5672,0.7654 -1.8894,2.2496 -2.9379,3.2983 -1.0488,1.0486 -2.533,2.3708 -3.2984,2.938 -0.7654,0.5673 -1.886,1.3466 -2.4903,1.7319 -0.6043,0.3853 -1.9556,1.1186 -3.003,1.6296 -1.0474,0.5109 -2.5914,1.166 -3.4311,1.4556 -0.8396,0.2898 -2.158,0.6831 -2.9297,0.874 -0.7717,0.191 -1.8316,0.4208 -2.3553,0.5108 -0.5237,0.0899 -1.5454,0.2281 -2.2705,0.307 -0.7252,0.0788 -2.1944,0.1439 -3.2651,0.1446 -1.0708,6e-4 -2.587,-0.068 -3.3693,-0.1525 -0.782302,-0.0845 -1.982802,-0.2561 -2.667602,-0.381 -0.6849,-0.1251 -2.0094,-0.447 -2.9436,-0.7153 -0.934,-0.2684 -2.3842,-0.7596 -3.2227,-1.0915 -0.8384,-0.3318 -2.2015,-0.9614 -3.0288,-1.3988 -0.8275,-0.4374 -2.1069,-1.1977 -2.8433,-1.6895 -0.7364,-0.4919 -1.8064,-1.263 -2.3776,-1.7137 -0.5713,-0.4506 -1.8297,-1.6152 -2.7967,-2.5876 -0.967,-0.9726 -2.2233,-2.3945 -2.7916,-3.1599 -0.5684,-0.7654 -1.34862,-1.886 -1.73388,-2.4903 -0.38527,-0.6043 -1.11859,-1.9556 -1.62954,-3.003 -0.51095,-1.0474 -1.16603,-2.5914 -1.45564,-3.4311 -0.28975,-0.8396 -0.68309,-2.158 -0.87396,-2.9297 -0.19102,-0.7717 -0.42085,-1.8316 -0.5108,-2.3553 -0.08994,-0.5237 -0.22809,-1.5454 -0.30704,-2.2705 -0.07882,-0.7252 -0.14342,-2.2083 -0.14342,-3.296 0,-1.0877 0.0646,-2.5709 0.14342,-3.296 0.07895,-0.7251 0.2171,-1.7469 0.30704,-2.2706 0.08995,-0.5237 0.31978,-1.5835 0.5108,-2.3552 0.19087,-0.7717 0.58566,-2.0901 0.87732,-2.9298 0.29151,-0.8397 0.87468,-2.2518 1.29583,-3.1381 0.42115,-0.8862 1.14467,-2.2323 1.60772,-2.9913 0.4632,-0.7589 1.31445,-2.0114 1.89175,-2.7832 0.5775,-0.7719 1.9079,-2.2614 2.9564,-3.3101 1.0487,-1.0485 2.5382,-2.379 3.3101,-2.9564 0.7718,-0.5773 1.9913,-1.4078 2.71,-1.84547 0.7187,-0.43771 1.834,-1.05955 2.4786,-1.38183 0.6445,-0.32227 1.7942,-0.83073 2.5546,-1.12986 0.7606,-0.29913 2.1449,-0.7632 3.0763,-1.03128 0.9315,-0.26807 2.2868,-0.59445 3.0119,-0.72541 0.7251,-0.13096 1.8128,-0.29356 2.4171,-0.36124 0.604202,-0.06768 2.087402,-0.13111 3.295902,-0.14092 1.2086,-0.0098 2.7906,0.04673 3.5158,0.12554 z"
     clip-rule="evenodd"
     fill-rule="evenodd" />
  <path
     transform="translate(66.260558,12.883997)"
     id="path861"
     mask="url(#path-1-inside-1_35_469)"
     fill="#000000"
     d="m 40.4607,5.19883 0.0541,-0.49706 -1e-4,-10e-6 z m 4.6258,0.81784 -0.1202,0.48535 1e-4,3e-5 z m 2.9297,0.87732 -0.164,0.47232 10e-5,3e-5 z m 6.1294,2.90355 0.2605,-0.4268 -1e-4,-3e-5 z m 2.7833,1.89176 0.2995,-0.4004 v 0 z m 3.3101,2.9564 0.3535,-0.3535 v -10e-5 z m 2.9379,3.2983 -0.4017,0.2977 v 10e-5 z m 4.8171,8.9244 -0.4726,0.163 v 10e-5 z m 0.874,2.9298 -0.4854,0.12 v 10e-5 z m 0.8178,4.6258 0.4971,-0.054 v -10e-5 z m 0,6.592 0.4971,0.0541 V 41.07 Z m -0.8178,4.6258 -0.4854,-0.1202 v 1e-4 z m -0.874,2.9297 -0.4726,-0.1631 v 10e-5 z m -4.8171,8.9244 -0.4017,-0.2978 v 1e-4 z m -2.9379,3.2983 0.3535,0.3536 v -10e-5 z m -3.2984,2.938 -0.2977,-0.4017 v 0 z m -8.9244,4.8171 -0.163,-0.4727 -1e-4,1e-4 z m -2.9297,0.874 -0.1201,-0.4854 h -1e-4 z m -4.6258,0.8178 0.054,0.4971 h 1e-4 z m -3.2651,0.1446 3e-4,0.5 v 0 z m -3.3693,-0.1525 0.0538,-0.4971 v 0 z m -2.6676,-0.381 -0.0899,0.4918 10e-5,1e-4 z m -2.9436,-0.7153 -0.1381,0.4805 h 10e-5 z m -3.2227,-1.0915 0.184,-0.4649 v 0 z m -3.0288,-1.3988 0.2337,-0.4421 h -10e-5 z m -2.8433,-1.6895 -0.2778,0.4158 h 10e-5 z m -2.3776,-1.7137 0.3098,-0.3925 -10e-5,-1e-4 z m -2.7967,-2.5876 -0.3546,0.3525 10e-5,1e-4 z m -7.61066,-12.0843 0.47268,-0.163 -3e-5,-10e-5 z m -0.87396,-2.9297 0.48537,-0.1201 -2e-5,-1e-4 z M 4.64354,41.016 4.14646,41.07 l 10e-6,10e-5 z m 0,-6.592 -0.49707,-0.0541 -10e-6,10e-5 z m 0.81784,-4.6258 0.48535,0.1201 2e-5,-10e-5 z m 0.87732,-2.9298 0.47232,0.1641 2e-5,-10e-5 z M 9.24225,20.739 8.81546,20.4786 h -4e-5 z M 11.134,17.9558 10.7336,17.6562 v 1e-4 z m 2.9564,-3.3101 -0.3535,-0.3536 -10e-5,10e-5 z m 3.3101,-2.9564 -0.2995,-0.4004 h -10e-5 z m 7.7432,-4.35716 -0.183,-0.46531 v 10e-6 z M 28.22,6.30086 28.0817,5.82036 v 10e-6 z M 40.4065,5.69589 c 0.7184,0.07822 1.7295,0.21506 2.2401,0.30276 L 42.8159,5.01308 C 42.2791,4.92089 41.2466,4.78146 40.5148,4.70177 Z m 2.2401,0.30276 c 0.5075,0.08717 1.5547,0.31399 2.3197,0.50337 l 0.2403,-0.9707 C 44.4283,5.33866 43.3558,5.10581 42.8159,5.01308 Z m 2.3198,0.5034 c 0.7553,0.1868 2.0589,0.57705 2.8858,0.86426 L 48.1803,6.42167 C 47.3278,6.12557 45.9947,5.72625 45.2065,5.5313 Z m 2.8859,0.86429 c 0.8207,0.28494 2.2159,0.86097 3.0874,1.27509 L 51.3689,7.73822 C 50.4679,7.31004 49.0388,6.71973 48.1802,6.42165 Z m 3.0874,1.27509 c 0.8721,0.41444 2.2028,1.1298 2.9455,1.58297 L 54.406,9.37071 C 53.6308,8.89775 52.2693,8.16609 51.3689,7.73822 Z m 2.9454,1.58287 c 0.7445,0.4544 1.984,1.2967 2.7443,1.8654 l 0.599,-0.8008 C 56.445,10.7029 55.1795,9.84276 54.4061,9.37074 Z m 2.7443,1.8653 c 0.7454,0.5578 2.2162,1.87 3.256,2.9097 l 0.7071,-0.7072 c -1.0576,-1.0574 -2.5659,-2.406 -3.3641,-3.0032 z m 3.256,2.9096 c 1.0396,1.0398 2.343,2.5046 2.8898,3.2425 l 0.8034,-0.5953 C 62.991,16.8535 61.65,15.3498 60.5925,14.2922 Z m 2.8898,3.2426 c 0.5625,0.7588 1.3347,1.8695 1.712,2.4614 l 0.8432,-0.5376 c -0.3932,-0.6168 -1.1796,-1.7473 -1.7518,-2.5193 z m 1.712,2.4614 c 0.3708,0.5815 1.0947,1.9139 1.6018,2.9534 l 0.8988,-0.4385 c -0.5149,-1.0553 -1.2576,-2.4256 -1.6574,-3.0525 z m 1.6018,2.9534 c 0.5046,1.0344 1.1511,2.5592 1.4324,3.3748 l 0.9453,-0.326 C 68.1688,25.8417 67.505,24.2785 66.9878,23.2181 Z m 1.4324,3.3749 c 0.2854,0.8272 0.6743,2.1312 0.8612,2.8867 l 0.9708,-0.2401 c -0.1949,-0.7878 -0.5926,-2.1206 -0.8867,-2.9728 z m 0.8612,2.8868 c 0.1894,0.7651 0.4162,1.8122 0.5034,2.3198 l 0.9856,-0.1693 C 69.7789,31.5289 69.546,30.4564 69.3533,29.678 Z m 0.5034,2.3198 c 0.0877,0.5106 0.2245,1.5216 0.3028,2.24 l 0.9941,-0.1082 C 70.1032,33.638 69.9638,32.6056 69.8716,32.0688 Z m 0.3028,2.2399 c 0.0761,0.7008 0.1405,2.1646 0.1405,3.242 h 1 c 0,-1.098 -0.0649,-2.6006 -0.1464,-3.35 z m 0.1405,3.242 c 0,1.0774 -0.0644,2.5411 -0.1405,3.2419 l 0.9941,0.1081 c 0.0815,-0.7494 0.1464,-2.2521 0.1464,-3.35 z m -0.1405,3.2418 c -0.0783,0.7184 -0.2151,1.7295 -0.3028,2.2401 l 0.9856,0.1693 c 0.0922,-0.5368 0.2316,-1.5693 0.3113,-2.3011 z m -0.3028,2.2401 c -0.0872,0.5075 -0.314,1.5547 -0.5034,2.3197 l 0.9707,0.2403 c 0.1927,-0.7783 0.4256,-1.8509 0.5183,-2.3907 z m -0.5034,2.3198 c -0.1869,0.7556 -0.5758,2.0596 -0.8612,2.8867 l 0.9453,0.3262 c 0.2941,-0.8521 0.6918,-2.1849 0.8867,-2.9728 z m -0.8612,2.8868 c -0.2813,0.8156 -0.9278,2.3404 -1.4324,3.3749 l 0.8988,0.4384 c 0.5172,-1.0603 1.181,-2.6235 1.4789,-3.4872 z m -1.4324,3.3749 c -0.5071,1.0394 -1.231,2.3718 -1.6018,2.9534 l 0.8432,0.5376 c 0.3998,-0.627 1.1425,-1.9973 1.6574,-3.0526 z m -1.6018,2.9534 c -0.3773,0.5918 -1.1495,1.7025 -1.712,2.4613 l 0.8034,0.5955 c 0.5722,-0.7719 1.3586,-1.9025 1.7518,-2.5192 z m -1.712,2.4614 c -0.5468,0.7379 -1.8502,2.2027 -2.8898,3.2425 l 0.7071,0.707 c 1.0575,-1.0576 2.3985,-2.5612 2.9861,-3.3541 z m -2.8898,3.2424 c -1.0398,1.0397 -2.5046,2.343 -3.2425,2.8899 l 0.5954,0.8034 c 0.7929,-0.5876 2.2965,-1.9286 3.3542,-2.9861 z m -3.2425,2.8899 c -0.7589,0.5625 -1.8696,1.3347 -2.4614,1.712 l 0.5376,0.8432 c 0.6167,-0.3932 1.7473,-1.1796 2.5192,-1.7518 z m -2.4614,1.712 c -0.5816,0.3708 -1.914,1.0947 -2.9534,1.6018 l 0.4384,0.8987 c 1.0553,-0.5148 2.4256,-1.2575 3.0526,-1.6573 z m -2.9534,1.6018 c -1.0345,0.5046 -2.5593,1.151 -3.3749,1.4323 l 0.3261,0.9454 c 0.8637,-0.2979 2.4269,-0.9617 3.4872,-1.479 z m -3.375,1.4324 c -0.8271,0.2854 -2.1311,0.6743 -2.8867,0.8612 l 0.2401,0.9707 c 0.7879,-0.1948 2.1207,-0.5926 2.9728,-0.8866 z m -2.8868,0.8612 c -0.765,0.1894 -1.8122,0.4162 -2.3197,0.5034 l 0.1693,0.9855 c 0.5398,-0.0927 1.6124,-0.3255 2.3907,-0.5182 z m -2.3197,0.5034 c -0.5106,0.0877 -1.5217,0.2245 -2.2401,0.3027 l 0.1083,0.9942 c 0.7318,-0.0797 1.7643,-0.2192 2.3011,-0.3114 z m -2.24,0.3027 c -0.7011,0.0762 -2.1511,0.141 -3.2113,0.1417 l 6e-4,1 c 1.0812,-8e-4 2.5697,-0.0661 3.3188,-0.1475 z m -3.2113,0.1417 c -1.0588,6e-4 -2.556,-0.0676 -3.3152,-0.1496 l -0.1075,0.9942 c 0.8053,0.087 2.3404,0.156 3.4233,0.1554 z m -3.3152,-0.1496 c -0.7718,-0.0834 -1.9602,-0.2533 -2.6317,-0.3758 l -0.1795,0.9838 c 0.6982,0.1273 1.9107,0.3005 2.7037,0.3862 z m -2.6316,-0.3758 c -0.6637,-0.1212 -1.9714,-0.4385 -2.8953,-0.704 l -0.2761,0.9611 c 0.9443,0.2713 2.2857,0.5977 2.9917,0.7266 z m -2.8953,-0.704 C 27.4336,68.3921 25.9988,67.906 25.1764,67.5805 l -0.3681,0.9298 c 0.8547,0.3383 2.3204,0.8346 3.2687,1.1071 z m -3.1768,-1.0758 c -0.8207,-0.3248 -2.1672,-0.9467 -2.9791,-1.376 l -0.4674,0.8841 c 0.8428,0.4456 2.2225,1.0829 3.0785,1.4217 z m -2.9792,-1.376 C 21.384,65.7747 20.1194,65.0231 19.3979,64.5413 l -0.5553,0.8316 c 0.7513,0.5018 2.0455,1.2707 2.8873,1.7157 z M 19.398,64.5413 c -0.7278,-0.4861 -1.7867,-1.2494 -2.3455,-1.6904 l -0.6195,0.785 c 0.5835,0.4604 1.6645,1.2393 2.4095,1.737 z m -2.3456,-1.6905 c -0.5473,-0.4317 -1.7889,-1.5793 -2.7519,-2.5476 l -0.709,0.7052 c 0.971,0.9764 2.2463,2.158 2.8416,2.6275 z M 14.3006,60.3032 C 13.3438,59.341 12.1052,57.9376 11.5558,57.1978 l -0.8029,0.5962 c 0.5874,0.791 1.8613,2.2315 2.8385,3.2143 z M 11.5558,57.1978 C 10.9923,56.439 10.2193,55.3284 9.84212,54.7368 l -0.8432,0.5376 c 0.39332,0.6169 1.18068,1.7475 1.75398,2.5196 z M 9.84212,54.7368 C 9.47133,54.1552 8.74743,52.8228 8.24036,51.7834 L 7.3416,52.2218 c 0.51482,1.0553 1.25758,2.4256 1.65732,3.0526 z M 8.24036,51.7834 C 7.73573,50.7489 7.08933,49.2241 6.80802,48.4085 l -0.94536,0.3261 c 0.2979,0.8637 0.96167,2.4269 1.47894,3.4872 z M 6.80799,48.4084 C 6.52255,47.5813 6.13364,46.2773 5.94675,45.5217 l -0.97074,0.2401 c 0.19486,0.7879 0.59261,2.1207 0.88668,2.9728 z M 5.94673,45.5216 C 5.75735,44.7566 5.53053,43.7094 5.44337,43.2019 L 4.4578,43.3712 c 0.09272,0.5398 0.32557,1.6124 0.51823,2.3907 z M 5.44337,43.2019 C 5.35567,42.6913 5.21882,41.6802 5.1406,40.9618 l -0.99413,0.1083 c 0.07969,0.7318 0.21914,1.7643 0.31133,2.3011 z m -0.30276,-2.24 C 5.06444,40.2611 5.00012,38.7974 5.00012,37.72 h -1 c 0,1.0979 0.06489,2.6006 0.14634,3.35 z M 5.00012,37.72 c 0,-1.0774 0.06432,-2.5412 0.14049,-3.242 L 4.14646,34.37 C 4.06501,35.1194 4.00012,36.6221 4.00012,37.72 Z M 5.1406,34.4781 c 0.07822,-0.7184 0.21507,-1.7294 0.30277,-2.24 L 4.4578,32.0688 C 4.36561,32.6056 4.22616,33.638 4.14647,34.3699 Z m 0.30277,-2.24 C 5.53053,31.7305 5.75735,30.6834 5.94673,29.9183 L 4.97603,29.678 C 4.78337,30.4564 4.55052,31.5289 4.4578,32.0688 Z M 5.94675,29.9182 C 6.13355,29.163 6.52381,27.8593 6.81102,27.0325 L 5.86638,26.7044 C 5.57028,27.5568 5.17096,28.89 4.97601,29.6781 Z m 0.86429,-2.8858 c 0.28495,-0.8208 0.86097,-2.216 1.27509,-3.0875 L 7.18293,23.5157 C 6.75474,24.4168 6.16444,25.8458 5.86636,26.7044 Z M 8.08613,23.9449 C 8.50058,23.0728 9.21594,21.7422 9.66908,20.9995 L 8.81542,20.4786 c -0.47295,0.7752 -1.20463,2.1368 -1.63249,3.0371 z m 1.58292,-2.9454 c 0.45435,-0.7445 1.29665,-1.984 1.86535,-2.7443 l -0.8008,-0.5989 c -0.586,0.7834 -1.44612,2.0489 -1.91814,2.8223 z m 1.86535,-2.7442 c 0.5577,-0.7455 1.8699,-2.2163 2.9096,-3.2561 l -0.7072,-0.707 c -1.0574,1.0576 -2.406,2.5658 -3.0032,3.364 z m 2.9096,-3.256 c 1.0398,-1.0397 2.5105,-2.3519 3.256,-2.9097 l -0.5991,-0.8007 c -0.7982,0.5972 -2.3064,1.9458 -3.364,3.0032 z m 3.2559,-2.9096 c 0.761,-0.5692 1.9673,-1.3905 2.6707,-1.8188 L 19.8504,9.41679 c -0.734,0.44704 -1.9666,1.28661 -2.7494,1.87211 z m 2.6707,-1.8188 C 21.0793,9.83921 22.1824,9.22434 22.8127,8.90921 L 22.3655,8.01479 c -0.6589,0.32942 -1.7865,0.95824 -2.5151,1.402 z m 2.4421,-1.36169 c 0.6297,-0.31484 1.7656,-0.81737 2.514,-1.11178 l -0.366,-0.93059 c -0.7725,0.30385 -1.9358,0.81824 -2.5952,1.14795 z m 2.514,-1.11177 C 26.0702,7.50502 27.4393,7.04585 28.3582,6.78135 L 28.0817,5.82037 C 27.1378,6.09202 25.7383,6.561 24.9607,6.86683 Z m 3.0315,-1.01608 c 0.92,-0.26475 2.2583,-0.58668 2.9626,-0.71387 L 31.143,5.08341 C 30.397,5.21814 29.0247,5.54897 28.0817,5.82036 Z M 31.3208,6.06749 C 32.0371,5.93811 33.1135,5.77731 33.7046,5.7111 L 33.5933,4.71732 C 32.9759,4.78647 31.8769,4.95087 31.143,5.08341 Z M 33.7046,5.7111 C 34.2823,5.64641 35.7444,5.58305 36.949,5.57327 L 36.9409,4.5733 C 35.7284,4.58315 34.2242,4.64666 33.5933,4.71732 Z M 36.949,5.57327 C 38.1489,5.56353 39.7092,5.6201 40.4066,5.6959 L 40.5147,4.70176 C 39.7619,4.61994 38.158,4.56342 36.9409,4.5733 Z m -2.8922,-5.429495 -0.0941,-0.995561 -2e-4,1.9e-5 z m -3.302,0.48751 0.1799,0.983685 v 0 z M 23.5442,2.69647 23.1664,1.7706 l -2e-4,5e-5 z m -6.6304,3.47676 -0.5529,-0.83324 -10e-5,7e-5 z m -3.0029,2.20596 0.6257,0.78 10e-5,-7e-5 z m -3.2944,3.04421 0.7175,0.6965 v 0 z m -10.08869,19.9045 -0.986511,-0.1637 -3e-5,2e-4 z M 8.61197e-6,37.5536 1.00001,37.5528 v -2e-4 z M 0.724996,44.6739 1.70672,44.4835 h -1e-5 z M 1.46783,47.8004 2.4306,47.53 l -5e-5,-1e-4 z m 3.84913,8.87 -0.85814,0.5134 8e-5,1e-4 z M 7.05665,59.31 7.87082,58.7293 h -5e-5 z m 2.38968,3.003 -0.75543,0.6552 h 1e-5 z m 2.74867,2.8259 -0.6688,0.7434 1e-4,1e-4 z m 5.3933,4.098 0.5331,-0.8461 h -10e-5 z m 3.0679,1.7176 0.4484,-0.8939 h -10e-5 z m 6.8422,2.642 0.2645,-0.9643 -10e-5,-1e-4 z m 3.5554,0.8003 -0.168,0.9858 h 10e-5 z m 3.296,0.4357 0.092,-0.9958 h -2e-4 z m 6.2989,0 -0.0918,-0.9958 h -2e-4 z m 3.296,-0.4357 0.1679,0.9858 h 10e-5 z m 3.5554,-0.8003 -0.2644,-0.9644 -2e-4,1e-4 z m 3.5589,-1.1731 0.3642,0.9314 v 0 z M 72.4312,51.0703 71.4997,50.7065 v 0 z m 1.1841,-3.589 -0.9644,-0.2646 v 2e-4 z m 0.8002,-3.5554 0.9858,0.168 10e-5,-2e-4 z m 0.4357,-3.296 -0.9958,-0.092 v 2e-4 z m 0,-6.299 -0.9958,0.0918 v 2e-4 z m -0.4357,-3.296 0.9859,-0.1679 -10e-5,-10e-5 z m -0.8002,-3.5554 -0.9644,0.2644 v 10e-5 z m -2.7969,-7.1409 -0.8914,0.4533 v 0 z m -2.0304,-3.4927 0.8315,-0.5556 v 0 z m -4.7282,-5.8147 -0.7071,0.707 1e-4,2e-4 z m -7.7369,-5.95766 -0.5098,0.86024 1e-4,1.2e-4 z m -8.2961,-3.55585 0.2791,-0.960254 -1e-4,-4e-5 z m -3.2987,-0.804806 0.1904,-0.98171 -1e-4,-3e-5 z M 37.2795,7.99997e-4 37.289,1.00075 h 2e-4 z M 33.9625,-0.851767 c -0.7644,0.072424 -2.2812,0.29702 -3.3876,0.499369 L 30.9347,1.61497 C 32.0101,1.41828 33.4653,1.2043 34.1511,1.13932 Z m -3.3876,0.499365 C 29.454,-0.147413 27.7231,0.255006 26.7041,0.548354 L 27.2573,2.47031 C 28.2076,2.19675 29.8736,1.80902 30.9347,1.61497 Z M 26.7041,0.548354 C 25.6867,0.841225 24.1063,1.38703 23.1664,1.7706 L 23.922,3.62234 C 24.7927,3.26703 26.3053,2.74435 27.2573,2.47031 Z M 23.1662,1.77065 c -0.9367,0.38244 -2.4964,1.10972 -3.4876,1.62573 l 0.9236,1.774 c 0.9424,-0.49066 2.4461,-1.19134 3.32,-1.54809 z m -3.4876,1.62573 c -0.9944,0.51769 -2.4772,1.38589 -3.3177,1.94361 l 1.1059,1.66647 c 0.775,-0.51428 2.1961,-1.3471 3.1354,-1.83608 z M 16.3608,5.34006 C 15.5254,5.8946 14.1498,6.9053 13.285,7.59926 l 1.2517,1.55986 c 0.8231,-0.66047 2.1501,-1.63497 2.9302,-2.15273 z m -3.0757,2.25913 c -0.8838,0.70905 -2.397,2.1087 -3.38615,3.12761 l 1.43505,1.3931 c 0.9468,-0.9754 2.3986,-2.31563 3.2026,-2.96071 z M 9.89895,10.7268 c -0.9927,1.0226 -2.37813,2.6299 -3.09779,3.5977 l 1.60495,1.1934 c 0.65821,-0.8852 1.98429,-2.426 2.92789,-3.398 z m -3.09779,3.5977 c -0.69586,0.9359 -1.5898,2.2102 -1.9924,2.8435 l 1.68788,1.0729 c 0.3656,-0.5752 1.22746,-1.8058 1.90947,-2.723 z m -1.9924,2.8435 c -0.414,0.6514 -1.23255,2.1738 -1.83017,3.392 l 1.7956,0.8809 c 0.58806,-1.1988 1.36827,-2.6428 1.72245,-3.2 z M 2.97859,20.56 c -0.6004,1.224 -1.34026,2.8974 -1.64833,3.7374 L 3.20798,24.986 C 3.48234,24.2378 4.18891,22.634 4.77419,21.4409 Z M 1.33026,24.2974 C 1.02452,25.1311 0.556028,26.6811 0.280095,27.764 L 2.21817,28.2579 C 2.4819,27.2228 2.93128,25.7405 3.20798,24.986 Z M 0.280095,27.764 c -0.27428137,1.0764 -0.605718,2.5982 -0.738796,3.4002 l 1.973021,0.3274 c 0.12093,-0.7288 0.43847,-2.1922 0.70385,-3.2337 z m -0.738826,3.4004 c -0.131298,0.7921 -0.305106,2.1675 -0.389177,3.0741 L 1.14355,34.4232 C 1.22384,33.5574 1.39193,32.23 1.51435,31.4914 Z m -0.389177,3.0741 c -0.085045,0.9172 -0.152992,2.3986 -0.152083,3.3161 l 2.000001,-0.002 c -8.5e-4,-0.8549 0.06422,-2.274 0.14354,-3.1294 z m -0.152083,3.316 c 7.67e-4,0.9284 0.099142,2.5794 0.218217,3.6943 L 1.20692,41.0364 C 1.09366,39.976 1.00071,38.3968 1.00001,37.5528 Z m 0.218217,3.6943 c 0.118451,1.1091 0.35281,2.7271 0.525054,3.6154 L 1.70671,44.4835 C 1.5476,43.6629 1.3208,42.1027 1.20692,41.0364 Z m 0.525048,3.6154 c 0.1710449,0.8823 0.511573,2.3159 0.761827,3.2066 L 2.43055,47.5299 C 2.19476,46.6906 1.86703,45.3105 1.70672,44.4835 Z m 0.761785,3.2065 C 0.758187,48.9722 1.27156,50.4809 1.65336,51.448 L 3.51364,50.7136 C 3.15391,49.8024 2.66322,48.3585 2.4306,47.53 Z M 1.65336,51.448 c 0.37889,0.9598 0.98952,2.3487 1.3664,3.1049 L 4.80977,53.6608 C 4.46388,52.9667 3.87626,51.6321 3.51364,50.7136 Z m 1.3664,3.1049 c 0.37268,0.7478 1.01603,1.9238 1.43906,2.6309 L 6.1751,56.157 C 5.77867,55.4944 5.15987,54.3632 4.80977,53.6608 Z m 1.43914,2.631 c 0.42576,0.7114 1.22374,1.9218 1.78363,2.7068 L 7.87077,58.7293 C 7.33669,57.9805 6.569,56.8151 6.17502,56.1568 Z m 1.78358,2.7067 c 0.56916,0.7981 1.66512,2.1745 2.44842,3.0776 l 1.5109,-1.3104 C 9.45044,60.7916 8.39564,59.4653 7.87082,58.7293 Z m 2.44843,3.0776 c 0.79013,0.911 2.05579,2.2129 2.83529,2.9141 l 1.3376,-1.4868 c -0.709,-0.6379 -1.9173,-1.8791 -2.6621,-2.7377 z m 2.83539,2.9142 c 0.7633,0.6866 1.9896,1.7032 2.7419,2.2726 l 1.2069,-1.5948 C 14.7719,66.028 13.589,65.0478 12.8638,64.3954 Z m 2.7419,2.2726 c 0.7503,0.5679 1.9963,1.4298 2.7871,1.928 l 1.066,-1.6922 c -0.7421,-0.4675 -1.941,-1.2969 -2.6462,-1.8306 z m 2.787,1.928 c 0.7972,0.5023 2.2066,1.2909 3.1527,1.7653 l 0.8966,-1.7877 c -0.8959,-0.4493 -2.2478,-1.2064 -2.9831,-1.6698 z m 3.1526,1.7653 c 0.947,0.4751 2.4704,1.1556 3.4072,1.5219 l 0.7283,-1.8627 c -0.8765,-0.3427 -2.3437,-0.9979 -3.2387,-1.4469 z m 3.4072,1.5219 c 0.942,0.3683 2.5591,0.9002 3.619,1.1907 l 0.5288,-1.9288 c -0.9984,-0.2737 -2.5484,-0.784 -3.4195,-1.1246 z m 3.6188,1.1907 c 1.0566,0.2899 2.689,0.6576 3.652,0.8217 l 0.336,-1.9716 c -0.8901,-0.1517 -2.4576,-0.5042 -3.4589,-0.7788 z m 3.6521,0.8217 c 0.9503,0.1618 2.4589,0.3614 3.372,0.4456 l 0.1837,-1.9915 c -0.8593,-0.0793 -2.3171,-0.272 -3.22,-0.4257 z m 3.3719,0.4456 c 0.9154,0.0846 2.3634,0.1529 3.2415,0.1529 v -2 c -0.8139,0 -2.2004,-0.0652 -3.0575,-0.1444 z m 3.2415,0.1529 c 0.8781,0 2.3261,-0.0683 3.2414,-0.1529 l -0.184,-1.9915 c -0.8571,0.0792 -2.2436,0.1444 -3.0574,0.1444 z m 3.2413,-0.1529 c 0.9132,-0.0842 2.4217,-0.2838 3.372,-0.4456 L 43.7769,73.411 c -0.9029,0.1537 -2.3607,0.3464 -3.22,0.4257 z m 3.3721,-0.4456 c 0.963,-0.1641 2.5954,-0.5318 3.652,-0.8217 l -0.5292,-1.9287 c -1.0012,0.2746 -2.5687,0.6271 -3.4588,0.7788 z m 3.6518,-0.8217 c 1.0606,-0.2907 2.6955,-0.8295 3.6587,-1.2061 l -0.7283,-1.8627 c -0.8937,0.3494 -2.4617,0.8665 -3.4592,1.14 z m 3.6587,-1.2061 c 0.961,-0.3758 2.5224,-1.0806 3.4931,-1.576 l -0.9092,-1.7814 c -0.9155,0.4673 -2.4166,1.1445 -3.3122,1.4947 z m 3.4931,-1.576 c 0.9634,-0.4918 2.3493,-1.2695 3.0979,-1.7401 l -1.0645,-1.6932 c -0.6876,0.4323 -2.0199,1.1809 -2.9426,1.6519 z m 3.0979,-1.7401 c 0.7448,-0.4683 1.9844,-1.3278 2.7727,-1.9216 l -1.2033,-1.5975 c -0.7493,0.5644 -1.9425,1.3912 -2.6339,1.8259 z m 2.7727,-1.9216 c 0.812,-0.6117 2.2929,-1.9061 3.3126,-2.8899 l -1.3886,-1.4393 c -0.9846,0.9498 -2.4018,2.1852 -3.1273,2.7317 z m 3.3126,-2.8899 c 1.0213,-0.9853 2.4111,-2.4641 3.1041,-3.3075 l -1.5451,-1.2698 c -0.6312,0.768 -1.9647,2.1896 -2.9476,3.138 z m 3.1041,-3.3075 c 0.6825,-0.8305 1.7167,-2.2205 2.313,-3.1089 l -1.6607,-1.1146 c -0.5601,0.8346 -1.5557,2.1728 -2.1974,2.9537 z m 2.313,-3.1089 c 0.6021,-0.8972 1.5492,-2.5123 2.12,-3.6125 l -1.7753,-0.9211 c -0.5416,1.0441 -1.4511,2.5932 -2.0054,3.419 z m 2.12,-3.6125 c 0.5696,-1.0979 1.3421,-2.7807 1.7261,-3.7643 l -1.863,-0.7275 c -0.3539,0.9065 -1.0955,2.5243 -1.6384,3.5707 z m 1.7261,-3.7642 c 0.3823,-0.979 0.9261,-2.6273 1.217,-3.6884 l -1.9288,-0.5288 c -0.2734,0.9971 -0.7955,2.5788 -1.1512,3.4896 z m 1.2169,-3.6882 c 0.2899,-1.0567 0.6576,-2.689 0.8217,-3.652 l -1.9715,-0.336 c -0.1517,0.89 -0.5042,2.4576 -0.7789,3.4588 z m 0.8218,-3.6522 c 0.1618,-0.9502 0.3613,-2.4588 0.4456,-3.372 l -1.9916,-0.1836 c -0.0792,0.8593 -0.2719,2.3171 -0.4257,3.2199 z m 0.4456,-3.3718 c 0.0845,-0.9154 0.1529,-2.3634 0.1529,-3.2415 h -2 c 0,0.8138 -0.0653,2.2004 -0.1445,3.0575 z m 0.1529,-3.2415 c 0,-0.8781 -0.0684,-2.3261 -0.1529,-3.2415 l -1.9916,0.184 c 0.0792,0.8571 0.1445,2.2437 0.1445,3.0575 z M 75.847,34.239 c -0.0843,-0.9131 -0.2838,-2.4217 -0.4456,-3.372 l -1.9717,0.3358 c 0.1538,0.9028 0.3465,2.3606 0.4257,3.2199 z m -0.4457,-3.3721 c -0.1641,-0.963 -0.5318,-2.5954 -0.8217,-3.652 l -1.9287,0.5291 c 0.2747,1.0013 0.6272,2.5688 0.7789,3.4589 z m -0.8216,-3.6518 c -0.2908,-1.0606 -0.8291,-2.6943 -1.2051,-3.6559 l -1.8627,0.7283 c 0.3488,0.892 0.8655,2.4588 1.139,3.4564 z m -1.2051,-3.6559 c -0.3762,-0.9619 -1.1213,-2.605 -1.6649,-3.6739 l -1.7827,0.9066 c 0.5191,1.0206 1.2362,2.6038 1.5849,3.4956 z m -1.6648,-3.6738 c -0.5472,-1.076 -1.4805,-2.6824 -2.0903,-3.5951 l -1.6629,1.1112 c 0.5612,0.84 1.4552,2.3771 1.9704,3.3904 z m -2.0903,-3.5951 c -0.6012,-0.8997 -1.6133,-2.2819 -2.2632,-3.0898 l -1.5584,1.2535 c 0.6111,0.7598 1.5886,2.0943 2.1587,2.9475 z M 67.3563,13.2005 C 66.702,12.3869 65.545,11.102 64.7669,10.324 l -1.4141,1.4144 c 0.7301,0.7299 1.8385,1.9614 2.4451,2.7156 z M 64.767,10.3242 C 63.9862,9.54323 62.6349,8.33477 61.7431,7.61938 l -1.2515,1.56004 c 0.8371,0.67157 2.1339,1.83148 2.8611,2.55878 z M 61.7431,7.61938 C 60.8639,6.914 59.603,5.97881 58.924,5.5314 l -1.1004,1.67009 c 0.61,0.40192 1.8184,1.29636 2.668,1.97793 z M 58.924,5.5314 C 58.2707,5.10098 57.3338,4.51006 56.8326,4.21319 L 55.8132,5.9339 c 0.4658,0.27589 1.3746,0.84867 2.0104,1.26759 z M 56.8328,4.2133 C 56.3231,3.91115 55.345,3.38517 54.6458,3.0358 l -0.8939,1.78909 c 0.6705,0.33503 1.6041,0.83798 2.0612,1.10889 z M 54.6458,3.0358 C 53.9319,2.67904 52.6222,2.09695 51.718,1.73348 l -0.746,1.85568 c 0.8654,0.34787 2.1242,0.90809 2.7799,1.23573 z M 51.718,1.73348 C 50.8016,1.36513 49.2771,0.839779 48.3059,0.557436 L 47.7476,2.47793 c 0.9094,0.26436 2.3712,0.76823 3.2244,1.11123 z M 48.3058,0.557396 C 47.3391,0.276528 45.8251,-0.0930184 44.9185,-0.268826 L 44.5378,1.69459 c 0.8413,0.16317 2.296,0.51785 3.2099,0.78338 z m -3.3874,-0.826252 c -0.9072,-0.175779 -2.541,-0.413238 -3.6508,-0.531765 L 41.0553,1.18807 c 1.0655,0.1138 2.6419,0.34365 3.4826,0.50655 z M 41.2676,-0.800621 C 40.1432,-0.92071 38.3577,-1.00965 37.2699,-0.999153 l 0.0193,1.999903 c 1.007,-0.009714 2.7151,0.07508 3.7661,0.18732 z M 37.27,-0.999155 c -1.0647,0.010126 -2.545,0.075292 -3.3073,0.147369 L 34.1509,1.13934 C 34.8388,1.0743 36.259,1.01055 37.289,1.00075 Z" />
  <path
     id="path863"
     fill="#c7ccd0"
     d="m 90.272158,29.477097 c -0.8326,-0.8977 -1.1356,-1.3315 -1.149,-1.6458 -0.01,-0.2347 -0.0172,-0.4471 -0.0159,-0.472 0.0013,-0.0248 0.1555,-0.1987 0.3426,-0.3861 0.1873,-0.1873 0.4818,-0.367 0.6548,-0.3991 0.1729,-0.0322 0.4487,-0.0157 0.6132,0.0366 0.1643,0.0522 0.6672,0.4979 1.1173,0.9902 0.4499,0.4925 0.9399,1.1107 1.0888,1.374 0.1843,0.3259 0.2263,0.6182 0.1314,0.9166 -0.0877,0.2762 -0.2892,0.5076 -0.5447,0.6259 -0.2229,0.1032 -0.5634,0.1856 -0.7565,0.1831 -0.2652,-0.0034 -0.6272,-0.3023 -1.482,-1.2234 z" />
  <path
     id="path865"
     fill="#c7ccd0"
     d="m 82.129658,39.233897 c -1.1059,-0.5255 -1.548,-0.8163 -1.6769,-1.1032 -0.0961,-0.2143 -0.1815,-0.4089 -0.1895,-0.4326 -0.008,-0.0235 0.0709,-0.2421 0.1753,-0.4855 0.1046,-0.2434 0.3116,-0.5194 0.4604,-0.6132 0.1487,-0.0939 0.4111,-0.1808 0.5832,-0.1931 0.172,-0.0124 0.8041,0.2154 1.4045,0.5061 0.6003,0.2909 1.2844,0.6837 1.5202,0.8731 0.2919,0.2344 0.4391,0.4904 0.4615,0.8028 0.0208,0.289 -0.0806,0.5786 -0.2742,0.7831 -0.1688,0.1784 -0.4546,0.381 -0.6348,0.4502 -0.2477,0.095 -0.6947,-0.0485 -1.8297,-0.5877 z" />
  <path
     id="path867"
     fill="#c7ccd0"
     d="m 83.324758,64.233397 c -0.9329,0.7931 -1.3794,1.077 -1.694,1.0768 -0.2349,-2e-4 -0.4474,-0.0022 -0.4723,-0.0046 -0.0247,-0.0023 -0.1917,-0.1639 -0.3708,-0.359 -0.1791,-0.1952 -0.3459,-0.4972 -0.3704,-0.6714 -0.0247,-0.1741 0.0037,-0.449 0.063,-0.6111 0.0593,-0.1619 0.5263,-0.645 1.0377,-1.0733 0.5115,-0.4282 1.1504,-0.891 1.4198,-1.0283 0.3336,-0.1701 0.6274,-0.1993 0.9215,-0.0917 0.2721,0.0996 0.4946,0.3109 0.6017,0.5713 0.0934,0.2272 0.161,0.5709 0.1502,0.7637 -0.0149,0.2649 -0.3292,0.6136 -1.2864,1.4276 z" />
  <path
     id="path869"
     fill="#c7ccd0"
     d="m 123.88036,37.030697 c 0.9281,-0.7986 1.3729,-1.0852 1.6875,-1.0869 0.2348,-0.0012 0.4474,-4e-4 0.4722,0.0018 0.0248,0.0022 0.1928,0.1628 0.3731,0.3568 0.1802,0.1941 0.3488,0.4952 0.3743,0.6692 0.0258,0.174 -10e-4,0.449 -0.0594,0.6114 -0.0583,0.1623 -0.5224,0.6482 -1.0312,1.0796 -0.509,0.4312 -1.145,0.8978 -1.4137,1.0367 -0.3325,0.1721 -0.6261,0.2031 -0.9209,0.0972 -0.2727,-0.098 -0.4964,-0.3079 -0.6051,-0.5677 -0.0948,-0.2266 -0.1644,-0.57 -0.1547,-0.7628 0.0133,-0.2649 0.3255,-0.6155 1.2779,-1.4353 z" />
  <path
     id="path871"
     fill="#c7ccd0"
     d="m 92.145358,72.677897 c -0.6153,1.0586 -0.9417,1.4751 -1.2383,1.5797 -0.2215,0.0781 -0.4225,0.1471 -0.4468,0.1531 -0.0241,0.006 -0.2354,-0.0907 -0.4693,-0.2149 -0.2339,-0.1244 -0.4918,-0.3536 -0.573,-0.5096 -0.0813,-0.1559 -0.1461,-0.4246 -0.1442,-0.5972 0.002,-0.1724 0.2813,-0.7835 0.6207,-1.3578 0.3395,-0.5741 0.7876,-1.2234 0.9959,-1.4427 0.2578,-0.2715 0.5251,-0.397 0.8383,-0.3935 0.2897,0.0033 0.5699,0.1283 0.7577,0.3381 0.1638,0.1831 0.342,0.4847 0.3961,0.67 0.0742,0.2547 -0.1059,0.6882 -0.7371,1.7748 z" />
  <path
     id="path873"
     fill="#f45b69"
     d="m 101.76476,74.823197 c -0.002,-1.2244 0.0701,-1.7486 0.2736,-1.9885 0.1519,-0.1791 0.2908,-0.3399 0.3087,-0.3574 0.0178,-0.0173 0.2491,-0.0403 0.5137,-0.0508 0.2647,-0.0105 0.603,0.0576 0.7517,0.1515 0.1488,0.0937 0.3402,0.2931 0.4255,0.4431 0.0852,0.1499 0.1518,0.8185 0.148,1.4856 -0.004,0.667 -0.0638,1.4536 -0.1332,1.748 -0.0859,0.3644 -0.2536,0.6075 -0.5258,0.7622 -0.2519,0.1432 -0.5569,0.1764 -0.8249,0.0898 -0.2337,-0.0756 -0.5397,-0.2462 -0.6797,-0.3791 -0.1925,-0.1826 -0.2554,-0.6478 -0.2576,-1.9044 z" />
  <path
     id="path875"
     fill="#f45b69"
     d="m 101.76476,25.823197 c -0.002,-1.2244 0.0701,-1.7486 0.2736,-1.9885 0.1519,-0.1791 0.2908,-0.3399 0.3087,-0.3574 0.0178,-0.0173 0.2491,-0.0403 0.5137,-0.0508 0.2647,-0.0105 0.603,0.0576 0.7517,0.1515 0.1488,0.0937 0.3402,0.2931 0.4255,0.4431 0.0852,0.1499 0.1518,0.8185 0.148,1.4856 -0.004,0.667 -0.0638,1.4536 -0.1332,1.748 -0.0859,0.3644 -0.2536,0.6075 -0.5258,0.7622 -0.2519,0.1432 -0.5569,0.1764 -0.8249,0.0898 -0.2337,-0.0756 -0.5397,-0.2462 -0.6797,-0.3791 -0.1925,-0.1826 -0.2554,-0.6478 -0.2576,-1.9044 z" />
  <path
     id="path877"
     fill="#f45b69"
     d="m 78.058558,48.379297 c 1.3172,-0.0298 1.8821,0.0354 2.1429,0.2478 0.1946,0.1586 0.3695,0.3036 0.3885,0.3224 0.0189,0.0186 0.0466,0.2657 0.0615,0.5486 0.0147,0.2831 -0.054,0.6467 -0.1531,0.8081 -0.0988,0.1614 -0.3108,0.3707 -0.471,0.4654 -0.1602,0.0946 -0.8786,0.1811 -1.5963,0.1922 -0.7176,0.0108 -1.5646,-0.0354 -1.8822,-0.103 -0.39319,-0.0837 -0.65691,-0.2576 -0.82701,-0.5455 -0.15738,-0.2664 -0.19711,-0.5921 -0.10747,-0.8809 0.07823,-0.2519 0.25778,-0.5832 0.39886,-0.7362 0.19392,-0.2101 0.69352,-0.288 2.04532,-0.3189 z" />
  <path
     id="path879"
     fill="#f45b69"
     d="m 129.03526,50.392697 c 1.2244,-0.0074 1.749,0.0623 1.9897,0.2648 0.1798,0.1512 0.3412,0.2893 0.3587,0.3072 0.0175,0.0177 0.0414,0.2488 0.0532,0.5134 0.0116,0.2646 -0.055,0.6032 -0.1482,0.7524 -0.093,0.1492 -0.2916,0.3414 -0.4412,0.4274 -0.1495,0.0858 -0.8179,0.1555 -1.4849,0.1546 -0.6671,-10e-4 -1.4539,-0.0574 -1.7486,-0.1255 -0.3648,-0.0843 -0.6086,-0.2509 -0.7646,-0.5225 -0.1443,-0.2512 -0.1788,-0.5561 -0.0934,-0.8244 0.0745,-0.234 0.2439,-0.5408 0.3761,-0.6814 0.1818,-0.1933 0.6467,-0.2582 1.9032,-0.266 z" />
  <path
     id="path881"
     fill="#c7ccd0"
     d="m 115.00946,28.639197 c 0.6089,-1.0623 0.9328,-1.4807 1.2288,-1.5871 0.221,-0.0795 0.4217,-0.1496 0.4459,-0.1558 0.024,-0.0061 0.2359,0.0893 0.4706,0.2121 0.2346,0.123 0.4939,0.3506 0.576,0.5062 0.0822,0.1554 0.1486,0.4237 0.1477,0.5963 -9e-4,0.1724 -0.2765,0.7852 -0.6125,1.3615 -0.3361,0.5761 -0.7803,1.228 -0.9873,1.4486 -0.2562,0.273 -0.5227,0.4001 -0.8359,0.3985 -0.2897,-0.0015 -0.5707,-0.1249 -0.7597,-0.3336 -0.1649,-0.1821 -0.345,-0.4826 -0.4001,-0.6676 -0.0757,-0.2542 0.1017,-0.6888 0.7265,-1.7791 z" />
  <path
     id="path883"
     fill="#c7ccd0"
     d="m 118.31096,70.406397 c 0.8767,0.8548 1.2011,1.2728 1.2302,1.586 0.0218,0.2339 0.0396,0.4457 0.0396,0.4706 -1e-4,0.0249 -0.1454,0.2063 -0.3229,0.4028 -0.1776,0.1965 -0.4628,0.3908 -0.6339,0.4314 -0.171,0.0409 -0.4474,0.0383 -0.6143,-0.0057 -0.1667,-0.0439 -0.6913,-0.4638 -1.1655,-0.9329 -0.474,-0.4693 -0.9944,-1.0622 -1.1564,-1.3176 -0.2004,-0.3163 -0.257,-0.6061 -0.1772,-0.9089 0.0738,-0.2802 0.2633,-0.5215 0.5126,-0.6525 0.2175,-0.1142 0.5534,-0.2136 0.7463,-0.2208 0.2651,-0.0099 0.6417,0.2705 1.5415,1.1476 z" />
  <path
     id="path885"
     fill="#c7ccd0"
     d="m 127.26596,61.881797 c 1.076,0.5842 1.5019,0.8983 1.6151,1.1918 0.0845,0.2191 0.1593,0.4181 0.166,0.4421 0.007,0.0239 -0.0838,0.238 -0.2012,0.4754 -0.1175,0.2374 -0.3391,0.5019 -0.4927,0.5875 -0.1535,0.0858 -0.4202,0.1585 -0.5927,0.1615 -0.1724,0.0031 -0.7914,-0.2583 -1.3753,-0.5809 -0.5838,-0.3227 -1.2458,-0.7517 -1.471,-0.9535 -0.2789,-0.2498 -0.4121,-0.5134 -0.4177,-0.8265 -0.005,-0.2897 0.1116,-0.5734 0.3159,-0.7672 0.1782,-0.1691 0.4745,-0.356 0.6582,-0.4154 0.2524,-0.0816 0.691,0.0858 1.7954,0.6852 z" />
  <path
     id="path887"
     fill-opacity="0.5"
     fill="#a9a9a9"
     d="m 102.76056,20.883997 c 4.1366,0 8.2328,0.78891 12.0545,2.3217 3.8218,1.5327 7.2943,3.7794 10.2194,6.6115 2.925,2.8322 5.2453,6.1945 6.8283,9.895 1.583,3.7004 2.3978,7.6665 2.3978,11.6718 h -31.5 z" />
  <path
     id="path889"
     fill="#f45b69"
     d="m 102.58966,31.904897 0.4282,-0.4282 c 0.2556,-0.2554 0.583,-0.4281 0.8124,-0.4281 0.2125,0 0.5447,0.1605 0.7436,0.3596 l 0.3596,0.3595 v 6.9541 6.9541 l 0.7908,0.3621 c 0.4349,0.1991 1.0679,0.6391 1.4066,0.9778 0.3387,0.3387 0.7787,0.9716 0.9778,1.4066 l 0.3621,0.7907 h 6.9541 6.9541 l 0.3595,0.3596 c 0.1991,0.199 0.3596,0.5312 0.3596,0.7436 0,0.2294 -0.1727,0.5568 -0.4282,0.8124 l -0.4282,0.4282 h -8.1978 -8.1977 l -0.2256,0.3444 c -0.1241,0.1893 -0.4704,0.4604 -0.7695,0.6024 -0.3803,0.1805 -0.7733,0.239 -1.3063,0.1948 -0.4623,-0.0384 -0.937,-0.1876 -1.2067,-0.3797 -0.2447,-0.1742 -0.5517,-0.5421 -0.6825,-0.8177 -0.1308,-0.2757 -0.2378,-0.7778 -0.2378,-1.1161 0,-0.3382 0.1087,-0.8441 0.2416,-1.1241 0.133,-0.2801 0.3967,-0.6107 0.5859,-0.7348 l 0.3444,-0.2256 v -8.1978 z"
     clip-rule="evenodd"
     fill-rule="evenodd" />
</svg>
