<?xml version="1.0" encoding="UTF-8" standalone="no"?>
<svg
   xmlns:dc="http://purl.org/dc/elements/1.1/"
   xmlns:cc="http://creativecommons.org/ns#"
   xmlns:rdf="http://www.w3.org/1999/02/22-rdf-syntax-ns#"
   xmlns:svg="http://www.w3.org/2000/svg"
   xmlns="http://www.w3.org/2000/svg"
   xmlns:sodipodi="http://sodipodi.sourceforge.net/DTD/sodipodi-0.dtd"
   xmlns:inkscape="http://www.inkscape.org/namespaces/inkscape"
   inkscape:version="1.0 (4035a4f, 2020-05-01)"
   sodipodi:docname="discount.svg"
   id="svg1475"
   version="1.1"
   fill="none"
   viewBox="0 0 200 100"
   height="100"
   width="200">
  <metadata
     id="metadata1481">
    <rdf:RDF>
      <cc:Work
         rdf:about="">
        <dc:format>image/svg+xml</dc:format>
        <dc:type
           rdf:resource="http://purl.org/dc/dcmitype/StillImage" />
        <dc:title></dc:title>
      </cc:Work>
    </rdf:RDF>
  </metadata>
  <defs
     id="defs1479" />
  <sodipodi:namedview
     inkscape:current-layer="svg1475"
     inkscape:window-maximized="0"
     inkscape:window-y="0"
     inkscape:window-x="0"
     inkscape:cy="259.7188"
     inkscape:cx="52.762176"
     inkscape:zoom="1.5020363"
     showgrid="false"
     id="namedview1477"
     inkscape:window-height="1120"
     inkscape:window-width="1792"
     inkscape:pageshadow="2"
     inkscape:pageopacity="0"
     guidetolerance="10"
     gridtolerance="10"
     objecttolerance="10"
     borderopacity="1"
     bordercolor="#666666"
     pagecolor="#ffffff" />
  <mask
     fill="#ffffff"
     id="path-1-inside-1_36_89">
    <path
       id="path1460"
       d="m 25.1319,116.803 0.2314,-0.232 10.2587,11.721 c 10.8099,10.605 11.9983,11.697 13.3792,12.293 0.8338,0.359 2.1611,0.772 2.9496,0.918 0.7888,0.145 2.1129,0.203 2.9428,0.128 0.8298,-0.075 2.1205,-0.348 2.868,-0.607 0.7475,-0.259 1.8936,-0.824 2.547,-1.255 0.6533,-0.432 14.4914,-13.878 30.7517,-29.881 16.2607,-16.0023 30.0317,-29.7255 30.6027,-30.4955 0.571,-0.7701 1.314,-2.0781 1.652,-2.9068 l 0.615,-1.5067 0.074,-23.2542 c 0.053,-16.6426 -0.005,-23.6675 -0.205,-24.7077 -0.154,-0.7993 -0.601,-2.1074 -0.994,-2.9068 -0.393,-0.7993 -1.02,-1.8094 -1.392,-2.2447 l -0.765,-0.7914 -0.3,0.2419 0.308,-0.3086 -0.795,-0.6665 c -0.437,-0.3664 -1.45,-0.9815 -2.252,-1.3669 -0.802,-0.3852 -2.113,-0.8227 -2.915,-0.9725 -1.042,-0.1947 -8.08,-0.2354 -24.7541,-0.1436 l -23.2979,0.1284 -1.508,0.6091 c -0.8294,0.3351 -2.1381,1.0712 -2.9083,1.6357 C 61.4556,20.7958 47.7397,34.3995 31.7459,50.4618 15.7523,66.5241 2.31404,80.1934 1.88339,80.8383 c -0.4309,0.6449 -0.994096,1.7757 -1.251732,2.513 -0.257636,0.7372 -0.528032,2.0099 -0.6007842,2.8278 -0.0729954,0.818 -0.0120624,2.1228 0.1354462,2.8998 0.147508,0.7767 0.564497,2.0838 0.92665,2.9046 0.59985,1.3595 1.69674,2.5281 12.34853,13.1555 z M 106.745,40.962 c 3.243,0 5.873,-2.5912 5.873,-5.7877 0,-3.1965 -2.63,-5.7877 -5.873,-5.7877 -3.244,0 -5.873,2.5912 -5.873,5.7877 0,3.1965 2.629,5.7877 5.873,5.7877 z"
       clip-rule="evenodd"
       fill-rule="evenodd" />
  </mask>
  <path
     style="stroke-width:0.635307"
     id="path1463"
     fill="#748791"
     d="m 79.885122,78.874216 0.147007,-0.147391 6.51743,7.446431 c 6.867595,6.737429 7.622598,7.431183 8.499896,7.809822 0.529713,0.22808 1.372961,0.490457 1.873893,0.583213 0.501134,0.09212 1.342342,0.128966 1.869592,0.08133 0.52717,-0.04766 1.34717,-0.221081 1.82205,-0.385634 0.4749,-0.164544 1.20302,-0.523492 1.61814,-0.797306 0.41504,-0.274452 9.20648,-8.816787 19.53676,-18.983603 10.33054,-10.166369 19.07934,-18.884811 19.44211,-19.373998 0.36275,-0.489249 0.83478,-1.320231 1.04952,-1.846709 l 0.39072,-0.957218 0.047,-14.773551 c 0.0337,-10.573157 -0.003,-15.036124 -0.13024,-15.69697 -0.0978,-0.507801 -0.38182,-1.338846 -0.6315,-1.84671 -0.24968,-0.507801 -0.64801,-1.149525 -0.88434,-1.426074 l -0.48601,-0.502781 -0.1906,0.153681 0.19568,-0.196056 -0.50507,-0.423432 c -0.27763,-0.232776 -0.92119,-0.623554 -1.43071,-0.868401 -0.50952,-0.24472 -1.3424,-0.522666 -1.85192,-0.617836 -0.66199,-0.123694 -5.13327,-0.149551 -15.72644,-0.09123 l -14.80133,0.08158 -0.95804,0.386965 c -0.52692,0.21289 -1.35834,0.68054 -1.84765,1.039171 -0.48925,0.358694 -9.203065,9.001217 -19.364035,19.205706 -10.160847,10.204489 -18.698262,18.888688 -18.971857,19.298398 -0.273753,0.409709 -0.631556,1.128114 -0.795234,1.596526 -0.163678,0.468348 -0.335462,1.276902 -0.381682,1.79652 -0.04638,0.519682 -0.0077,1.34863 0.08605,1.842263 0.09371,0.493443 0.358628,1.323852 0.588707,1.845313 0.381088,0.863699 1.077951,1.606119 7.845106,8.357777 z M 131.73449,30.691913 c 2.0603,0 3.73115,-1.646207 3.73115,-3.676966 0,-2.030758 -1.67085,-3.676965 -3.73115,-3.676965 -2.06094,0 -3.73116,1.646207 -3.73116,3.676965 0,2.030759 1.67022,3.676966 3.73116,3.676966 z"
     clip-rule="evenodd"
     fill-rule="evenodd" />
  <path
     transform="matrix(0.63530682,0,0,0.63530682,63.918659,4.6684742)"
     id="path1465"
     mask="url(#path-1-inside-1_36_89)"
     fill="#000000"
     d="m 25.3633,116.571 2.4886,-2.178 -2.3312,-2.663 -2.4993,2.506 z m -0.2314,0.232 -2.3359,2.341 2.3419,2.337 2.3359,-2.342 z m 10.4901,11.489 -2.4886,2.178 0.0827,0.094 0.0897,0.088 z m 13.3792,12.293 -1.3094,3.037 v 0 z m 2.9496,0.918 -0.5994,3.252 h 1e-4 z m 2.9428,0.128 -0.2962,-3.294 h -9e-4 z m 2.868,-0.607 -1.0826,-3.125 v 0 z m 2.547,-1.255 -1.8224,-2.76 h -8e-4 z m 30.7517,-29.881 2.3198,2.358 v 0 z m 30.6027,-30.4955 -2.657,-1.9699 v 0 z m 1.652,-2.9068 -3.062,-1.249 v 0 z m 0.615,-1.5067 3.062,1.249 0.243,-0.5954 0.002,-0.643 z m 0.074,-23.2542 3.307,0.0105 v 0 z m -0.205,-24.7077 3.248,-0.6247 -10e-4,-5e-4 z m -0.994,-2.9068 2.968,-1.4585 v -7e-4 z m -1.392,-2.2447 2.511,-2.1516 -0.064,-0.0752 -0.069,-0.0711 z m -0.765,-0.7914 2.379,-2.2979 -2.101,-2.1745 -2.354,1.8978 z m -0.3,0.2419 -2.341,-2.3359 4.417,4.9106 z m 0.308,-0.3086 2.341,2.3359 2.547,-2.5525 -2.763,-2.3173 z m -0.795,-0.6665 2.126,-2.5338 -10e-4,-4e-4 z m -2.252,-1.3669 1.433,-2.9808 -0.001,-3e-4 z m -2.915,-0.9725 0.608,-3.251 v 0 z M 89.9399,17.858 89.9216,14.5508 v 0 z m -23.2979,0.1284 -0.0182,-3.3073 -0.6333,0.0035 -0.5872,0.2372 z m -1.508,0.6091 -1.2387,-3.0665 v 0 z m -2.9083,1.6357 -1.9553,-2.6673 v 0 z M 31.7459,50.4618 29.4023,48.1283 v 0 z m -29.86251,30.3765 2.7499,1.8374 4.7e-4,-7e-4 z m -1.251732,2.513 -3.122128,-1.091 v 0 z m -0.6007842,2.8278 3.2941762,0.294 9e-5,-0.001 z m 0.1354462,2.8998 -3.24923,0.6168 3e-5,2e-4 z m 0.92665,2.9046 -3.02584,1.335 3e-5,1e-4 z m 12.34853,13.1555 -2.3359,2.342 v 0 z m 9.5799,9.097 -0.2314,0.232 4.6838,4.671 0.2314,-0.233 z m 15.0892,11.877 -10.2587,-11.72 -4.9772,4.356 10.2587,11.721 z m 12.2001,11.435 c -0.1392,-0.06 -0.4326,-0.144 -2.2256,-1.791 -1.7711,-1.628 -4.7238,-4.506 -10.1469,-9.826 l -4.6324,4.721 c 5.3868,5.285 8.4332,8.256 10.304,9.975 1.849,1.699 2.8403,2.459 4.082,2.995 z m 2.2396,0.702 c -0.5149,-0.095 -1.6043,-0.428 -2.2397,-0.702 l -2.6188,6.074 c 1.0322,0.445 2.5974,0.937 3.6596,1.133 z m 2.0462,0.087 c -0.5423,0.049 -1.5645,0.002 -2.0464,-0.087 l -1.1986,6.505 c 1.0957,0.202 2.7218,0.27 3.8392,0.17 z m 2.0825,-0.438 c -0.4801,0.166 -1.5056,0.386 -2.0816,0.438 l 0.5923,6.588 c 1.0837,-0.098 2.6396,-0.424 3.6545,-0.776 z m 1.8064,-0.89 c -0.4201,0.278 -1.3171,0.721 -1.8064,0.89 l 2.1652,6.25 c 1.0056,-0.348 2.4009,-1.035 3.2875,-1.621 z m 30.255,-29.478 c -8.1265,7.998 -15.6459,15.355 -21.2133,20.765 -2.7845,2.705 -5.0764,4.92 -6.7102,6.482 -0.8182,0.782 -1.4636,1.394 -1.9203,1.819 -0.2298,0.214 -0.4005,0.37 -0.5164,0.474 -0.2075,0.185 -0.0992,0.073 0.106,-0.062 l 3.6448,5.52 c 0.2869,-0.19 0.5797,-0.457 0.6547,-0.524 0.1665,-0.149 0.3761,-0.341 0.6189,-0.568 0.4886,-0.455 1.1585,-1.089 1.9836,-1.878 1.6527,-1.581 3.9592,-3.809 6.7484,-6.519 5.58,-5.422 13.1098,-12.79 21.2435,-20.794 z M 119.006,77.4226 c 0.091,-0.1229 0.017,-0.0246 -0.536,0.5495 -0.449,0.4657 -1.087,1.1162 -1.896,1.9352 -1.616,1.636 -3.893,3.9168 -6.664,6.6782 -5.54,5.5214 -13.043,12.9479 -21.1696,20.9455 l 4.6397,4.715 c 8.1339,-8.005 15.6469,-15.4417 21.1989,-20.9752 2.776,-2.7659 5.066,-5.0605 6.7,-6.7142 0.816,-0.8259 1.476,-1.4988 1.953,-1.9936 0.372,-0.3862 0.853,-0.8853 1.087,-1.2007 z m 1.247,-2.1859 c -0.226,0.5547 -0.829,1.6223 -1.247,2.1859 l 5.313,3.9398 c 0.724,-0.9766 1.609,-2.5251 2.059,-3.6277 z m 0.614,-1.5067 -0.614,1.5067 6.125,2.498 0.614,-1.5067 z m -0.17,-22.0158 -0.074,23.2542 6.614,0.0212 0.074,-23.2543 z m -0.146,-24.0724 c -0.011,-0.0561 0.03,0.2791 0.066,1.4361 0.032,1.0277 0.056,2.4943 0.072,4.4696 0.033,3.9461 0.034,9.8466 0.008,18.1667 l 6.614,0.0211 c 0.027,-8.3225 0.026,-14.2557 -0.007,-18.2427 -0.017,-1.9913 -0.042,-3.5161 -0.076,-4.6182 -0.029,-0.9728 -0.071,-1.9058 -0.181,-2.482 z m -0.714,-2.0729 c 0.275,0.5595 0.621,1.5884 0.714,2.0734 l 6.495,-1.2504 c -0.214,-1.1137 -0.762,-2.7009 -1.273,-3.7401 z m -0.936,-1.5517 c -0.006,-0.0071 0.033,0.0394 0.117,0.1608 0.078,0.1118 0.172,0.2537 0.273,0.4168 0.206,0.3327 0.406,0.6896 0.546,0.9748 l 5.936,-2.9185 c -0.456,-0.9271 -1.225,-2.2086 -1.849,-2.9371 z m -0.632,-0.6451 0.765,0.7914 4.757,-4.5958 -0.764,-0.7914 z m 4.155,0.5187 0.3,-0.242 -4.152,-5.1492 -0.3,0.2419 z m -4.109,-5.2192 -0.308,0.3086 4.682,4.6719 0.308,-0.3087 z m -0.579,4.2033 0.794,0.6664 4.251,-5.0677 -0.794,-0.6664 z m -1.56,-0.9201 c 0.287,0.1381 0.646,0.3344 0.98,0.5372 0.164,0.0995 0.307,0.1911 0.419,0.2677 0.122,0.0832 0.169,0.1217 0.161,0.1156 l 4.25,-5.0685 c -0.731,-0.6134 -2.016,-1.3673 -2.944,-1.8135 z m -2.089,-0.7022 c 0.491,0.0918 1.527,0.4319 2.09,0.7026 l 2.864,-5.9622 c -1.04,-0.4998 -2.628,-1.0347 -3.739,-1.2424 z M 89.9581,21.1652 c 8.3356,-0.0459 14.2479,-0.0585 18.2019,-0.0356 1.979,0.0115 3.449,0.0318 4.479,0.0605 1.158,0.0323 1.499,0.0721 1.448,0.0626 l 1.215,-6.5021 c -0.572,-0.1069 -1.502,-0.1452 -2.478,-0.1725 -1.104,-0.0307 -2.631,-0.0514 -4.626,-0.0629 -3.994,-0.0232 -9.9383,-0.0103 -18.2764,0.0356 z m -23.2978,0.1284 23.2978,-0.1284 -0.0365,-6.6144 -23.2978,0.1283 z m -0.2876,0.3685 1.508,-0.6092 -2.4774,-6.1331 -1.508,0.6092 z m -2.1917,1.2365 c 0.5638,-0.4133 1.6334,-1.011 2.1917,-1.2365 L 63.8953,15.529 c -1.1006,0.4446 -2.6484,1.319 -3.6249,2.0349 z M 34.0895,52.7954 c 7.9934,-8.0276 15.4158,-15.4391 20.9342,-20.9124 2.7599,-2.7373 5.0395,-4.9858 6.6746,-6.5828 0.8186,-0.7995 1.4688,-1.429 1.9342,-1.8724 0.574,-0.547 0.6716,-0.6194 0.5485,-0.5292 l -3.9106,-5.3347 c -0.3156,0.2313 -0.815,0.7075 -1.201,1.0753 -0.4946,0.4713 -1.1673,1.1227 -1.9928,1.9289 -1.6529,1.6145 -3.9463,3.8767 -6.7109,6.6186 -5.5305,5.4853 -12.963,12.9069 -20.9634,20.9416 z M 4.63376,82.675 C 4.4962,82.881 4.38215,82.9903 4.56818,82.7843 4.67136,82.6701 4.8274,82.5017 5.04124,82.2748 5.46624,81.8237 6.07717,81.1863 6.85897,80.3782 8.4202,78.7645 10.633,76.5007 13.337,73.7502 18.7434,68.2507 26.0963,60.823 34.0895,52.7954 L 29.4023,48.1283 C 21.402,56.163 14.0389,63.601 8.62011,69.113 5.9115,71.8682 3.6844,74.1466 2.10502,75.7791 c -0.7885,0.815 -1.423042,1.4768 -1.877857,1.9595 -0.22606553,0.2399 -0.418517,0.447 -0.567303,0.6117 -0.065944,0.073 -0.335448,0.3647 -0.526846,0.6513 z m -0.87998,1.7673 c 0.16631,-0.4759 0.60494,-1.3557 0.8795,-1.7666 L -0.866507,79.0009 C -1.45374,79.8797 -2.1415,81.2617 -2.49047,82.2603 Z m -0.42864,2.0298 c 0.04979,-0.5597 0.26562,-1.5633 0.42864,-2.0298 l -6.24425,-2.182 c -0.35224,1.0079 -0.6772,2.5497 -0.77292,3.6258 z M 3.41555,88.462 C 3.32718,87.9965 3.27816,86.9986 3.32505,86.4731 l -6.58836,-0.5879 c -0.09909,1.1104 -0.02625,2.7221 0.1804,3.8105 z m 0.70326,2.1865 C 3.84482,90.0275 3.51032,88.961 3.41552,88.4618 l -6.4984,1.2341 c 0.20021,1.0543 0.69969,2.602 1.15001,3.6226 z M 15.7775,102.798 C 10.4336,97.4663 7.54353,94.5636 5.90917,92.8224 4.25313,91.0581 4.17436,90.7744 4.11878,90.6484 l -6.05162,2.6702 c 0.54427,1.2335 1.313864,2.2138 3.01918,4.0307 1.72701,1.8399 4.71131,4.8357 10.01926,10.1317 z m 11.6903,11.664 -11.6903,-11.664 -4.6719,4.683 11.6904,11.663 z M 109.31,35.1743 c 0,1.3245 -1.102,2.4804 -2.565,2.4804 v 6.6146 c 5.024,0 9.18,-4.0265 9.18,-9.095 z m -2.565,-2.4805 c 1.463,0 2.565,1.156 2.565,2.4805 h 6.615 c 0,-5.0685 -4.156,-9.095 -9.18,-9.095 z m -2.566,2.4805 c 0,-1.3245 1.103,-2.4805 2.566,-2.4805 v -6.6145 c -5.025,0 -9.1805,4.0265 -9.1805,9.095 z m 2.566,2.4804 c -1.463,0 -2.566,-1.1559 -2.566,-2.4804 h -6.6145 c 0,5.0685 4.1555,9.095 9.1805,9.095 z" />
  <rect
     style="stroke-width:0.635307"
     id="rect1467"
     fill="#ffffff"
     transform="rotate(7.16837)"
     rx="1.2170509"
     height="2.4340954"
     width="27.469334"
     y="40.877556"
     x="96.340508" />
  <path
     id="path1469"
     stroke-width="2.56323"
     stroke="#ffffff"
     d="m 110.80494,46.553809 c -0.35323,2.808183 -2.91606,4.798408 -5.72424,4.445242 -2.80824,-0.353231 -4.79842,-2.916059 -4.44525,-5.724242 0.35323,-2.808247 2.916,-4.798409 5.72424,-4.445242 2.80819,0.353231 4.79842,2.915995 4.44525,5.724242 z" />
  <circle
     id="circle1471"
     stroke-width="2.56323"
     stroke="#ffffff"
     transform="rotate(7.16837)"
     r="5.1264558"
     cy="51.570602"
     cx="109.76011" />
  <path
     style="stroke-width:0.635307"
     id="path1473"
     fill="#f45b69"
     d="m 152.1704,4.7777063 c -0.51713,0.080962 -1.48153,0.2974526 -2.14288,0.4812679 -0.66199,0.1838184 -1.78522,0.610357 -2.49676,0.9478892 -0.71155,0.3375321 -1.75027,0.9247082 -2.30808,1.3045708 -0.5578,0.379869 -1.57682,1.1677638 -2.26486,1.7505938 -0.6874,0.582996 -1.75027,1.639372 -2.36207,2.347619 -0.61117,0.708176 -1.59653,1.97574 -2.18991,2.816759 -0.59337,0.84102 -1.62765,2.499234 -2.29917,3.684843 -0.67089,1.18561 -1.54316,2.884548 -1.93896,3.775311 -0.39516,0.8907 -0.9987,2.413594 -1.34049,3.384153 -0.3418,0.970431 -0.62197,1.953568 -0.62197,2.184502 0,0.231188 0.11181,0.581115 0.24777,0.777806 0.18169,0.262636 0.40786,0.357805 0.8494,0.357805 0.38182,0 0.69884,-0.107875 0.86593,-0.294719 0.14485,-0.162066 0.43264,-0.795975 0.63975,-1.408411 0.20711,-0.612436 0.78778,-2.055282 1.29158,-3.20614 0.50316,-1.150858 1.16325,-2.593513 1.46692,-3.205821 0.30304,-0.612309 0.95169,-1.768314 1.44088,-2.568927 0.48919,-0.800614 1.4053,-2.148926 2.03552,-2.996425 0.63087,-0.847436 1.85637,-2.230562 2.72356,-3.073487 0.86783,-0.842945 2.0997,-1.884028 2.73754,-2.31347 0.63785,-0.429436 1.7058,-1.021606 2.37287,-1.316 0.66771,-0.2942365 1.73249,-0.6525305 2.36779,-0.7962686 0.63467,-0.143573 1.27061,-0.2158455 1.41229,-0.1606373 0.21536,0.083378 0.24078,0.2544785 0.15184,1.0193559 -0.0591,0.505412 -0.35895,1.68106 -0.66644,2.612204 -0.30749,0.931309 -0.88244,2.292835 -1.27697,3.025852 -0.39452,0.732891 -1.1372,1.896582 -1.64989,2.585827 -0.51333,0.689371 -1.64354,1.943911 -2.512,2.787789 -1.30111,1.313307 -0.56035,0.609577 -2.31633,2.097656 l -1.76234,1.030532 v 0.370383 l 0.0369,0.703729 c 0.0369,0.444462 0.014,0.943368 0,1.407459 0,0 0.2592,0.01983 3.11872,-1.630514 0.77761,-0.56301 2.10096,-1.717426 2.94083,-2.565497 0.84051,-0.848134 2.01011,-2.225289 2.59967,-3.060336 0.58957,-0.835238 1.42563,-2.20966 1.85828,-3.054492 0.43264,-0.844894 0.96884,-2.088 1.1931,-2.762378 0.22363,-0.674632 0.51587,-1.752716 0.64929,-2.395748 0.13341,-0.643191 0.28588,-1.7903456 0.33862,-2.5492705 0.0845,-1.2176545 0.0591,-1.4254507 -0.21601,-1.7668473 -0.24777,-0.3080762 -0.48664,-0.3959599 -1.17214,-0.43121 -0.47394,-0.024466 -1.28459,0.021891 -1.80173,0.1026921 z"
     clip-rule="evenodd"
     fill-rule="evenodd" />
</svg>
