<?xml version="1.0" encoding="UTF-8" standalone="no"?>
<svg
   xmlns:dc="http://purl.org/dc/elements/1.1/"
   xmlns:cc="http://creativecommons.org/ns#"
   xmlns:rdf="http://www.w3.org/1999/02/22-rdf-syntax-ns#"
   xmlns:svg="http://www.w3.org/2000/svg"
   xmlns="http://www.w3.org/2000/svg"
   xmlns:sodipodi="http://sodipodi.sourceforge.net/DTD/sodipodi-0.dtd"
   xmlns:inkscape="http://www.inkscape.org/namespaces/inkscape"
   inkscape:version="1.0 (4035a4f, 2020-05-01)"
   sodipodi:docname="polycarbonate.svg"
   id="svg2064"
   version="1.1"
   fill="none"
   viewBox="0 0 200 100"
   height="100"
   width="200">
  <metadata
     id="metadata2070">
    <rdf:RDF>
      <cc:Work
         rdf:about="">
        <dc:format>image/svg+xml</dc:format>
        <dc:type
           rdf:resource="http://purl.org/dc/dcmitype/StillImage" />
        <dc:title></dc:title>
      </cc:Work>
    </rdf:RDF>
  </metadata>
  <defs
     id="defs2068" />
  <sodipodi:namedview
     inkscape:current-layer="svg2064"
     inkscape:window-maximized="0"
     inkscape:window-y="0"
     inkscape:window-x="0"
     inkscape:cy="152.62107"
     inkscape:cx="108.54195"
     inkscape:zoom="2.5503504"
     showgrid="false"
     id="namedview2066"
     inkscape:window-height="1120"
     inkscape:window-width="1792"
     inkscape:pageshadow="2"
     inkscape:pageopacity="0"
     guidetolerance="10"
     gridtolerance="10"
     objecttolerance="10"
     borderopacity="1"
     bordercolor="#666666"
     pagecolor="#ffffff" />
  <path
     style="stroke-width:0.851553"
     id="path2044"
     fill-opacity="0.501961"
     fill="#c4cdd4"
     d="M 49.972893,65.598549 97.404802,33.168015 88.359102,32.163608 40.811208,64.581284 Z M 98.386902,33.277015 50.954734,65.707548 59.988772,66.710677 107.42042,34.280399 Z m 10.015358,1.112383 -47.431904,32.430278 9.162963,1.017349 47.432501,-32.430192 z m 10.14455,1.126433 -47.431139,32.430278 9.058561,1.005854 47.432248,-32.430278 z m 10.04066,1.114854 -47.431142,32.430362 9.162707,1.017351 47.431995,-32.430023 z m 10.1454,1.126689 -47.431739,32.430108 9.033519,1.003044 47.43234,-32.430024 z m 10.01597,1.112128 -47.43184,32.430022 9.16306,1.017435 47.43148,-32.429767 z m 10.14369,1.126689 -47.43064,32.429767 9.26404,1.028675 47.43064,-32.429852 z m 9.83543,1.41809 -47.61627,32.556565 -0.94012,8.463837 47.63587,-32.724234 z m -49.23337,41.26352 0.90435,-8.140077 -10.34466,7.072486 c 0,0 -0.0715,-0.04956 -0.1635,-0.113343 l -0.0128,0.113172 z m -9.53739,-1.781192 10.05002,-6.871776 -9.1627,-1.017349 -0.0128,0.0085 z m -0.72127,0.64207 0.89243,-8.041978 -10.11823,6.918781 c 0,0 -0.119478,-0.07527 -0.251208,-0.15839 l -0.0251,0.226599 z m -9.422848,-1.768931 10.049598,-6.871348 -9.03438,-1.002534 -0.15251,0.104229 z m -0.72161,0.642582 0.88059,-7.931191 -9.688366,6.624228 c -0.162561,0.111128 -0.383795,0.164946 -0.553254,0.153791 l -0.01252,0.112407 z m -9.294268,-1.754964 10.049848,-6.871009 -9.163041,-1.017435 -0.01175,0.008 z m -0.72135,0.642837 0.892938,-8.042234 -10.020987,6.851593 c -0.05824,0.06412 -0.114189,0.116492 -0.16682,0.158644 z m -9.422602,-1.769697 10.048663,-6.870583 -9.17267,-1.018542 -8.52e-4,0.0077 c 0.04283,0.02206 0.07647,0.03108 0.09486,0.01848 l -0.104914,0.07179 z m -0.721776,0.643603 0.883146,-7.953757 -9.903387,6.771292 c -0.0711,0.08166 -0.117259,0.13463 -0.148512,0.164434 z m -9.306705,-1.767312 10.03606,-6.861812 -9.161003,-1.018542 z m -0.722798,0.653737 0.894132,-8.052793 -10.14557,6.936833 c -0.06778,0.02257 -0.135568,0.04488 -0.202925,0.06617 z m -9.421493,-1.77983 10.036059,-6.862153 -9.034123,-1.003044 -0.139229,0.09538 z m -0.703894,0.485044 0.863219,-7.77408 -10.116787,6.917077 9.061969,1.006195 c 0.05237,-0.04428 0.11564,-0.09375 0.191599,-0.149192 z m -9.311643,-1.597939 10.035123,-6.861386 -9.160324,-1.017179 -0.0065,0.0579 z m -0.703724,0.481042 0.868584,-7.822447 -10.20918,6.960591 9.237473,1.025695 c -0.01183,-0.02529 -0.02053,-0.05075 -0.02512,-0.07605 z m -9.444741,-1.570262 10.106908,-6.891021 -9.227935,-1.024673 z"
     clip-rule="evenodd"
     fill-rule="evenodd" />
  <path
     style="stroke-width:0.851553"
     id="path2046"
     fill="#74858f"
     d="m 38.236879,73.814585 11.645665,-7.939962 c 0.476529,0.240137 0.450216,0.472441 0.450216,0.472441 l -11.562383,7.883164 c 0.398357,0.178826 0,0 -0.533498,-0.415643 z m 10.396096,0.922061 11.278816,-7.711661 c 0.406447,-0.277777 0.761799,0.259809 0.761799,0.259809 l -11.542285,7.891849 c 0.700997,0.416155 -0.425011,-0.03338 -0.49833,-0.439997 z m 10.31852,0.905712 10.882673,-7.441038 c 0.07485,-0.21093 -0.03806,0.80608 0.801396,0.232304 l -10.985029,7.510865 c -0.928278,0.310902 -1.910458,0.526345 -0.69904,-0.302131 z M 69.247449,76.664817 79.8767,69.397325 c 0.0608,-0.283566 0.641645,0.341899 0.746556,0.270198 l -10.712021,7.324121 c -0.4027,0.461966 0,0 -0.663786,-0.326827 z m 10.237196,0.980904 10.604471,-7.250545 c -0.0073,-0.154558 1.212015,-0.20778 0.764439,0.257764 l -10.90575,7.456536 c -0.683627,0.751325 -0.998276,-0.09801 -0.46316,-0.463755 z m 10.235579,1.064271 10.160558,-6.946797 c 0.826508,-0.04675 0.947518,0.132587 0.947518,0.132587 l -10.544604,7.209585 c -0.413939,0.282972 -1.207842,0.194836 -0.563472,-0.395375 z m 9.696208,1.330806 10.867768,-7.430649 c -0.0929,0.324697 0.84729,0.201136 0.84729,0.201136 l -11.12136,7.604197 z m 10.069858,1.177527 10.9382,-7.478761 c -0.41727,0.285269 0.45558,0.46878 0.45558,0.46878 l -10.82495,7.40178 z" />
  <path
     style="stroke-width:0.851553"
     id="path2048"
     fill="#f45b69"
     d="m 35.369616,25.933735 1.918123,4.914566 c 0.32657,0.781725 0.647265,1.60407 1.045962,2.414492 0.270709,0.550444 1.025099,1.85383 1.055244,2.47044 0.333127,-0.724331 -0.04505,-1.974922 0.654163,-2.685713 0.496029,-0.50463 1.762799,-0.719817 2.53686,-0.941561 l 4.059778,-1.110765 c 0.431908,-0.116663 1.002022,-0.143402 1.149,-0.5702 -0.0094,-0.403211 -1.892405,-0.692568 -2.4873,-0.821068 -0.908692,-0.196197 -1.904583,-0.405168 -2.790113,-0.619674 -2.926957,-0.709174 -2.876034,-0.291402 -3.340726,-3.54246 l -1.451728,-9.113317 c -0.08618,-0.521321 -0.153619,-0.999893 -0.245331,-1.495667 -0.123561,-0.670427 0.03338,-1.123708 -0.669492,-1.054818 -0.168862,0.337641 -1.378152,11.002145 -1.43444,12.155745 z"
     clip-rule="evenodd"
     fill-rule="evenodd" />
  <path
     style="stroke-width:0.851553"
     id="path2050"
     fill="#f45b69"
     d="M 39.38903,35.733318 C 39.35889,35.116709 38.60441,33.813322 38.333786,33.262879 37.935004,32.452455 37.614309,31.630111 37.287739,30.848386 L 35.369616,25.93382 c -0.333638,0.586634 0.160774,1.765183 -0.779852,2.49241 -0.438124,0.338747 -1.935068,0.659868 -2.575862,0.837076 -0.871564,0.241244 -1.794903,0.488962 -2.672002,0.731483 -1.424222,0.393588 -2.337172,0.391629 -2.307708,1.0859 1.006024,0.626148 7.082449,1.28542 7.890488,2.14651 0.554701,0.591573 0.783173,3.153895 0.949992,4.220295 l 1.613777,9.981645 c 0.757542,1.209545 0.891406,-2.432205 0.914227,-2.635044 0.154472,-1.375939 1.038043,-8.321204 0.986354,-9.060777 z"
     clip-rule="evenodd"
     fill-rule="evenodd" />
  <path
     style="stroke-width:0.851553"
     id="path2052"
     fill="#f45b69"
     d="m 50.71647,12.414398 c 0.2805,-0.297533 0.06029,-0.01754 0.152257,-0.264151 0.04589,-0.12288 0.02861,-0.139144 0.04445,-0.244652 0.07732,0.263812 0.185895,0.410959 0.294808,0.749282 0.09137,0.283908 0.166223,0.497221 0.28263,0.770485 0.386946,0.906137 0.898133,2.054882 1.442361,2.880207 0.421007,0.638409 0.573946,0.678261 0.558788,1.627062 0.01108,-0.02495 0.02257,-0.08924 0.02743,-0.0769 0.100905,0.264834 0.07238,-1.384454 0.33151,-1.813892 0.509398,-0.844144 5.20171,-1.24991 5.188425,-1.83731 C 58.866435,13.7911 57.957998,13.786671 57.467503,13.673501 56.835642,13.527883 56.299079,13.413946 55.617496,13.29277 53.499344,12.916298 53.690432,12.644738 53.430453,11.088951 L 52.325819,4.3919797 c -0.07894,-0.4942241 -0.0062,-0.6564024 -0.478658,-0.6348921 -0.213058,0.3510612 -0.731909,5.3849636 -0.846955,6.4589424 -0.07817,0.730632 -0.242607,1.431715 -0.283736,2.198368 z"
     clip-rule="evenodd"
     fill-rule="evenodd" />
  <path
     style="stroke-width:0.851553"
     id="path2054"
     fill="#f45b69"
     d="m 50.71647,12.414398 c -0.456859,0.906819 -1.066571,0.706874 -2.481681,1.1427 -0.462563,0.142549 -0.940284,0.24729 -1.436229,0.390095 -0.33747,0.09733 -2.535072,0.467503 -0.654588,0.918485 0.315245,0.07596 0.539969,0.147233 0.874204,0.20812 0.653738,0.119217 1.20367,0.239201 1.850764,0.381069 2.061184,0.45209 1.769613,0.201734 2.151278,2.25653 l 0.972218,5.75556 c 0.190918,1.136056 0.0855,1.628679 0.63381,1.529389 0.134205,-0.220212 0.9293,-6.595361 0.865519,-7.063715 0.01516,-0.948715 -0.137782,-0.988653 -0.558789,-1.626977 -0.544228,-0.82541 -1.055414,-1.97407 -1.44236,-2.880208 -0.116407,-0.273262 -0.191259,-0.486577 -0.28263,-0.770485 -0.108912,-0.338321 -0.217487,-0.48547 -0.294808,-0.749366 -0.01584,0.105508 0.0015,0.121858 -0.04446,0.244736 -0.09197,0.246525 0.128244,-0.03347 -0.152257,0.264067 z"
     clip-rule="evenodd"
     fill-rule="evenodd" />
  <path
     style="stroke-width:0.851553"
     id="path2056"
     fill="#f45b69"
     d="m 56.617048,38.847872 c 0.613374,-0.07826 1.117237,-0.257765 1.651672,-0.41709 1.023482,-0.305453 0.65808,-0.163243 1.095267,-0.95706 0.13395,0.429949 0.270539,0.771081 0.442893,1.150362 0.445958,0.981755 0.467332,1.116897 1.181785,2.008813 0.351265,0.43889 0.473548,0.54014 0.448598,1.257913 0.134205,-0.229493 0.09964,-0.500457 0.133438,-0.780617 0.119047,-0.990357 1.044856,-0.939178 2.902773,-1.44185 0.308432,-0.08337 1.784088,-0.370936 0.949396,-0.771166 l -1.028506,-0.246099 c -3.467693,-0.782236 -2.606177,-0.05101 -3.245863,-3.50729 -0.07808,-0.421178 -0.146808,-1.104719 -0.243373,-1.499499 -0.112578,-0.460605 -0.17823,-0.963617 -0.260832,-1.479148 -0.06838,-0.427734 -0.04692,-1.161858 -0.407127,-1.310879 -0.349392,0.136503 -0.310987,0.641219 -0.343176,1.01173 -0.03619,0.417941 -0.104228,0.842696 -0.175249,1.230238 -0.249845,1.361973 -0.243715,4.449107 -0.857258,4.935258 -0.293359,0.232389 -0.710366,0.270624 -1.099014,0.391885 -0.605539,0.188533 -0.865092,0.133608 -1.145424,0.424499 z"
     clip-rule="evenodd"
     fill-rule="evenodd" />
  <path
     style="stroke-width:0.851553"
     id="path2058"
     fill="#f45b69"
     d="m 56.617048,38.847787 c -0.214846,-0.04828 -1.167819,0.22217 -1.222063,0.247802 -0.506163,0.2415 -0.327592,0.483171 0.254104,0.604517 0.25768,0.05365 0.425946,0.0924 0.690779,0.149873 2.997636,0.651693 2.809017,0.280246 3.09318,2.069529 l 0.723054,4.46418 c 0.06455,0.30707 0.07374,0.429183 0.120069,0.747237 0.0516,0.35348 0.04998,0.434803 0.433525,0.447406 0.379282,-0.469887 0.308432,-2.116364 0.425946,-2.839928 0.09419,-0.579822 0.362677,-2.325761 0.301621,-2.847677 0.02495,-0.717775 -0.09733,-0.819024 -0.448598,-1.257999 -0.714453,-0.891832 -0.735827,-1.026973 -1.181785,-2.008814 -0.172354,-0.379196 -0.308943,-0.720328 -0.442893,-1.150277 -0.437187,0.793817 -0.07179,0.651609 -1.095267,0.956976 -0.534435,0.15941 -1.038298,0.338917 -1.651672,0.417175 z"
     clip-rule="evenodd"
     fill-rule="evenodd" />
  <path
     style="stroke-width:0.851553"
     id="path2060"
     fill="#c4cdd4"
     d="m 38.598022,73.695623 81.474768,9.046385 -0.0715,0.642072 -81.474515,-9.046301 z m 49.270159,-33.396109 -0.64207,-0.07136 z m -49.341434,34.038265 1.078578,-9.713576 48.590449,-33.128722 0.361995,0.532731 -48.342818,32.959689 -1.046133,9.421153 z m 10.179632,0.80557 1.042897,-9.391947 48.373646,-33.074307 0.36233,0.532817 -48.126094,32.904848 -1.010367,9.099863 z m 10.015878,1.112042 1.042897,-9.391945 48.373986,-33.074222 0.3619,0.532815 -48.12626,32.90485 -1.010367,9.099862 z M 68.866293,77.382336 69.909105,67.99039 118.28283,34.916339 118.64475,35.4489 70.518987,68.354088 69.50862,77.45361 Z m 10.028481,1.123368 1.042812,-9.391945 48.373984,-33.074223 0.3619,0.532731 -48.125916,32.90485 -1.010453,9.099862 z m 10.144207,1.126859 1.042812,-9.391945 48.373467,-33.073966 0.36192,0.532731 -48.125675,32.904934 -1.010453,9.099521 z m 10.015621,1.112128 1.042808,-9.391945 48.37382,-33.073966 0.3619,0.532731 -48.12575,32.904934 -1.010448,9.099522 z m 10.143858,1.127116 1.04316,-9.391945 48.37416,-33.074223 0.3619,0.532731 -48.12635,32.904934 -1.0108,9.099862 z m 10.22545,1.44832 1.07807,-9.712725 48.3733,-33.074221 0.36276,0.532731 -48.12635,32.904934 -1.0457,9.420642 z m 50.03639,-42.63818 -1.04315,9.391945 -48.47976,33.30329 -0.36276,-0.532477 48.23281,-33.134256 1.00993,-9.099863 z m -129.514269,23.803197 81.153729,9.01096 -0.0715,0.642071 L 39.874698,65.1273 Z m 48.249743,-32.989663 81.209176,9.017944 -0.0707,0.64207 -81.209741,-9.017943 z" />
  <path
     style="stroke-width:0.851553"
     id="path2062"
     fill="#3e4e57"
     d="m 39.982477,73.17541 8.165113,0.906648 0.807188,-7.269876 -8.165114,-0.906648 z m -1.384455,0.520299 0.642071,0.07127 0.955358,-8.604088 -0.320781,-0.03559 0.07127,-0.642071 0.865263,0.09606 47.547979,-32.417676 -0.234773,-0.02605 0.07127,-0.642072 -48.59045,33.128807 z m 0,0 -0.07127,0.64207 80.897158,8.982178 0.0707,-0.642156 -9.61658,-1.067761 -0.0375,0.333126 -0.64207,-0.07127 0.0375,-0.333212 -9.502138,-1.054988 -0.0369,0.33236 -0.64232,-0.07135 0.0369,-0.332361 -9.373546,-1.040768 -0.03687,0.332362 -0.642071,-0.07137 0.03687,-0.33236 -9.501966,-1.054989 -0.03679,0.33185 -0.642412,-0.07135 0.03687,-0.331594 -9.387262,-1.042301 -0.03568,0.321887 -0.642412,-0.07136 0.03576,-0.321802 -9.501965,-1.055074 -0.03568,0.321291 -0.642071,-0.07127 0.03568,-0.321291 -9.373552,-1.040853 -0.03568,0.321291 -0.642326,-0.07127 0.03568,-0.321291 -9.501966,-1.055075 -0.07127,0.642071 -0.642071,-0.07127 z m 10.144037,1.126349 0.642327,0.07127 0.955356,-8.604088 -0.642326,-0.07127 z m 10.015879,1.112127 0.64207,0.07127 0.955357,-8.604089 -0.642071,-0.07127 z m 10.144035,1.126349 0.642327,0.07127 0.955357,-8.604089 -0.642327,-0.07127 z m 10.029589,1.113575 0.642326,0.0711 0.955357,-8.603833 -0.642326,-0.07136 z m 10.144292,1.126094 0.642071,0.07135 0.955357,-8.603833 -0.642071,-0.07127 z m 10.015618,1.112127 0.64233,0.07137 0.955348,-8.603833 -0.64232,-0.07136 z m 10.144458,1.126349 0.64208,0.07137 0.95544,-8.603834 -0.64207,-0.07127 z m 10.25866,1.139122 0.27846,0.03091 0.39852,-0.27403 0.94012,-8.463837 47.61627,-32.556564 0.0358,-0.322057 -0.60716,-0.06744 -47.43064,32.429852 0.37383,0.04147 -0.0715,0.642071 -0.57819,-0.06412 z m 0.27846,0.03091 0.29974,0.0333 -0.0656,0.586806 0.0707,-0.04837 0.0937,-0.845762 47.63586,-32.724234 0.92052,-8.296167 0.41045,-0.280501 -0.37467,-0.04155 0.0537,-0.481553 0.12007,0.01328 -0.0621,-0.09077 -0.71872,0.491601 -9.26404,-1.02859 -47.43064,32.429766 9.26404,1.028676 -0.22395,0.152854 -0.052,0.466566 -9.61659,-1.067847 0.0178,-0.162902 0.61056,-0.417347 -0.98183,-0.109003 -0.23844,0.162987 -0.0503,0.454986 -9.50222,-1.055074 0.0182,-0.163413 0.60971,-0.416921 -0.98235,-0.109003 -0.23724,0.162221 -0.0506,0.455751 -9.373546,-1.040768 0.01814,-0.163413 0.609712,-0.416835 -0.982096,-0.109083 -0.237242,0.162307 -0.05058,0.45575 -9.501966,-1.055073 0.01822,-0.16418 0.608859,-0.416154 -0.982095,-0.109083 -0.236646,0.161796 -0.05067,0.456262 -9.387262,-1.042301 0.01933,-0.173632 0.596684,-0.407979 -0.982352,-0.109083 -0.224214,0.153365 -0.05178,0.466055 -9.501966,-1.055074 0.01942,-0.174482 0.595576,-0.407213 -0.981584,-0.109003 -0.223703,0.152853 -0.05178,0.466566 -9.373551,-1.040853 0.01942,-0.174397 0.595576,-0.407299 -0.981841,-0.109003 -0.223702,0.152853 -0.05178,0.466567 -9.501966,-1.055074 0.01942,-0.174994 0.596342,-0.406617 9.161685,1.017265 47.43191,-32.430534 -9.045616,-1.004407 0.198582,-0.135396 -0.36208,-0.532731 81.209262,9.017943 -0.0179,0.160518 0.0724,0.008 -1.04229,9.391945 -48.33925,33.206553 -0.0119,0.111047 -0.64293,-0.07127 8.6e-4,-2.56e-4 0.51263,0.05698 -0.3619,-0.532221 z m 0.23417,0.620102 -0.006,0.05526 -0.0639,-0.0071 v 1.7e-4 l -8.5e-4,-2.56e-4 8.5e-4,8.6e-5 z m -22.602418,-50.160797 0.71812,-0.49092 0.36225,0.532817 -0.0983,0.06711 9.033518,1.003385 0.71872,-0.491176 0.36191,0.532816 -0.0988,0.06736 9.16356,1.017435 0.717,-0.490494 0.36191,0.532561 -0.0979,0.06694 9.05967,1.005854 0.70509,-0.482149 0.36191,0.532731 -0.0852,0.05841 9.16271,1.017691 0.70423,-0.481724 0.36191,0.532731 -0.0843,0.05799 9.03412,1.003129 0.70424,-0.481723 0.3619,0.532731 -0.0843,0.05799 9.1627,1.01769 0.70338,-0.481552 0.36276,0.532731 -0.0852,0.05782 -0.98099,-0.109003 -47.43139,32.42977 -9.16306,-1.017435 47.43184,-32.430022 -0.98185,-0.109003 -47.43231,32.430019 -9.033519,-1.003044 47.431739,-32.430108 -0.98184,-0.108999 -47.431995,32.430023 -9.162707,-1.017351 47.431992,-32.430362 -0.98184,-0.109 L 80.174232,68.951963 71.115671,67.946109 118.54681,35.515831 117.56582,35.406828 70.133319,67.837021 60.970356,66.819671 108.40226,34.389393 107.42042,34.28039 59.988772,66.710677 50.954734,65.707548 98.386902,33.277015 Z m 71.532638,7.455941 0.3006,0.441956 -0.0996,0.06787 0.19586,0.02171 0.0528,-0.481553 z m -81.069259,-0.324442 -0.64207,-0.07128 z m -37.741412,34.002245 8.036699,0.892427 0.807187,-7.269876 -8.036699,-0.892427 z m 10.015623,1.112128 8.165113,0.906648 0.807187,-7.269876 -8.165113,-0.906648 z m 10.144292,1.126349 8.050324,0.893874 0.807271,-7.269876 -8.050409,-0.893874 z m 10.029588,1.113405 8.165113,0.906648 0.807187,-7.26962 -8.165114,-0.90665 z m 10.144037,1.126349 8.036693,0.892341 0.80719,-7.26962 -8.036697,-0.892343 z m 10.015871,1.112127 8.16537,0.906563 0.80727,-7.26962 -8.16545,-0.906563 z m 10.14438,1.126349 8.27964,0.919336 0.80728,-7.269621 -8.2805,-0.919336 z m 8.6671,2.959997 -80.133573,-8.897023 c -0.01967,-5.96e-4 -0.03951,-0.0018 -0.05952,-0.004 l -0.642073,-0.07127 c -0.368892,-0.04096 -0.635173,-0.373662 -0.594213,-0.74264 l 0.07136,-0.642071 1.007216,-9.071421 c 0.02435,-0.219699 0.152343,-0.402954 0.329552,-0.506587 l 48.513215,-33.0761 c 0.134035,-0.105507 0.307666,-0.160603 0.490325,-0.140336 0.02001,0.0023 0.03934,0.0055 0.05868,0.0093 l 81.150411,9.011386 c 0.29804,0.03312 0.52882,0.256914 0.58332,0.536393 0.0554,0.111299 0.0809,0.239542 0.0656,0.372214 l -1.04231,9.391945 c -0.0247,0.220211 -0.15327,0.403636 -0.33126,0.50727 l -48.08466,33.031712 c -0.12177,0.247802 -0.38915,0.404487 -0.67868,0.37298 l -0.64207,-0.07153 c -0.0204,-0.0025 -0.0409,-0.0059 -0.0613,-0.01017 z m -30.754501,-51.12152 -45.844362,31.256158 7.113105,0.789815 45.73247,-31.26859 z m 10.027963,1.113405 -45.732461,31.268676 6.989119,0.77602 45.73263,-31.268335 z m 10.015708,1.112384 -45.732546,31.268334 7.118044,0.790327 45.732632,-31.26825 z m 10.14455,1.126433 -45.732039,31.268336 7.013815,0.77883 45.732464,-31.268335 z M 128.76204,37.324275 83.03,68.59244 90.148044,69.382765 135.88017,38.114686 Z m 10.1454,1.126519 -45.732386,31.268079 6.988606,0.775935 45.73247,-31.267994 z m 10.01511,1.112043 -45.73162,31.268164 7.11796,0.790326 45.73179,-31.267824 z m 10.14455,1.12669 -45.73179,31.267823 7.21946,0.801652 45.73179,-31.267909 z m 8.83145,2.104782 -46.15246,31.555222 -0.74425,6.701209 46.17033,-31.717614 z"
     clip-rule="evenodd"
     fill-rule="evenodd" />
</svg>
