<?xml version="1.0" encoding="UTF-8" standalone="no"?>
<svg
   xmlns:dc="http://purl.org/dc/elements/1.1/"
   xmlns:cc="http://creativecommons.org/ns#"
   xmlns:rdf="http://www.w3.org/1999/02/22-rdf-syntax-ns#"
   xmlns:svg="http://www.w3.org/2000/svg"
   xmlns="http://www.w3.org/2000/svg"
   xmlns:sodipodi="http://sodipodi.sourceforge.net/DTD/sodipodi-0.dtd"
   xmlns:inkscape="http://www.inkscape.org/namespaces/inkscape"
   inkscape:version="1.0 (4035a4f, 2020-05-01)"
   sodipodi:docname="welding.svg"
   id="svg2653"
   version="1.1"
   fill="none"
   viewBox="0 0 200 100"
   height="100"
   width="200">
  <metadata
     id="metadata2659">
    <rdf:RDF>
      <cc:Work
         rdf:about="">
        <dc:format>image/svg+xml</dc:format>
        <dc:type
           rdf:resource="http://purl.org/dc/dcmitype/StillImage" />
        <dc:title></dc:title>
      </cc:Work>
    </rdf:RDF>
  </metadata>
  <defs
     id="defs2657" />
  <sodipodi:namedview
     inkscape:current-layer="svg2653"
     inkscape:window-maximized="0"
     inkscape:window-y="0"
     inkscape:window-x="0"
     inkscape:cy="62.874183"
     inkscape:cx="114.14613"
     inkscape:zoom="3.2729073"
     showgrid="false"
     id="namedview2655"
     inkscape:window-height="1120"
     inkscape:window-width="1792"
     inkscape:pageshadow="2"
     inkscape:pageopacity="0"
     guidetolerance="10"
     gridtolerance="10"
     objecttolerance="10"
     borderopacity="1"
     bordercolor="#666666"
     pagecolor="#ffffff" />
  <path
     style="stroke-width:0.824742"
     id="path2633"
     fill="#000000"
     d="m 87.180562,9.5950265 c -0.405031,0.082033 -1.054185,0.3111233 -1.442804,0.5092075 -0.388371,0.198263 -0.989525,0.691343 -1.33567,1.095846 -0.346391,0.404495 -0.753566,1.099208 -0.905072,1.543744 -0.23703,0.695951 -0.275298,2.301888 -0.275298,11.571667 0,6.6927 0.07192,11.279998 0.189938,12.129565 0.104494,0.751175 0.386721,2.044783 0.627216,2.874143 0.240247,0.829526 0.712577,2.104825 1.049567,2.834144 0.336824,0.729237 1.044288,1.972866 1.571876,2.763793 0.527835,0.791093 1.624412,2.102928 2.436948,2.915463 0.812535,0.812536 2.115133,1.900041 2.894679,2.416495 0.779629,0.516453 1.816082,1.138391 2.30334,1.381608 0.487258,0.243463 1.563628,0.681402 2.391917,0.973443 0.828288,0.291793 2.257566,0.659628 3.176082,0.817319 0.918599,0.157691 2.363139,0.28668 3.210229,0.28668 0.84709,0 2.24825,-0.120659 3.11373,-0.268288 0.86549,-0.147382 2.21138,-0.476041 2.99093,-0.730309 0.77963,-0.254268 2.01542,-0.763959 2.74622,-1.132866 0.73089,-0.368907 1.90466,-1.077278 2.60841,-1.57402 0.70376,-0.496825 1.83934,-1.463175 2.52372,-2.147381 0.68428,-0.684454 1.65063,-1.820041 2.14746,-2.523711 0.49674,-0.703752 1.20462,-1.877608 1.57278,-2.608412 0.36833,-0.730886 0.87241,-1.935669 1.12025,-2.677195 0.24792,-0.741691 0.58095,-2.136907 0.74029,-3.100618 0.25047,-1.51736 0.28222,-3.248329 0.23653,-12.914471 -0.0526,-11.076921 -0.056,-11.167634 -0.43892,-11.8829 -0.21205,-0.39652 -0.70871,-1.012569 -1.10326,-1.369047 -0.39472,-0.35666 -1.01839,-0.7896802 -1.38606,-0.9624282 -0.6226,-0.292697 -1.74235,-0.3160844 -16.34853,-0.3421295 -8.624087,-0.015592 -16.011467,0.038802 -16.416498,0.1206582 z m 31.869768,1.5983155 c 0.36231,0.100635 0.90342,0.388726 1.20231,0.640322 0.29888,0.251414 0.6602,0.682837 0.8028,0.958705 0.21971,0.425047 0.25938,2.219677 0.25938,11.741762 0,9.289894 -0.0464,11.484945 -0.26787,12.652203 -0.14738,0.776577 -0.46301,1.985649 -0.70145,2.68668 -0.23851,0.701113 -0.77459,1.914968 -1.19167,2.697731 -0.41707,0.782763 -1.25072,2.038597 -1.85278,2.790927 -0.6019,0.752247 -1.51967,1.729402 -2.0395,2.171299 -0.51984,0.441896 -1.42359,1.125937 -2.00825,1.520164 -0.58474,0.394227 -1.54144,0.955711 -2.12619,1.24767 -0.58466,0.292041 -1.70284,0.732453 -2.48469,0.979134 -0.78194,0.246433 -2.09015,0.545814 -2.90747,0.665484 -0.91233,0.133361 -2.31323,0.178392 -3.62812,0.116701 -1.25724,-0.05897 -2.703508,-0.24767 -3.501693,-0.456907 -0.748041,-0.195959 -1.979629,-0.614268 -2.73666,-0.929484 -0.757278,-0.315217 -2.069277,-1.036289 -2.915463,-1.602392 -0.846433,-0.566103 -2.111834,-1.602226 -2.81237,-2.302762 -0.700371,-0.700371 -1.74202,-1.984742 -2.314639,-2.85402 -0.572783,-0.869196 -1.289649,-2.177154 -1.593154,-2.906226 -0.303505,-0.729072 -0.723959,-1.937567 -0.934268,-2.685608 -0.370887,-1.318597 -0.38433,-1.712247 -0.443876,-12.964945 -0.04074,-7.710976 5.77e-4,-11.815643 0.123381,-12.232723 0.101526,-0.344965 0.41666,-0.849567 0.700206,-1.121352 0.283464,-0.271613 0.823505,-0.603645 1.199835,-0.737773 0.560742,-0.199852 3.471422,-0.245213 16.098881,-0.250879 10.08066,-0.0044 15.64239,0.05669 16.07332,0.176289 z m -29.640325,2.839975 c -0.330639,0.330614 -0.341773,0.406094 -0.111835,0.753006 0.140701,0.212082 0.389443,0.412297 0.553154,0.444717 0.163547,0.03225 0.413031,-0.03721 0.554557,-0.15468 0.141608,-0.117468 0.257237,-0.400239 0.257237,-0.628445 0,-0.229089 -0.153567,-0.497336 -0.342598,-0.598508 -0.188536,-0.100808 -0.387876,-0.183373 -0.442969,-0.183373 -0.05509,0 -0.265567,0.165303 -0.467546,0.367283 z M 115.778,13.857383 c -0.17039,0.0994 -0.31002,0.360024 -0.31002,0.579373 0,0.219167 0.0957,0.494325 0.21262,0.611257 0.11695,0.116941 0.34375,0.212619 0.50408,0.212619 0.16033,0 0.4254,-0.147951 0.58895,-0.328668 0.17023,-0.188165 0.24891,-0.455522 0.18367,-0.62508 -0.0625,-0.163002 -0.25848,-0.373848 -0.43547,-0.468635 -0.17698,-0.09479 -0.34713,-0.16974 -0.37773,-0.166903 -0.0308,0.003 -0.19563,0.08664 -0.3661,0.186037 z m -25.922635,4.134976 c -0.323463,0.236371 -0.347051,0.537567 -0.396288,5.068122 -0.0452,4.138391 -0.01353,4.876618 0.225484,5.241319 l 0.278021,0.42433 h 13.103008 13.10293 l 0.27802,-0.42433 c 0.23901,-0.364701 0.27068,-1.102928 0.22556,-5.241319 -0.0493,-4.530555 -0.0728,-4.831751 -0.39637,-5.068122 -0.28948,-0.211381 -2.38342,-0.251217 -13.21014,-0.251217 -10.826802,0 -12.920658,0.03984 -13.210225,0.251217 z m 25.258225,5.241236 v 3.897896 h -12.048 -12.04808 v -3.897896 -3.897896 h 12.04808 12.048 z m -13.38573,14.009234 c -2.479919,2.473071 -4.509115,4.622184 -4.509115,4.775834 0,0.153649 0.09567,0.374927 0.212536,0.491876 0.116949,0.116948 0.378144,0.212618 0.580619,0.212618 0.244701,0 1.839092,-1.475546 4.76503,-4.410143 2.96825,-2.976742 4.37732,-4.510267 4.33608,-4.718267 -0.0335,-0.169567 -0.24437,-0.429773 -0.46845,-0.578309 -0.39884,-0.264495 -0.50103,-0.176825 -4.9167,4.226391 z m 3.8772,3.921483 c -1.64635,1.630185 -2.36231,2.460618 -2.36231,2.740041 0,0.220453 0.15414,0.483381 0.34268,0.58433 0.18845,0.100866 0.40107,0.183422 0.47249,0.183422 0.0714,0 1.19291,-1.052618 2.49221,-2.339133 1.64635,-1.630185 2.36231,-2.460618 2.36231,-2.740041 0,-0.220453 -0.15415,-0.483299 -0.34268,-0.58433 -0.18854,-0.100783 -0.40116,-0.18334 -0.4725,-0.18334 -0.0714,0 -1.19299,1.052536 -2.4922,2.339051 z M 89.410005,40.255611 c -0.330639,0.330557 -0.341773,0.406021 -0.111835,0.75299 0.140701,0.212041 0.389443,0.412289 0.553154,0.444701 0.163547,0.03225 0.413031,-0.0372 0.554557,-0.154722 0.141608,-0.117443 0.257237,-0.400247 0.257237,-0.628453 0,-0.229031 -0.153567,-0.49732 -0.342598,-0.598433 -0.188536,-0.100866 -0.387876,-0.183423 -0.442969,-0.183423 -0.05509,0 -0.265567,0.165361 -0.467546,0.36734 z M 115.778,40.079612 c -0.17039,0.09938 -0.31002,0.366267 -0.31002,0.593072 0,0.226969 0.11571,0.508453 0.25724,0.625896 0.1416,0.117526 0.39101,0.186969 0.55455,0.154722 0.16371,-0.03241 0.41254,-0.23266 0.55316,-0.444701 0.23002,-0.346969 0.2188,-0.422433 -0.11175,-0.75299 -0.20198,-0.201979 -0.42706,-0.364865 -0.50021,-0.361979 -0.0732,0.003 -0.2725,0.0866 -0.44297,0.18598 z m -8.53814,18.093191 c -4.46153,2.602969 -5.53328,3.160659 -5.75827,2.996453 -0.152,-0.111093 -0.51555,-0.36 -0.80792,-0.553154 -0.29237,-0.193155 -0.799585,-0.351341 -1.127008,-0.35167 -0.45501,-5.78e-4 -2.271587,0.966845 -7.689483,4.094349 l -7.093854,4.095257 -0.695587,-0.20833 c -0.382763,-0.114639 -0.948783,-0.156124 -1.258144,-0.09196 -0.309361,0.06417 -4.460618,2.361402 -9.22507,5.104989 -7.235611,4.166514 -8.734175,5.095999 -9.096503,5.64173 -0.238658,0.359258 -0.497869,0.937072 -0.576003,1.284124 -0.07831,0.346969 -0.07122,0.947216 0.01559,1.33369 0.08682,0.386557 0.560766,1.384742 1.053138,2.218392 0.584157,0.989195 1.122953,1.665649 1.550837,1.947545 0.360553,0.237609 0.989715,0.484536 1.398111,0.549279 0.409633,0.06466 0.988289,0.03151 1.290557,-0.07373 0.301377,-0.105072 4.232724,-2.31769 8.736476,-4.916865 4.503669,-2.599175 8.44173,-4.914143 8.751668,-5.144659 0.349938,-0.260288 0.691711,-0.763298 0.902515,-1.328824 l 0.339464,-0.909856 6.981854,-4.02738 c 5.287342,-3.049814 7.078432,-4.168494 7.380292,-4.609319 0.22218,-0.324371 0.39868,-0.850226 0.39868,-1.187793 0,-0.332866 -0.0785,-0.752247 -0.17452,-0.931546 -0.15521,-0.290062 0.40627,-0.661114 5.0593,-3.342845 l 5.23398,-3.016659 0.30037,0.495093 c 0.16511,0.272494 0.89806,1.544247 1.62894,2.826473 0.94945,1.665814 1.4433,2.361072 1.72982,2.436041 0.22053,0.05773 0.51942,0.0065 0.66441,-0.113732 0.14491,-0.12033 0.26342,-0.350268 0.26342,-0.51101 0,-0.160907 -0.85699,-1.765773 -1.90466,-3.566185 -1.62507,-2.793071 -1.96964,-3.27835 -2.34762,-3.304906 -0.29106,-0.02054 -2.32281,1.065566 -5.92478,3.167009 z m -6.65584,4.615669 c 0.29592,0.511505 0.51662,1.115134 0.49097,1.341031 -0.0388,0.340041 -1.210637,1.082556 -6.779708,4.296081 -3.70301,2.136742 -6.772617,3.883546 -6.821359,3.881731 -0.04866,-0.0017 -0.428206,-0.611958 -0.843299,-1.355958 -0.415175,-0.744082 -0.734103,-1.371134 -0.708783,-1.393814 0.0254,-0.02252 3.034391,-1.763959 6.686926,-3.870102 3.652288,-2.106144 6.82004,-3.829195 7.039256,-3.829195 0.294268,0 0.538967,0.243299 0.935997,0.930226 z m -16.319993,7.352823 c 0.265979,0.267959 0.817814,1.09501 1.226638,1.837855 0.409815,0.745072 0.743011,1.590351 0.743011,1.885031 0,0.293938 -0.139382,0.693443 -0.310021,0.88767 -0.170639,0.194309 -4.063009,2.515381 -8.650142,5.157772 -5.339084,3.075793 -8.51392,4.804535 -8.823272,4.804535 -0.265947,0 -0.700033,-0.112 -0.964907,-0.248907 -0.289691,-0.149938 -0.796594,-0.799588 -1.271786,-1.630268 -0.554565,-0.969154 -0.79021,-1.581608 -0.79021,-2.054185 0,-0.481567 0.125089,-0.796948 0.439052,-1.107464 0.241311,-0.23901 2.631438,-1.701855 5.31124,-3.250721 2.679842,-1.548865 6.419883,-3.705483 8.311429,-4.792493 1.891298,-1.086763 3.631586,-1.976 3.867215,-1.976 0.235464,0 0.645773,0.219299 0.911753,0.487175 z m 27.837603,2.170474 c -0.32957,0.329567 -0.35439,0.590515 -0.35439,3.720741 v 3.36635 h -7.58317 c -5.661861,0 -7.637036,0.05386 -7.795799,0.212619 -0.154309,0.154309 -0.212618,1.463834 -0.212618,4.77971 v 4.567092 l 0.414927,0.271752 c 0.36833,0.241567 2.932618,0.266722 22.87026,0.225567 21.99588,-0.04536 22.46021,-0.05336 22.70672,-0.390103 0.20091,-0.274804 0.25138,-1.212618 0.25138,-4.662597 0,-2.638185 -0.0714,-4.451958 -0.18342,-4.66136 -0.17699,-0.330639 -0.45105,-0.34268 -7.79579,-0.34268 h -7.61237 v -3.177649 c 0,-1.747711 -0.0737,-3.37138 -0.16355,-3.608081 -0.0901,-0.236536 -0.27851,-0.474309 -0.41872,-0.528165 -0.14029,-0.05369 -0.95975,0.21435 -1.82103,0.596041 -0.86136,0.381608 -1.67357,0.693773 -1.80503,0.693773 -0.13163,0 -0.98845,-0.318845 -1.90433,-0.708701 l -1.66507,-0.708701 h -3.28685 c -3.05063,0 -3.31233,0.02557 -3.64115,0.354392 z m 8.63134,2.041567 1.87596,0.801401 1.14457,-0.535587 c 0.62953,-0.29468 1.17559,-0.535588 1.21328,-0.535588 0.0379,0 0.0688,1.195876 0.0688,2.657649 v 2.657649 h -5.84684 -5.84684 v -2.923463 -2.923381 h 2.75752 2.75744 z m 20.07142,10.006513 v 3.543504 H 119.2773 97.750209 v -3.543504 -3.543587 h 21.527091 21.52709 z"
     clip-rule="evenodd"
     fill-rule="evenodd" />
  <path
     style="stroke-width:0.824742"
     id="path2635"
     fill="#d4d4d4"
     d="m 115.11359,23.233595 v 3.897896 h -12.048 -12.04808 v -3.897896 -3.897896 h 12.04808 12.048 z" />
  <path
     style="stroke-width:0.824742"
     id="path2637"
     fill="#748791"
     d="m 119.05033,11.193342 c 0.36231,0.100635 0.90342,0.388726 1.20231,0.640322 0.29888,0.251414 0.6602,0.682837 0.8028,0.958705 0.21971,0.425047 0.25938,2.219677 0.25938,11.741762 0,9.289894 -0.0464,11.484945 -0.26787,12.652203 -0.14738,0.776577 -0.46301,1.985649 -0.70145,2.68668 -0.23851,0.701113 -0.77459,1.914968 -1.19167,2.697731 -0.41707,0.782763 -1.25072,2.038597 -1.85278,2.790927 -0.6019,0.752247 -1.51967,1.729402 -2.0395,2.171299 -0.51984,0.441896 -1.42359,1.125937 -2.00825,1.520164 -0.58474,0.394227 -1.54144,0.955711 -2.12619,1.24767 -0.58466,0.292041 -1.70284,0.732453 -2.48469,0.979134 -0.78194,0.246433 -2.09015,0.545814 -2.90747,0.665484 -0.91233,0.133361 -2.31323,0.178392 -3.62812,0.116701 -1.25724,-0.05897 -2.703508,-0.24767 -3.501693,-0.456907 -0.748041,-0.195959 -1.979629,-0.614268 -2.73666,-0.929484 -0.757278,-0.315217 -2.069277,-1.036289 -2.915463,-1.602392 -0.846433,-0.566103 -2.111834,-1.602226 -2.81237,-2.302762 -0.700371,-0.700371 -1.74202,-1.984742 -2.314639,-2.85402 -0.572783,-0.869196 -1.289649,-2.177154 -1.593154,-2.906226 -0.303505,-0.729072 -0.723959,-1.937567 -0.934268,-2.685608 -0.370887,-1.318597 -0.38433,-1.712247 -0.443876,-12.964945 -0.04074,-7.710976 5.77e-4,-11.815643 0.123381,-12.232723 0.101526,-0.344965 0.41666,-0.849567 0.700206,-1.121352 0.283464,-0.271613 0.823505,-0.603645 1.199835,-0.737773 0.560742,-0.199852 3.471422,-0.245213 16.098881,-0.250879 10.08066,-0.0044 15.64239,0.05669 16.07332,0.176289 z m -29.75216,3.592981 c -0.229938,-0.346912 -0.218804,-0.422392 0.111835,-0.753006 0.201979,-0.20198 0.412453,-0.367283 0.467546,-0.367283 0.05509,0 0.254433,0.08257 0.442969,0.183373 0.189031,0.101172 0.342598,0.369419 0.342598,0.598508 0,0.228206 -0.115629,0.510977 -0.257237,0.628445 -0.141526,0.117468 -0.39101,0.186928 -0.554557,0.15468 -0.163711,-0.03242 -0.412453,-0.232635 -0.553154,-0.444717 z m 26.16981,-0.349567 c 0,-0.219349 0.13963,-0.479975 0.31002,-0.579373 0.17047,-0.0994 0.33526,-0.183027 0.3661,-0.186037 0.0306,-0.0028 0.20075,0.07212 0.37773,0.166903 0.17699,0.09479 0.37295,0.305633 0.43547,0.468635 0.0652,0.169558 -0.0134,0.436915 -0.18367,0.62508 -0.16355,0.180717 -0.42862,0.328668 -0.58895,0.328668 -0.16033,0 -0.38713,-0.09568 -0.50408,-0.212619 -0.11695,-0.116932 -0.21262,-0.39209 -0.21262,-0.611257 z m -26.008903,8.623725 c 0.04924,-4.530555 0.07283,-4.831751 0.396288,-5.068122 0.289567,-0.211381 2.383423,-0.251217 13.210225,-0.251217 10.82672,0 12.92066,0.03984 13.21014,0.251217 0.32355,0.236371 0.34705,0.537567 0.39637,5.068122 0.0451,4.138391 0.0134,4.876618 -0.22556,5.241319 l -0.27802,0.42433 H 103.06559 89.962582 L 89.684561,28.3018 c -0.23901,-0.364701 -0.27068,-1.102928 -0.225484,-5.241319 z m 7.759668,18.958182 c 0,-0.15365 2.029196,-2.302763 4.509115,-4.775834 4.41567,-4.403216 4.51786,-4.490886 4.9167,-4.226391 0.22408,0.148536 0.43497,0.408742 0.46845,0.578309 0.0412,0.208 -1.36783,1.741525 -4.33608,4.718267 -2.925938,2.934597 -4.520329,4.410143 -4.76503,4.410143 -0.202475,0 -0.46367,-0.09567 -0.580619,-0.212618 -0.116866,-0.116949 -0.212536,-0.338227 -0.212536,-0.491876 z m 6.024005,1.88569 c 0,-0.279423 0.71596,-1.109856 2.36231,-2.740041 1.29921,-1.286515 2.42078,-2.339051 2.4922,-2.339051 0.0713,0 0.28396,0.08256 0.4725,0.18334 0.18853,0.101031 0.34268,0.363877 0.34268,0.58433 0,0.279423 -0.71596,1.109856 -2.36231,2.740041 -1.2993,1.286515 -2.42079,2.339133 -2.49221,2.339133 -0.0714,0 -0.28404,-0.08256 -0.47249,-0.183422 -0.18854,-0.100949 -0.34268,-0.363877 -0.34268,-0.58433 z M 89.29817,41.008601 c -0.229938,-0.346969 -0.218804,-0.422433 0.111835,-0.75299 0.201979,-0.201979 0.412453,-0.36734 0.467546,-0.36734 0.05509,0 0.254433,0.08256 0.442969,0.183423 0.189031,0.101113 0.342598,0.369402 0.342598,0.598433 0,0.228206 -0.115629,0.51101 -0.257237,0.628453 -0.141526,0.117526 -0.39101,0.186969 -0.554557,0.154722 -0.163711,-0.03241 -0.412453,-0.23266 -0.553154,-0.444701 z m 26.16981,-0.335917 c 0,-0.226805 0.13963,-0.493691 0.31002,-0.593072 0.17047,-0.09938 0.36981,-0.183011 0.44297,-0.18598 0.0731,-0.0029 0.29823,0.16 0.50021,0.361979 0.33055,0.330557 0.34177,0.406021 0.11175,0.75299 -0.14062,0.212041 -0.38945,0.412289 -0.55316,0.444701 -0.16354,0.03225 -0.41295,-0.0372 -0.55455,-0.154722 -0.14153,-0.117443 -0.25724,-0.398927 -0.25724,-0.625896 z"
     clip-rule="evenodd"
     fill-rule="evenodd" />
  <path
     style="stroke-width:0.824742"
     id="path2639"
     fill="#d4d4d4"
     d="m 100.58402,62.788472 c 0.29592,0.511505 0.51662,1.115134 0.49097,1.341031 -0.0388,0.340041 -1.210637,1.082556 -6.779708,4.296081 -3.70301,2.136742 -6.772617,3.883546 -6.821359,3.881731 -0.04866,-0.0017 -0.428206,-0.611958 -0.843299,-1.355958 -0.415175,-0.744082 -0.734103,-1.371134 -0.708783,-1.393814 0.0254,-0.02252 3.034391,-1.763959 6.686926,-3.870102 3.652288,-2.106144 6.82004,-3.829195 7.039256,-3.829195 0.294268,0 0.538967,0.243299 0.935997,0.930226 z" />
  <path
     style="stroke-width:0.824742"
     id="path2641"
     fill="#748791"
     d="m 84.264027,70.141295 c 0.265979,0.267959 0.817814,1.09501 1.226638,1.837855 0.409815,0.745072 0.743011,1.590351 0.743011,1.885031 0,0.293938 -0.139382,0.693443 -0.310021,0.88767 -0.170639,0.194309 -4.063009,2.515381 -8.650142,5.157772 -5.339084,3.075793 -8.51392,4.804535 -8.823272,4.804535 -0.265947,0 -0.700033,-0.112 -0.964907,-0.248907 -0.289691,-0.149938 -0.796594,-0.799588 -1.271786,-1.630268 -0.554565,-0.969154 -0.79021,-1.581608 -0.79021,-2.054185 0,-0.481567 0.125089,-0.796948 0.439052,-1.107464 0.241311,-0.23901 2.631438,-1.701855 5.31124,-3.250721 2.679842,-1.548865 6.419883,-3.705483 8.311429,-4.792493 1.891298,-1.086763 3.631586,-1.976 3.867215,-1.976 0.235464,0 0.645773,0.219299 0.911753,0.487175 z" />
  <path
     style="stroke-width:0.824742"
     id="path2643"
     fill="#748791"
     d="m 140.80439,84.359849 v 3.543504 H 119.2773 97.750209 v -3.543504 -3.543587 h 21.527091 21.52709 z" />
  <path
     style="stroke-width:0.824742"
     id="path2645"
     fill="#d4d4d4"
     d="m 120.73297,74.353336 1.87596,0.801401 1.14457,-0.535587 c 0.62953,-0.29468 1.17559,-0.535588 1.21328,-0.535588 0.0379,0 0.0688,1.195876 0.0688,2.657649 v 2.657649 h -5.84684 -5.84684 v -2.923463 -2.923381 h 2.75752 2.75744 z" />
  <rect
     style="stroke-width:0.824742"
     id="rect2647"
     fill="#f45b69"
     transform="rotate(31.7179)"
     rx="0.72344309"
     height="5.5339947"
     width="1.4468862"
     y="-14.697185"
     x="140.16191" />
  <rect
     style="stroke-width:0.824742"
     id="rect2649"
     fill="#f45b69"
     transform="rotate(58.6801)"
     rx="0.72344309"
     height="5.5339947"
     width="1.4468862"
     y="-79.194527"
     x="123.95959" />
  <rect
     style="stroke-width:0.824742"
     id="rect2651"
     fill="#f45b69"
     transform="rotate(89.3618)"
     rx="0.72344309"
     height="5.5339947"
     width="1.4468862"
     y="-132.92751"
     x="71.987686" />
</svg>
