<?xml version="1.0" encoding="UTF-8" standalone="no"?>
<svg
   xmlns:dc="http://purl.org/dc/elements/1.1/"
   xmlns:cc="http://creativecommons.org/ns#"
   xmlns:rdf="http://www.w3.org/1999/02/22-rdf-syntax-ns#"
   xmlns:svg="http://www.w3.org/2000/svg"
   xmlns="http://www.w3.org/2000/svg"
   xmlns:sodipodi="http://sodipodi.sourceforge.net/DTD/sodipodi-0.dtd"
   xmlns:inkscape="http://www.inkscape.org/namespaces/inkscape"
   inkscape:version="1.0 (4035a4f, 2020-05-01)"
   sodipodi:docname="3.svg"
   width="84mm"
   height="25mm"
   version="1.1"
   style="clip-rule:evenodd;fill-rule:evenodd;image-rendering:optimizeQuality;shape-rendering:geometricPrecision;text-rendering:geometricPrecision"
   viewBox="0 0 2239.9986 1700"
   id="svg852">


  <defs
     id="defs835">
    <style
       type="text/css"
       id="style833">
   
    .str0 {stroke:#E31E24;stroke-width:105.83;stroke-miterlimit:22.9256}
    .fil1 {fill:none}
    .fil0 {fill:#444;fill-rule:nonzero}
   
  </style>
  </defs>
  <g
     transform="translate(-1721.6629,-508.78257)"
     id="Слой_x0020_1">
    <g
       id="_2073808461184">
      <g
         id="g846">
        <g
           id="g844">
          <g
             id="g842">
            <path
               class="fil0"
               d="M 5436.79,2074.47 C 5178.66,1670.09 4906.1,1443.13 4536.13,1209.42 4029.14,889.12 3445.09,728.96 2860.99,728.96 c -584.11,0 -1168.15,160.16 -1675.14,480.46 -369.99,233.74 -638.82,460.64 -896.96,865.05 l 409.06,-3.7 c 174.29,-240.16 306.33,-346.24 530.02,-510.55 484.24,-355.69 1062.43,-533.56 1640.55,-533.56 578.11,0 1156.3,177.86 1640.55,533.56 173.78,127.64 390.11,340.83 535.32,514.25 392.4,0 0,0 392.4,0 z m -873.06,-909.91 c 388.75,245.59 675.62,487.95 941.82,918.67 l 22.34,40.28 c -506.12,0 0,0 -510.91,0 -144.64,-174.48 -364.71,-392.78 -538.57,-520.49 -475.07,-348.95 -1042.46,-523.44 -1609.89,-523.44 -567.44,0 -1134.83,174.49 -1609.89,523.44 -227.37,167.02 -367.05,287.94 -534,520.49 H 196.07 c 278.37,-425.79 498.06,-645.53 962.18,-958.95 515.5,-325.67 1109.17,-488.52 1702.74,-488.52 593.56,0 1187.24,162.85 1702.74,488.52 z"
               id="path838" />
            <path
               class="fil0"
               d="m 675.27,2098.4 c 0,-186.67 12.77,-368.7 12.77,-555.39 l 29.46,-26.15 c 507.51,34.92 0,0 507.51,34.92 l 130.35,-491.77 33.64,-18.19 474.22,162.8 226.26,-396.22 35.68,-9.61 402.85,235.15 330.4,-334.05 h 37.02 l 321.56,325.12 402.42,-234.89 35.58,9.61 229.67,402.18 494.51,-133.97 31.99,18.71 121.93,460.02 471.86,-12.57 26.17,26.46 37.01,553.45 h -52.33 l -37.03,-526.99 -465.73,12.57 -25.25,-19.64 -120.36,-454.12 -488.61,132.37 -29.33,-12.3 -226.67,-396.93 -397.24,231.86 -31.49,-4.13 -317.17,-320.68 -326.06,329.65 -31.59,4.13 -397.64,-232.11 -223.93,392.13 -30.98,11.78 -468.08,-160.69 -129.01,486.73 -28.52,19.33 c -143.85,-9.63 0,0 -500.76,-34.06 -0.52,176.71 -12.73,348.76 -12.73,525.49 z"
               id="path840" />
          </g>
        </g>
      </g>
      <path
         class="fil1 str0"
         d="M 5580.65,2123.51 C 5269.82,1665.1 5005.27,1361.68 4496.05,1080.87 4002.18,808.54 3433.93,663.63 2867.05,653.36 1653.6,631.35 668.35,1283.99 161.97,2097.39"
         id="path848" />
    </g>
  </g>
</svg>
