<?xml version="1.0" encoding="UTF-8" standalone="no"?>
<svg
   xmlns:dc="http://purl.org/dc/elements/1.1/"
   xmlns:cc="http://creativecommons.org/ns#"
   xmlns:rdf="http://www.w3.org/1999/02/22-rdf-syntax-ns#"
   xmlns:svg="http://www.w3.org/2000/svg"
   xmlns="http://www.w3.org/2000/svg"
   xmlns:sodipodi="http://sodipodi.sourceforge.net/DTD/sodipodi-0.dtd"
   xmlns:inkscape="http://www.inkscape.org/namespaces/inkscape"
   inkscape:version="1.0 (4035a4f, 2020-05-01)"
   sodipodi:docname="13.svg"
   id="svg1473"
   viewBox="0 0 5700 1500"
   style="clip-rule:evenodd;fill-rule:evenodd;image-rendering:optimizeQuality;shape-rendering:geometricPrecision;text-rendering:geometricPrecision"
   version="1.1"
   height="15mm"
   width="57mm"
   xml:space="preserve"><metadata
   id="metadata1477"><rdf:RDF><cc:Work
       rdf:about=""><dc:format>image/svg+xml</dc:format><dc:type
         rdf:resource="http://purl.org/dc/dcmitype/StillImage" /><dc:title></dc:title></cc:Work></rdf:RDF></metadata><sodipodi:namedview
   inkscape:current-layer="svg1473"
   inkscape:window-maximized="0"
   inkscape:window-y="0"
   inkscape:window-x="0"
   inkscape:cy="561.25984"
   inkscape:cx="396.85039"
   inkscape:zoom="0.65477694"
   showgrid="false"
   id="namedview1475"
   inkscape:window-height="1120"
   inkscape:window-width="1792"
   inkscape:pageshadow="2"
   inkscape:pageopacity="0"
   guidetolerance="10"
   gridtolerance="10"
   objecttolerance="10"
   borderopacity="1"
   bordercolor="#666666"
   pagecolor="#ffffff" />
 <defs
   id="defs1434">
  <style
   id="style1432"
   type="text/css">
   <![CDATA[
    .fil2 {fill:#444}
    .fil1 {fill:#E31E24;fill-rule:nonzero}
    .fil0 {fill:#444;fill-rule:nonzero}
   ]]>
  </style>
 </defs>
 <g
   transform="translate(-105.83333,-1217.0835)"
   id="Слой_x0020_1">
  <metadata
   id="CorelCorpID_0Corel-Layer" />
  <g
   id="_2071511533328">
   <polygon
   id="polygon1437"
   points="2961.15,1426.01 2508.3,1927.17 2009.86,1697.33 1518.57,2241.82 952.56,2033.41 958.06,1992.46 1505.16,2198.3 2000.79,1649.85 2495.87,1878.46 2945.58,1380.91 2960.84,1394.11 "
   class="fil0" />
   <path
   id="path1439"
   d="m 2970.92,1434.85 -459.36,508.37 -498.4,-229.84 -490.76,543.93 C 1327.66,2185.5 1132.89,2113.77 938.08,2042.16 l 9.12,-67.88 554.22,208.51 496.1,-548.98 495.09,228.61 451.84,-499.91 29.51,25.52 0.41,43 z m -465.88,476.28 442.88,-490.13 -0.2,-20.81 -1.02,-0.87 -447.58,495.2 -495.08,-228.62 -495.13,547.91 -539.99,-203.16 -1.88,14.02 547.7,201.67 491.81,-545.08 z"
   class="fil0" />
   <polygon
   id="polygon1441"
   points="2958.79,1428.5 3403.5,1927.63 3898.86,1714.66 4381.04,2242.95 4967.37,2035.91 4961.88,1994.95 4394.45,2199.44 3907.93,1667.18 3415.93,1878.93 2974.35,1383.4 2959.09,1396.6 "
   class="fil0" />
   <path
   id="path1443"
   d="m 2972.02,1423.48 435.01,488.25 495.24,-212.92 482.63,528.78 567.97,-200.56 -1.9,-14.15 -560.32,201.93 -486.09,-531.79 -492.15,211.82 -439.28,-492.95 -0.92,0.79 z m 421.61,512.94 -448.07,-502.89 0.4,-43.01 29.61,-25.61 443.9,498.11 491.82,-211.67 486.96,532.72 574.51,-207.04 9.1,67.77 c -201.6,71.06 -403.15,142.28 -604.69,213.52 l -481.73,-527.81 -495.48,213.03 z"
   class="fil0" />
   <path
   id="path1445"
   d="m 290.45,2200.61 1204.47,-3.87 c 83.54,-35.64 167.14,-71.25 251.42,-105.09 86.35,-34.68 172.24,-67.02 257.1,-94.63 85.76,-27.91 170.25,-51.05 252.76,-70.72 80.95,-19.31 162.4,-35.74 242.44,-50.32 79.4,-14.48 155.92,-26.86 230.53,-35.47 76.24,-8.81 151.45,-14 227.09,-14 75.61,0 152.18,5.19 229.88,14.05 76.38,8.72 154.39,21.19 233.98,35.87 79.36,14.63 159.72,31.39 241.06,51.51 81.69,20.21 165.07,43.99 250.31,72.65 166.84,56.09 339.92,130.81 513.06,205.73 h 1199.6 v 70.56 H 4410.53 l -7.42,-3.23 c -173.48,-75.13 -346.99,-150.23 -513.94,-206.36 -82.87,-27.86 -164.46,-51.11 -244.81,-70.99 -80.69,-19.96 -159.57,-36.43 -236.92,-50.69 -77.1,-14.22 -153.38,-26.38 -229.3,-35.05 -74.6,-8.51 -148.46,-13.49 -221.88,-13.49 -73.39,0 -145.9,4.98 -219.09,13.44 -74.81,8.64 -149.52,20.68 -226.13,34.65 -75.97,13.84 -155.47,29.96 -238.58,49.78 -81.54,19.44 -164.31,42.07 -247.24,69.06 -83.82,27.27 -168.15,59.02 -252.7,92.97 -84.5,33.93 -170.48,70.61 -256.43,107.28 l -6.38,2.73 -1219.26,3.91 z"
   class="fil0" />
   <polygon
   id="polygon1447"
   points="1004.55,2233.69 933.99,2233.69 933.99,2024.37 1004.55,2024.37 "
   class="fil0" />
   <polygon
   id="polygon1449"
   points="1537.59,2231.86 1467.03,2231.86 1467.03,1830.62 1537.59,1830.62 "
   class="fil0" />
   <polygon
   id="polygon1451"
   points="1974.58,1672.09 2045.14,1672.09 2045.14,2030.51 1974.58,2030.51 "
   class="fil0" />
   <polygon
   id="polygon1453"
   points="2537.28,1911.09 2466.72,1911.09 2466.72,1489.17 2537.28,1489.17 "
   class="fil0" />
   <polygon
   id="polygon1455"
   points="2999.03,1861.81 2928.47,1861.81 2928.47,1367.23 2999.03,1367.23 "
   class="fil0" />
   <polygon
   id="polygon1457"
   points="3449.06,1911.02 3378.5,1911.02 3378.5,1504.08 3449.06,1504.08 "
   class="fil0" />
   <polygon
   id="polygon1459"
   points="3868.8,1663.96 3939.36,1663.96 3939.36,2031.52 3868.8,2031.52 "
   class="fil0" />
   <polygon
   id="polygon1461"
   points="4362,1830.62 4432.56,1830.62 4432.56,2241.6 4362,2241.6 "
   class="fil0" />
   <polygon
   id="polygon1463"
   points="4905.46,2003.04 4976.02,2003.04 4976.02,2241.6 4905.46,2241.6 "
   class="fil0" />
   <path
   id="path1465"
   d="m 250.9,2194.18 c 898.55,-294.69 1794.6,-598.62 2693.54,-893.44 l 12.79,-4.21 c 905.12,297.55 1806.94,603.97 2712.34,900.68 l -25.59,78.7 -2686.75,-892.29 c -894.57,293.65 -1786.48,595.97 -2680.75,889.25 z"
   class="fil1" />
   <rect
   id="rect1467"
   height="347.98001"
   width="119.68"
   y="2233.8"
   x="875.91998"
   class="fil2" />
   <rect
   id="rect1469"
   height="325.84"
   width="119.68"
   y="2241.6101"
   x="4923.8101"
   class="fil2" />
  </g>
 </g>
</svg>
