<?xml version="1.0" encoding="UTF-8" standalone="no"?>
<svg
   xmlns:dc="http://purl.org/dc/elements/1.1/"
   xmlns:cc="http://creativecommons.org/ns#"
   xmlns:rdf="http://www.w3.org/1999/02/22-rdf-syntax-ns#"
   xmlns:svg="http://www.w3.org/2000/svg"
   xmlns="http://www.w3.org/2000/svg"
   xmlns:sodipodi="http://sodipodi.sourceforge.net/DTD/sodipodi-0.dtd"
   xmlns:inkscape="http://www.inkscape.org/namespaces/inkscape"
   inkscape:version="1.0 (4035a4f, 2020-05-01)"
   sodipodi:docname="9.svg"
   id="svg861"
   viewBox="0 0 5700 1800"
   style="clip-rule:evenodd;fill-rule:evenodd;image-rendering:optimizeQuality;shape-rendering:geometricPrecision;text-rendering:geometricPrecision"
   version="1.1"
   height="18mm"
   width="57mm"
   xml:space="preserve"><metadata
   id="metadata865"><rdf:RDF><cc:Work
       rdf:about=""><dc:format>image/svg+xml</dc:format><dc:type
         rdf:resource="http://purl.org/dc/dcmitype/StillImage" /><dc:title></dc:title></cc:Work></rdf:RDF></metadata><sodipodi:namedview
   inkscape:current-layer="svg861"
   inkscape:window-maximized="0"
   inkscape:window-y="0"
   inkscape:window-x="0"
   inkscape:cy="258.09487"
   inkscape:cx="230.7493"
   inkscape:zoom="1.6582367"
   showgrid="false"
   id="namedview863"
   inkscape:window-height="1120"
   inkscape:window-width="1792"
   inkscape:pageshadow="2"
   inkscape:pageopacity="0"
   guidetolerance="10"
   gridtolerance="10"
   objecttolerance="10"
   borderopacity="1"
   bordercolor="#666666"
   pagecolor="#ffffff" />
 <defs
   id="defs850">
  <style
   id="style848"
   type="text/css">
   <![CDATA[
    .str0 {stroke:#E31E24;stroke-width:105.83;stroke-miterlimit:22.9256}
    .fil1 {fill:none}
    .fil0 {fill:#444;fill-rule:nonzero}
   ]]>
  </style>
 </defs>
 <g
   transform="translate(-153.70045,-712.15008)"
   id="Слой_x0020_1">
  <metadata
   id="CorelCorpID_0Corel-Layer" />
  <g
   id="_2072990596352">
   <path
   id="path853"
   d="m 5625.69,1225.53 c -1108.36,24.79 -1881.04,91.18 -2626.64,268.67 -745.63,177.49 -1464.65,466.23 -2465.64,935.7 l -32.96,-10.42 -149.35,-258.7 11.32,-35.87 C 1394.73,1640.77 2140.21,1350.01 2912.94,1171.36 3685.57,992.74 4484.71,926.35 5624.49,890.92 l 26.34,25.55 v 283.51 z M 2987.22,1444.3 c 94.42,-22.47 189.26,-43.18 285.14,-62.23 l -344.56,-154.55 -226.65,290.65 c 95.35,-26.53 190.49,-51.11 286.07,-73.87 z m 445.08,-92.35 c 192.88,-34.33 391.23,-62.53 599.88,-85.71 l -336.19,-179.73 z m 757.34,-102.06 c 188.84,-18.3 386.63,-32.88 596.71,-44.52 L 4446.9,1007.49 Z m 762.87,-52.99 c 188.22,-8.82 386.38,-15.56 596.63,-20.7 L 5254.32,961.65 Z M 580.45,2351.48 c 201.43,-94.01 391.5,-180.6 572.78,-260.37 l -390.2,-87.4 z m 709.22,-319.82 c 192.85,-83.18 376.07,-158.42 553.01,-226.49 l -388.62,-98.76 z m 697.42,-280.95 c 191.6,-70.79 376.68,-133.09 559.77,-187.94 l -372.81,-122.99 z m -1577.81,408.68 112.24,194.44 170.75,-325.25 c -91.97,41.93 -186.22,85.52 -282.99,130.81 z m 2445.86,-921.81 c -202.67,48.73 -404.16,105.43 -610.22,171.6 l 378.94,125.01 z m -750.09,217.72 c -187.94,63.57 -380.63,135.08 -582.32,215.68 l 392.64,99.77 z m -718.28,270.81 c -177.36,72.94 -362.1,152.78 -556.88,240.21 l 391.18,87.62 z M 5599.54,942.85 c -92.63,2.94 -183,6.08 -271.29,9.48 l 271.29,197.41 z m -424.41,15.72 c -229.03,9.91 -443.87,21.81 -647.83,36.56 l 343.79,200.42 z m -802.36,48.46 c -209.84,17.18 -408.45,37.76 -599.65,62.77 l 340.08,181.82 z m -753.43,84.07 c -212.62,31.16 -417.06,68.33 -618.94,112.97 l 350.56,157.22 z"
   class="fil0" />
   <path
   id="path855"
   d="m 5625.69,1225.53 c -1108.36,24.79 -1881.04,91.18 -2626.64,268.67 -745.63,177.49 -1464.65,466.23 -2465.64,935.7 l -32.96,-10.42 -149.35,-258.7 11.32,-35.87 C 1394.73,1640.77 2140.21,1350.01 2912.94,1171.36 3685.57,992.74 4484.71,926.35 5624.49,890.92 l 26.34,25.55 v 283.51 z M 2987.22,1444.3 c 94.42,-22.47 189.26,-43.18 285.14,-62.23 l -344.56,-154.55 -226.65,290.65 c 95.35,-26.53 190.49,-51.11 286.07,-73.87 z m 445.08,-92.35 c 192.88,-34.33 391.23,-62.53 599.88,-85.71 l -336.19,-179.73 z m 757.34,-102.06 c 188.84,-18.3 386.63,-32.88 596.71,-44.52 L 4446.9,1007.49 Z m 762.87,-52.99 c 188.22,-8.82 386.38,-15.56 596.63,-20.7 L 5254.32,961.65 Z M 580.45,2351.48 c 201.43,-94.01 391.5,-180.6 572.78,-260.37 l -390.2,-87.4 z m 709.22,-319.82 c 192.85,-83.18 376.07,-158.42 553.01,-226.49 l -388.62,-98.76 z m 697.42,-280.95 c 191.6,-70.79 376.68,-133.09 559.77,-187.94 l -372.81,-122.99 z m -1577.81,408.68 112.24,194.44 170.75,-325.25 c -91.97,41.93 -186.22,85.52 -282.99,130.81 z m 2445.86,-921.81 c -202.67,48.73 -404.16,105.43 -610.22,171.6 l 378.94,125.01 z m -750.09,217.72 c -187.94,63.57 -380.63,135.08 -582.32,215.68 l 392.64,99.77 z m -718.28,270.81 c -177.36,72.94 -362.1,152.78 -556.88,240.21 l 391.18,87.62 z M 5599.54,942.85 c -92.63,2.94 -183,6.08 -271.29,9.48 l 271.29,197.41 z m -424.41,15.72 c -229.03,9.91 -443.87,21.81 -647.83,36.56 l 343.79,200.42 z m -802.36,48.46 c -209.84,17.18 -408.45,37.76 -599.65,62.77 l 340.08,181.82 z m -753.43,84.07 c -212.62,31.16 -417.06,68.33 -618.94,112.97 l 350.56,157.22 z"
   class="fil0" />
   <path
   id="path857"
   d="m 266.97,2125.82 c 147.89,-67.11 295.77,-134.23 489.82,-219.71 194.04,-85.48 434.24,-189.33 657.78,-279.72 223.53,-90.39 430.39,-167.33 629.14,-235.71 198.75,-68.39 389.36,-128.22 555.63,-174.37 166.26,-46.17 308.16,-78.65 484.25,-113.27 176.09,-34.63 386.38,-71.38 587.26,-100.02 200.89,-28.64 392.36,-49.15 537.68,-64.1 145.32,-14.97 244.47,-24.37 376.55,-33.77 132.07,-9.4 297.04,-18.81 485.96,-27.35 188.91,-8.55 401.76,-16.25 614.61,-23.94"
   class="fil1 str0" />
  </g>
 </g>
</svg>
