<?xml version="1.0" encoding="UTF-8" standalone="no"?>
<svg
   xmlns:dc="http://purl.org/dc/elements/1.1/"
   xmlns:cc="http://creativecommons.org/ns#"
   xmlns:rdf="http://www.w3.org/1999/02/22-rdf-syntax-ns#"
   xmlns:svg="http://www.w3.org/2000/svg"
   xmlns="http://www.w3.org/2000/svg"
   xmlns:sodipodi="http://sodipodi.sourceforge.net/DTD/sodipodi-0.dtd"
   xmlns:inkscape="http://www.inkscape.org/namespaces/inkscape"
   inkscape:version="1.0 (4035a4f, 2020-05-01)"
   sodipodi:docname="6.svg"
   id="svg844"
   viewBox="0 0 5800 1500"
   style="clip-rule:evenodd;fill-rule:evenodd;image-rendering:optimizeQuality;shape-rendering:geometricPrecision;text-rendering:geometricPrecision"
   version="1.1"
   height="15mm"
   width="58mm"
   xml:space="preserve"><metadata
   id="metadata848"><rdf:RDF><cc:Work
       rdf:about=""><dc:format>image/svg+xml</dc:format><dc:type
         rdf:resource="http://purl.org/dc/dcmitype/StillImage" /><dc:title></dc:title></cc:Work></rdf:RDF></metadata><sodipodi:namedview
   inkscape:current-layer="svg844"
   inkscape:window-maximized="0"
   inkscape:window-y="0"
   inkscape:window-x="0"
   inkscape:cy="561.25984"
   inkscape:cx="396.85039"
   inkscape:zoom="0.65477694"
   showgrid="false"
   id="namedview846"
   inkscape:window-height="1120"
   inkscape:window-width="1792"
   inkscape:pageshadow="2"
   inkscape:pageopacity="0"
   guidetolerance="10"
   gridtolerance="10"
   objecttolerance="10"
   borderopacity="1"
   bordercolor="#666666"
   pagecolor="#ffffff" />
 <defs
   id="defs835">
  <style
   id="style833"
   type="text/css">
   <![CDATA[
    .str0 {stroke:#E31E24;stroke-width:105.83;stroke-miterlimit:22.9256}
    .fil1 {fill:none}
    .fil0 {fill:#444;fill-rule:nonzero}
   ]]>
  </style>
 </defs>
 <g
   transform="translate(-267.46599,-1216.1056)"
   id="Слой_x0020_1">
  <metadata
   id="CorelCorpID_0Corel-Layer" />
  <g
   id="_2071242894256">
   <path
   id="path838"
   d="m 5879.57,1921.1 c -873.73,99 -1753.46,200.7 -2633.15,302.39 -874.33,101.06 -1748.72,202.14 -2633.36,302.39 l -28.54,-23.08 -40.72,-394.01 22.88,-28.34 c 873.72,-99 1757.17,-201.13 2640.6,-303.23 878.06,-101.49 1756.13,-202.99 2640.81,-303.23 l 28.65,23.98 c 4.38,64.24 8.62,130.69 12.85,197.11 4.16,65.32 8.35,130.66 12.97,198.58 z m -2639.02,250.97 591.95,-68.41 -374.94,-292.22 -275.67,367.4 z m 716.07,-82.74 677.83,-78.09 -388.88,-291.48 z m 805.74,-92.79 c 230.32,-26.44 461.04,-52.86 692.36,-79.22 l -388.38,-292.17 z m 816.65,-93.38 270.25,-30.69 c -3.83,-57.06 -7.57,-115.62 -11.3,-174.15 l -8.22,-127.56 z M 677.27,2466.53 c 246.53,-27.96 493.54,-56.13 740.86,-84.45 l -385.88,-293.55 z m 868.07,-99.03 725.59,-83.45 L 1850,1995.24 Z m 855.99,-98.49 659.07,-76.12 -367.61,-293.29 z m -1803.47,-140.03 32.26,312.24 332.11,-353.65 z m 2615.29,-300.34 -459.77,53.13 367.1,292.88 275.47,-367.14 z m -583.28,67.39 -713.21,82.23 420.63,288.6 z m -845.33,97.42 -688.42,78.85 384.5,292.5 z m 4009.47,-461.27 c -221.02,25.07 -442.64,50.33 -664.7,75.73 l 387.63,291.6 z m -792.47,90.36 -693.3,79.66 389.27,291.79 z m -819.14,94.17 -664.02,76.65 375.35,292.55 z"
   class="fil0" />
   <path
   id="path840"
   d="M 490.08,2049.12 C 2296.3,1839.65 4102.53,1630.19 5908.75,1420.72"
   class="fil1 str0" />
  </g>
 </g>
</svg>
